<?xml version="1.0" encoding="UTF-8"?>
<svg version="1.1" xmlns="http://www.w3.org/2000/svg" width="447" height="316">
<path d="M0 0 C0.87227737 0.00141495 1.74455475 0.0028299 2.64326477 0.00428772 C5.3833077 0.00980992 8.12326373 0.02234678 10.86328125 0.03515625 C12.74023318 0.04018134 14.61718641 0.04474246 16.49414062 0.04882812 C21.05472012 0.05975367 25.61523604 0.07696268 30.17578125 0.09765625 C30.50578125 1.08765625 30.83578125 2.07765625 31.17578125 3.09765625 C24.45589522 6.23759362 17.61250647 8.78121982 10.61328125 11.22265625 C-24.92318626 23.84157738 -68.27406605 39.47621277 -89.88671875 72.22265625 C-91.21118927 76.28436583 -90.7421944 78.93145908 -89.82421875 83.09765625 C-89.16421875 83.42765625 -88.50421875 83.75765625 -87.82421875 84.09765625 C-87.82421875 85.08765625 -87.82421875 86.07765625 -87.82421875 87.09765625 C-86.33921875 87.59265625 -86.33921875 87.59265625 -84.82421875 88.09765625 C-83.13671875 91.66015625 -83.13671875 91.66015625 -81.82421875 95.09765625 C-81.08171875 94.26234375 -81.08171875 94.26234375 -80.32421875 93.41015625 C-77.11586993 90.44243359 -73.5729993 88.31780784 -69.82421875 86.09765625 C-68.75171875 86.73703125 -67.67921875 87.37640625 -66.57421875 88.03515625 C-62.90505089 90.12714624 -62.90505089 90.12714624 -58.82421875 91.09765625 C-58.16421875 90.76765625 -57.50421875 90.43765625 -56.82421875 90.09765625 C-51.40851115 89.74252788 -48.3135514 89.73065676 -43.82421875 93.09765625 C-43.82421875 92.43765625 -43.82421875 91.77765625 -43.82421875 91.09765625 C-41.84421875 90.10765625 -39.86421875 89.11765625 -37.82421875 88.09765625 C-37.90671875 87.21078125 -37.98921875 86.32390625 -38.07421875 85.41015625 C-37.76391068 81.2985743 -36.42672619 80.22066518 -33.82421875 77.09765625 C-33.26734375 75.30328125 -33.26734375 75.30328125 -32.69921875 73.47265625 C-27.41976733 58.69019227 -9.66732328 49.60112807 3.6159668 43.12060547 C17.05994127 36.76983831 30.81945965 31.27079374 44.80078125 26.23046875 C45.72939468 25.89497513 46.65800812 25.55948151 47.61476135 25.21382141 C52.31225466 23.51967714 57.01484377 21.8421214 61.72631836 20.18725586 C63.46868599 19.56521794 65.21095918 18.94291542 66.953125 18.3203125 C67.76865845 18.0394278 68.58419189 17.75854309 69.42443848 17.46914673 C71.37531761 16.76609416 73.28180293 15.94208412 75.17578125 15.09765625 C75.50578125 14.10765625 75.83578125 13.11765625 76.17578125 12.09765625 C77.66078125 11.60265625 77.66078125 11.60265625 79.17578125 11.09765625 C79.17578125 9.44765625 79.17578125 7.79765625 79.17578125 6.09765625 C79.79453125 6.03578125 80.41328125 5.97390625 81.05078125 5.91015625 C81.75203125 5.64203125 82.45328125 5.37390625 83.17578125 5.09765625 C83.83578125 3.44765625 84.49578125 1.79765625 85.17578125 0.09765625 C126.42578125 0.09765625 167.67578125 0.09765625 210.17578125 0.09765625 C209.84578125 1.41765625 209.51578125 2.73765625 209.17578125 4.09765625 C207.0859375 5.3359375 207.0859375 5.3359375 204.23828125 6.41015625 C203.13871094 6.83425781 202.03914063 7.25835938 200.90625 7.6953125 C199.67519531 8.15808594 198.44414062 8.62085938 197.17578125 9.09765625 C195.87896084 9.61406571 194.58342317 10.13370588 193.2890625 10.65625 C183.62484123 14.53129245 173.83520673 17.96908198 163.98364258 21.33447266 C150.56954178 25.94608127 137.29979601 30.9451202 124.01539612 35.91519165 C118.90820574 37.82587243 113.79488294 39.71910889 108.67578125 41.59765625 C107.25646123 42.12096036 105.8371931 42.64440522 104.41796875 43.16796875 C101.39119496 44.28388165 98.36284747 45.39537477 95.33300781 46.50292969 C56.74814695 57.90336215 56.74814695 57.90336215 24.17578125 79.09765625 C23.09365707 81.86812077 22.7483902 84.14805605 23.17578125 87.09765625 C28.90965033 95.69845987 41.48829039 99.18857154 50.92578125 101.91015625 C52.03195801 102.23999512 53.13813477 102.56983398 54.27783203 102.90966797 C57.90639999 103.9867967 61.54036014 105.04390415 65.17578125 106.09765625 C66.4769748 106.47707881 67.77808039 106.85680317 69.07910156 107.23681641 C75.70882843 109.17264302 82.34162536 111.09773753 88.9765625 113.015625 C91.37631436 113.70959298 93.77605509 114.40359943 96.17578125 115.09765625 C97.57836182 115.50298584 97.57836182 115.50298584 99.00927734 115.91650391 C121.74120376 122.51382389 144.40721414 129.76632996 166.17578125 139.09765625 C166.99691406 139.44650879 167.81804687 139.79536133 168.6640625 140.15478516 C187.30820929 148.12723425 204.39262346 157.29177595 220.17578125 170.09765625 C221.14515625 170.88140625 222.11453125 171.66515625 223.11328125 172.47265625 C233.86294882 181.64920174 243.64004422 194.6487501 245.17578125 209.09765625 C246.24805823 229.81313491 240.51115488 245.09257279 226.69140625 260.42578125 C225.86125 261.3075 225.03109375 262.18921875 224.17578125 263.09765625 C223.44875 263.87625 222.72171875 264.65484375 221.97265625 265.45703125 C220.17578125 267.09765625 220.17578125 267.09765625 218.17578125 267.09765625 C218.17578125 267.75765625 218.17578125 268.41765625 218.17578125 269.09765625 C216.81811523 270.34692383 216.81811523 270.34692383 214.921875 271.7421875 C214.23158203 272.25458984 213.54128906 272.76699219 212.83007812 273.29492188 C212.09853516 273.82794922 211.36699219 274.36097656 210.61328125 274.91015625 C209.55657227 275.69229492 209.55657227 275.69229492 208.47851562 276.49023438 C206.38469087 278.03599809 204.28167609 279.56839035 202.17578125 281.09765625 C201.54502686 281.56051025 200.91427246 282.02336426 200.2644043 282.50024414 C196.98203543 284.88665233 193.71507056 287.02078658 190.11328125 288.91015625 C185.85138622 291.18045728 181.66181441 293.54364094 177.48828125 295.97265625 C170.4978198 300.00937433 163.31776315 303.61074026 156.07128906 307.16162109 C152.2362594 309.05542631 148.43512258 311.01779833 144.62890625 312.96875 C138.21001323 315.92266733 131.31288987 315.46339505 124.37109375 315.65625 C123.64800144 315.67730742 122.92490913 315.69836483 122.17990494 315.72006035 C99.02819523 316.37377729 75.86200031 316.20967248 52.70361328 316.1663208 C46.53418326 316.15590922 40.36474885 316.15148583 34.1953125 316.14648438 C22.18879093 316.13590558 10.18228829 316.11894353 -1.82421875 316.09765625 C-1.82421875 315.76765625 -1.82421875 315.43765625 -1.82421875 315.09765625 C-0.81101563 314.98808594 0.2021875 314.87851562 1.24609375 314.765625 C2.59772586 314.60605732 3.94928468 314.44586792 5.30078125 314.28515625 C5.9659375 314.21490234 6.63109375 314.14464844 7.31640625 314.07226562 C11.89465983 313.51120514 15.11484901 312.19506081 19.17578125 310.09765625 C22.8318258 308.79294573 26.53869415 307.64725454 30.23828125 306.47265625 C41.1299128 302.93445666 51.56464064 298.70633453 62.01660156 294.04492188 C64.75067101 292.84544319 67.52260906 291.75295528 70.30078125 290.66015625 C85.0235199 284.51173983 98.46170503 276.30424556 111.484375 267.15405273 C113.17578125 266.09765625 113.17578125 266.09765625 116.17578125 265.09765625 C116.17578125 264.10765625 116.17578125 263.11765625 116.17578125 262.09765625 C118.19859429 260.66307964 120.15206861 259.43767617 122.30078125 258.22265625 C129.88551674 253.72033443 134.80256838 249.9331072 139.546875 242.4140625 C141.21670055 240.03946645 142.99960163 238.20601266 145.11328125 236.22265625 C153.86669123 227.78785698 159.16235343 217.7445245 159.61328125 205.59765625 C159.30317898 194.01601071 153.10025487 185.72707057 145.05078125 177.84765625 C132.60064661 167.02633622 117.51688677 159.80995195 102.17578125 154.09765625 C101.28117187 153.72511719 100.3865625 153.35257813 99.46484375 152.96875 C97.28009162 152.13735115 95.286164 151.6774777 92.98828125 151.28515625 C88.6281165 150.35441501 85.063183 148.70885234 81.13525391 146.63452148 C70.14889619 140.92926477 59.07916822 136.43120742 47.32250977 132.60742188 C44.97639637 131.84378785 42.63549396 131.06559083 40.29492188 130.28515625 C24.25589818 124.91000309 24.25589818 124.91000309 7.61328125 122.22265625 C6.45699219 122.12210937 5.30070313 122.0215625 4.109375 121.91796875 C1.20591905 121.83465308 1.20591905 121.83465308 -0.62109375 123.38671875 C-4.85003608 129.40060427 -5.53314693 134.93270319 -4.32421875 142.03515625 C-4.15921875 142.71578125 -3.99421875 143.39640625 -3.82421875 144.09765625 C-2.99921875 144.18015625 -2.17421875 144.26265625 -1.32421875 144.34765625 C2.17578125 145.09765625 2.17578125 145.09765625 5.41796875 146.8203125 C11.21704605 149.79164166 17.44106286 151.6031051 23.62680054 153.58578491 C85.21401478 173.3984411 85.21401478 173.3984411 98.55078125 195.78515625 C101.76538586 202.3380041 102.01808847 208.87788011 101.17578125 216.09765625 C99.6527961 220.41892899 97.55464855 224.19303269 95.17578125 228.09765625 C94.70785156 228.93554688 94.23992187 229.7734375 93.7578125 230.63671875 C90.76354941 235.65231911 87.60158345 238.58182522 82.62109375 241.58984375 C80.05560562 243.17175816 77.74577047 244.94040755 75.36328125 246.78515625 C68.60194637 251.76264958 61.23203009 255.61582753 53.84765625 259.58203125 C46.53158577 263.34623755 46.53158577 263.34623755 39.84765625 268.07421875 C36.02006983 270.972888 31.83636355 272.62149945 27.42578125 274.47265625 C26.43932617 274.89401855 25.45287109 275.31538086 24.43652344 275.74951172 C21.01949314 277.20657517 17.59756958 278.65180445 14.17578125 280.09765625 C11.44595332 281.25756203 8.71717644 282.41993307 5.98828125 283.58203125 C-5.03886222 288.27422873 -16.07052339 292.95514872 -27.1315918 297.56689453 C-33.54447083 300.2460769 -39.9329726 302.97466759 -46.26171875 305.84765625 C-47.43605469 306.37875 -48.61039063 306.90984375 -49.8203125 307.45703125 C-52.7280756 309.04514634 -54.64114868 310.63030432 -56.82421875 313.09765625 C-56.16421875 313.42765625 -55.50421875 313.75765625 -54.82421875 314.09765625 C-56.82421875 316.09765625 -56.82421875 316.09765625 -59.06933784 316.34375191 C-60.01141027 316.34190832 -60.9534827 316.34006474 -61.92410278 316.33816528 C-63.00386383 316.34091461 -64.08362488 316.34366394 -65.19610596 316.34649658 C-66.38580994 316.33930603 -67.57551392 316.33211548 -68.80126953 316.32470703 C-70.67439316 316.32514511 -70.67439316 316.32514511 -72.58535767 316.32559204 C-76.01497574 316.32443527 -79.44435472 316.31438678 -82.87393045 316.30044413 C-86.45605678 316.28796383 -90.0381861 316.28676841 -93.62033081 316.28439331 C-100.40599439 316.27817058 -107.19159374 316.26174908 -113.977229 316.24169433 C-121.70142409 316.21935996 -129.42562221 316.20834811 -137.14984155 316.19830346 C-153.04133785 316.1773835 -168.93277003 316.14219217 -184.82421875 316.09765625 C-184.82421875 314.77765625 -184.82421875 313.45765625 -184.82421875 312.09765625 C-183.82720947 311.72705078 -182.8302002 311.35644531 -181.80297852 310.97460938 C-157.26134354 301.84436504 -132.8167644 292.48952928 -108.44628906 282.91210938 C-104.19742135 281.24288773 -99.94496375 279.58300796 -95.69140625 277.92578125 C-83.50298288 273.17096556 -71.37323928 268.31886619 -59.34619141 263.16943359 C-56.52578256 261.97082809 -53.69708602 260.79320843 -50.8671875 259.6171875 C-39.77285086 254.99362969 -28.73817211 250.25017099 -17.81442261 245.23666382 C-16.07911601 244.44105669 -14.34052205 243.65263164 -12.60180664 242.86450195 C-5.51145168 239.57737034 1.0425191 235.84952421 7.6003418 231.62573242 C10.17578125 230.09765625 10.17578125 230.09765625 12.17578125 230.09765625 C12.17578125 229.43765625 12.17578125 228.77765625 12.17578125 228.09765625 C13.671875 226.87890625 13.671875 226.87890625 15.61328125 225.59765625 C18.40109972 223.81111995 18.40109972 223.81111995 20.17578125 221.09765625 C20.83578125 221.09765625 21.49578125 221.09765625 22.17578125 221.09765625 C24.2996811 215.85870328 25.75952176 211.83777127 25.17578125 206.09765625 C17.66458476 195.48819876 3.69745 191.93722864 -8.20651245 188.12817383 C-10.52936762 187.38449605 -12.8471528 186.62647944 -15.16430664 185.86523438 C-20.83624618 184.00491641 -26.51531568 182.16683848 -32.19537354 180.33148193 C-68.26254617 168.67373876 -104.57351263 156.11749772 -135.82421875 134.09765625 C-137.13712891 133.17919922 -137.13712891 133.17919922 -138.4765625 132.2421875 C-152.38985316 121.94781954 -164.63651229 108.55034913 -167.82421875 91.09765625 C-169.37364821 75.66792126 -165.44878773 64.97679947 -155.82421875 53.09765625 C-155.375625 52.48535156 -154.92703125 51.87304688 -154.46484375 51.2421875 C-149.45838891 44.73688661 -142.37869748 39.93625229 -135.82421875 35.09765625 C-135.09589844 34.55399414 -134.36757812 34.01033203 -133.6171875 33.45019531 C-123.91670921 26.41143362 -113.1938153 21.21810874 -102.47416687 15.93966675 C-98.53525848 13.99149139 -94.71438324 11.91166756 -90.90625 9.71484375 C-71.57120985 -0.70203897 -50.44287131 0.67205018 -29.02972412 1.08282471 C-23.4512784 1.17433087 -18.04276027 0.89163744 -12.49324036 0.32940674 C-8.32646031 -0.03239375 -4.17962482 -0.02636622 0 0 Z " fill="#040404" transform="translate(193.82421875,-0.09765625)"/>
<path d="M0 0 C0.87227737 0.00141495 1.74455475 0.0028299 2.64326477 0.00428772 C5.3833077 0.00980992 8.12326373 0.02234678 10.86328125 0.03515625 C12.74023318 0.04018134 14.61718641 0.04474246 16.49414062 0.04882812 C21.05472012 0.05975367 25.61523604 0.07696268 30.17578125 0.09765625 C30.50578125 1.08765625 30.83578125 2.07765625 31.17578125 3.09765625 C24.45589522 6.23759362 17.61250647 8.78121982 10.61328125 11.22265625 C-24.94478581 23.84924733 -68.06214486 39.45454542 -89.82421875 72.09765625 C-90.48421875 72.09765625 -91.14421875 72.09765625 -91.82421875 72.09765625 C-92.68841098 74.69023294 -93.00002807 76.43803332 -93.140625 79.109375 C-93.18251953 79.86669922 -93.22441406 80.62402344 -93.26757812 81.40429688 C-93.30689453 82.18998047 -93.34621094 82.97566406 -93.38671875 83.78515625 C-93.45149414 84.98108398 -93.45149414 84.98108398 -93.51757812 86.20117188 C-93.62349243 88.16647072 -93.72434426 90.13204121 -93.82421875 92.09765625 C-93.16421875 92.09765625 -92.50421875 92.09765625 -91.82421875 92.09765625 C-91.53546875 93.06703125 -91.24671875 94.03640625 -90.94921875 95.03515625 C-90.18207193 98.20429828 -90.18207193 98.20429828 -87.82421875 99.09765625 C-87.49421875 100.08765625 -87.16421875 101.07765625 -86.82421875 102.09765625 C-86.14359375 102.77828125 -85.46296875 103.45890625 -84.76171875 104.16015625 C-84.12234375 104.79953125 -83.48296875 105.43890625 -82.82421875 106.09765625 C-82.82421875 106.75765625 -82.82421875 107.41765625 -82.82421875 108.09765625 C-81.61765625 108.49984375 -81.61765625 108.49984375 -80.38671875 108.91015625 C-79.54109375 109.30203125 -78.69546875 109.69390625 -77.82421875 110.09765625 C-77.49421875 111.08765625 -77.16421875 112.07765625 -76.82421875 113.09765625 C-74.80913517 113.83089421 -74.80913517 113.83089421 -72.82421875 114.09765625 C-72.82421875 114.75765625 -72.82421875 115.41765625 -72.82421875 116.09765625 C-72.2621875 116.22011719 -71.70015625 116.34257813 -71.12109375 116.46875 C-68.63435356 117.14964315 -66.41907099 118.0911795 -64.07421875 119.16015625 C-63.275 119.52238281 -62.47578125 119.88460937 -61.65234375 120.2578125 C-61.0490625 120.53496094 -60.44578125 120.81210938 -59.82421875 121.09765625 C-59.82421875 121.75765625 -59.82421875 122.41765625 -59.82421875 123.09765625 C-59.14359375 123.15953125 -58.46296875 123.22140625 -57.76171875 123.28515625 C-54.91663049 124.07209555 -53.77139953 124.77301986 -51.51171875 126.53515625 C-47.77303723 129.38445979 -44.41156615 130.21237868 -39.82421875 131.09765625 C-39.82421875 131.75765625 -39.82421875 132.41765625 -39.82421875 133.09765625 C-34.23741834 135.06058613 -28.54169324 136.57163993 -22.82421875 138.09765625 C-22.82421875 138.75765625 -22.82421875 139.41765625 -22.82421875 140.09765625 C-21.71046875 140.22140625 -20.59671875 140.34515625 -19.44921875 140.47265625 C-15.82421875 141.09765625 -15.82421875 141.09765625 -13.82421875 143.09765625 C-11.90446017 143.59414554 -9.98286253 144.08511487 -8.05078125 144.53125 C-3.8209592 145.60725736 0.31906057 147.11127339 4.17578125 149.16015625 C6.67845666 150.33328535 9.25605815 150.89221296 11.9375 151.5234375 C15.75183535 152.50198426 19.45771611 153.80666141 23.17578125 155.09765625 C23.17578125 155.75765625 23.17578125 156.41765625 23.17578125 157.09765625 C23.77003906 157.1234375 24.36429688 157.14921875 24.9765625 157.17578125 C31.90830205 157.6501149 37.76402731 159.4768823 44.17578125 162.09765625 C44.17578125 162.75765625 44.17578125 163.41765625 44.17578125 164.09765625 C46.48578125 164.42765625 48.79578125 164.75765625 51.17578125 165.09765625 C51.17578125 165.75765625 51.17578125 166.41765625 51.17578125 167.09765625 C52.14515625 167.18015625 53.11453125 167.26265625 54.11328125 167.34765625 C58.84697226 167.99756875 62.91562532 170.02070948 67.17578125 172.09765625 C67.17578125 172.75765625 67.17578125 173.41765625 67.17578125 174.09765625 C68.38234375 174.43796875 68.38234375 174.43796875 69.61328125 174.78515625 C76.8584433 177.45442648 83.91594311 181.33043823 89.17578125 187.09765625 C89.17578125 187.75765625 89.17578125 188.41765625 89.17578125 189.09765625 C90.16578125 189.42765625 91.15578125 189.75765625 92.17578125 190.09765625 C99.12860808 197.48503476 99.49432863 204.1125257 99.37890625 213.76953125 C99.17578125 217.09765625 99.17578125 217.09765625 98.17578125 220.09765625 C97.51578125 220.09765625 96.85578125 220.09765625 96.17578125 220.09765625 C96.13453125 221.23203125 96.09328125 222.36640625 96.05078125 223.53515625 C95.2356246 229.75898744 92.03556448 234.79317073 87.1640625 238.71875 C85.67065374 239.70809979 84.15451337 240.66371903 82.62109375 241.58984375 C80.05560562 243.17175816 77.74577047 244.94040755 75.36328125 246.78515625 C68.60194637 251.76264958 61.23203009 255.61582753 53.84765625 259.58203125 C46.53158577 263.34623755 46.53158577 263.34623755 39.84765625 268.07421875 C36.02006983 270.972888 31.83636355 272.62149945 27.42578125 274.47265625 C26.43932617 274.89401855 25.45287109 275.31538086 24.43652344 275.74951172 C21.01949314 277.20657517 17.59756958 278.65180445 14.17578125 280.09765625 C11.44595332 281.25756203 8.71717644 282.41993307 5.98828125 283.58203125 C-5.03886222 288.27422873 -16.07052339 292.95514872 -27.1315918 297.56689453 C-33.54447083 300.2460769 -39.9329726 302.97466759 -46.26171875 305.84765625 C-47.43605469 306.37875 -48.61039063 306.90984375 -49.8203125 307.45703125 C-52.7280756 309.04514634 -54.64114868 310.63030432 -56.82421875 313.09765625 C-56.16421875 313.42765625 -55.50421875 313.75765625 -54.82421875 314.09765625 C-56.82421875 316.09765625 -56.82421875 316.09765625 -59.06933784 316.34375191 C-60.01141027 316.34190832 -60.9534827 316.34006474 -61.92410278 316.33816528 C-63.00386383 316.34091461 -64.08362488 316.34366394 -65.19610596 316.34649658 C-66.38580994 316.33930603 -67.57551392 316.33211548 -68.80126953 316.32470703 C-70.67439316 316.32514511 -70.67439316 316.32514511 -72.58535767 316.32559204 C-76.01497574 316.32443527 -79.44435472 316.31438678 -82.87393045 316.30044413 C-86.45605678 316.28796383 -90.0381861 316.28676841 -93.62033081 316.28439331 C-100.40599439 316.27817058 -107.19159374 316.26174908 -113.977229 316.24169433 C-121.70142409 316.21935996 -129.42562221 316.20834811 -137.14984155 316.19830346 C-153.04133785 316.1773835 -168.93277003 316.14219217 -184.82421875 316.09765625 C-184.82421875 314.77765625 -184.82421875 313.45765625 -184.82421875 312.09765625 C-183.82720947 311.72705078 -182.8302002 311.35644531 -181.80297852 310.97460938 C-157.26134354 301.84436504 -132.8167644 292.48952928 -108.44628906 282.91210938 C-104.19742135 281.24288773 -99.94496375 279.58300796 -95.69140625 277.92578125 C-83.50298288 273.17096556 -71.37323928 268.31886619 -59.34619141 263.16943359 C-56.52578256 261.97082809 -53.69708602 260.79320843 -50.8671875 259.6171875 C-39.77285086 254.99362969 -28.73817211 250.25017099 -17.81442261 245.23666382 C-16.07911601 244.44105669 -14.34052205 243.65263164 -12.60180664 242.86450195 C-5.51145168 239.57737034 1.0425191 235.84952421 7.6003418 231.62573242 C10.17578125 230.09765625 10.17578125 230.09765625 12.17578125 230.09765625 C12.17578125 229.43765625 12.17578125 228.77765625 12.17578125 228.09765625 C13.671875 226.87890625 13.671875 226.87890625 15.61328125 225.59765625 C18.40109972 223.81111995 18.40109972 223.81111995 20.17578125 221.09765625 C20.83578125 221.09765625 21.49578125 221.09765625 22.17578125 221.09765625 C24.2996811 215.85870328 25.75952176 211.83777127 25.17578125 206.09765625 C17.66458476 195.48819876 3.69745 191.93722864 -8.20651245 188.12817383 C-10.52936762 187.38449605 -12.8471528 186.62647944 -15.16430664 185.86523438 C-20.83624618 184.00491641 -26.51531568 182.16683848 -32.19537354 180.33148193 C-68.26254617 168.67373876 -104.57351263 156.11749772 -135.82421875 134.09765625 C-137.13712891 133.17919922 -137.13712891 133.17919922 -138.4765625 132.2421875 C-152.38985316 121.94781954 -164.63651229 108.55034913 -167.82421875 91.09765625 C-169.37364821 75.66792126 -165.44878773 64.97679947 -155.82421875 53.09765625 C-155.375625 52.48535156 -154.92703125 51.87304688 -154.46484375 51.2421875 C-149.45838891 44.73688661 -142.37869748 39.93625229 -135.82421875 35.09765625 C-135.09589844 34.55399414 -134.36757812 34.01033203 -133.6171875 33.45019531 C-123.91670921 26.41143362 -113.1938153 21.21810874 -102.47416687 15.93966675 C-98.53525848 13.99149139 -94.71438324 11.91166756 -90.90625 9.71484375 C-71.57120985 -0.70203897 -50.44287131 0.67205018 -29.02972412 1.08282471 C-23.4512784 1.17433087 -18.04276027 0.89163744 -12.49324036 0.32940674 C-8.32646031 -0.03239375 -4.17962482 -0.02636622 0 0 Z " fill="#040404" transform="translate(193.82421875,-0.09765625)"/>
<path d="M0 0 C0.495 0.99 0.495 0.99 1 2 C0.525625 2.825 0.05125 3.65 -0.4375 4.5 C-2.46457934 9.04065772 -2.62420325 13.08743934 -2 18 C-1.35323135 19.34309811 -0.68852127 20.67781972 0 22 C0 22.99 0 23.98 0 25 C1.485 25.495 1.485 25.495 3 26 C4.0456553 27.19056948 5.03968428 28.42708562 6 29.6875 C10.16693991 34.66094441 15.21368088 37.23763427 21 40 C21 40.66 21 41.32 21 42 C21.825 42.268125 22.65 42.53625 23.5 42.8125 C27.36915561 44.12524922 31.17994294 45.55101284 35 47 C35 47.66 35 48.32 35 49 C36.36125 49.185625 36.36125 49.185625 37.75 49.375 C41 50 41 50 42.9375 50.984375 C45.0846199 52.04166889 46.90124953 52.46101161 49.25 52.875 C53.1911155 53.69660063 56.30825847 55.04189141 59.84375 56.921875 C67.18969776 60.59484888 74.92988841 62.66956946 83 64 C83 64.66 83 65.32 83 66 C84.258125 66.268125 85.51625 66.53625 86.8125 66.8125 C92.26120106 68.0185023 97.62778989 69.49377287 103 71 C103 71.66 103 72.32 103 73 C105.64 73.33 108.28 73.66 111 74 C111 74.66 111 75.32 111 76 C111.65484375 76.07476562 112.3096875 76.14953125 112.984375 76.2265625 C119.87519415 77.21930763 125.26568162 79.3351049 131.37109375 82.66015625 C133.63436225 83.81364971 135.52238485 84.52556306 138 85 C138 85.66 138 86.32 138 87 C138.928125 87.20625 139.85625 87.4125 140.8125 87.625 C146.29056456 89.15795634 151.09926188 92.18185403 156 95 C156 95.66 156 96.32 156 97 C156.886875 97.0825 157.77375 97.165 158.6875 97.25 C162.44097537 98.09984348 164.25968046 99.34027809 167 102 C167 102.66 167 103.32 167 104 C167.721875 104.0825 168.44375 104.165 169.1875 104.25 C174.70147365 105.72039297 177.59893017 109.66070401 181 114 C181.66 114.33 182.32 114.66 183 115 C183.72693904 116.97888961 184.39816251 118.97954558 185 121 C181.63918477 119.87972826 181.02570265 119.06597578 178.875 116.375 C165.8783952 101.19884036 141.47557308 87.34189129 121.625 84.125 C117.33039039 83.22663779 113.8246223 81.57795682 109.95874023 79.53662109 C98.97284829 73.83110052 87.90308354 69.33345248 76.14672852 65.50976562 C73.80061512 64.7461316 71.45971271 63.96793458 69.11914062 63.1875 C53.08011693 57.81234684 53.08011693 57.81234684 36.4375 55.125 C34.70306641 54.97417969 34.70306641 54.97417969 32.93359375 54.8203125 C30.0301378 54.73699683 30.0301378 54.73699683 28.203125 56.2890625 C23.97418267 62.30294802 23.29107182 67.83504694 24.5 74.9375 C24.665 75.618125 24.83 76.29875 25 77 C25.825 77.0825 26.65 77.165 27.5 77.25 C31 78 31 78 34.2421875 79.72265625 C40.0412648 82.69398541 46.26528161 84.50544885 52.45101929 86.48812866 C114.03823353 106.30078485 114.03823353 106.30078485 127.375 128.6875 C130.58496936 135.23089908 130.77466496 141.78902294 130 149 C128.69589507 152.58856845 127.03750686 155.77637308 125 159 C124 156 124 156 125 153 C125.66 153 126.32 153 127 153 C127.08156437 150.14524694 127.14076372 147.29286435 127.1875 144.4375 C127.21263672 143.63763672 127.23777344 142.83777344 127.26367188 142.01367188 C127.33096893 136.51774534 126.41643646 132.92800822 124 128 C124 127.34 124 126.68 124 126 C123.01 125.67 122.02 125.34 121 125 C120.195625 123.948125 120.195625 123.948125 119.375 122.875 C113.10569825 115.28584525 104.80911044 111.069183 96 107 C96 106.34 96 105.68 96 105 C94.845 104.731875 93.69 104.46375 92.5 104.1875 C88.18376486 103.11614878 84.13707033 101.62527763 80 100 C80 99.34 80 98.68 80 98 C77.69 97.67 75.38 97.34 73 97 C73 96.34 73 95.68 73 95 C71.7625 94.731875 70.525 94.46375 69.25 94.1875 C63.47132371 92.90642184 57.73666298 91.45600583 52 90 C52 89.34 52 88.68 52 88 C51.45472656 87.89042969 50.90945312 87.78085938 50.34765625 87.66796875 C45.55258729 86.65977476 40.96621499 85.39894212 36.33984375 83.7890625 C32.98186125 82.65665438 29.57524083 81.70447242 26.1640625 80.74609375 C24 80 24 80 21 78 C18.67190457 77.31526605 16.33762223 76.65146849 14 76 C11.31333994 75.0465175 8.66005085 74.02668629 6 73 C6 72.34 6 71.68 6 71 C5.443125 70.97421875 4.88625 70.9484375 4.3125 70.921875 C-1.68293548 70.47626831 -5.76741536 68.94927498 -11 66 C-11 65.34 -11 64.68 -11 64 C-12.134375 63.95875 -13.26875 63.9175 -14.4375 63.875 C-19.17489884 63.31865067 -22.23823169 61.15910729 -26.01953125 58.375 C-28.05172204 56.82649345 -28.05172204 56.82649345 -31 56 C-31 55.34 -31 54.68 -31 54 C-31.845625 53.9175 -32.69125 53.835 -33.5625 53.75 C-37.77075515 52.83183524 -40.3886985 51.3367245 -44 49 C-44.33 48.34 -44.66 47.68 -45 47 C-46.485 46.505 -46.485 46.505 -48 46 C-49.37701298 44.71182656 -50.70644173 43.37195574 -52 42 C-53.11375 40.948125 -53.11375 40.948125 -54.25 39.875 C-56 38 -56 38 -56 36 C-56.99 35.67 -57.98 35.34 -59 35 C-59 34.01 -59 33.02 -59 32 C-59.99 31.67 -60.98 31.34 -62 31 C-62.33 29.02 -62.66 27.04 -63 25 C-63.66 25 -64.32 25 -65 25 C-65.08089542 22.22858283 -65.14044062 19.45952181 -65.1875 16.6875 C-65.22520508 15.50897461 -65.22520508 15.50897461 -65.26367188 14.30664062 C-65.27333984 13.54931641 -65.28300781 12.79199219 -65.29296875 12.01171875 C-65.3086792 11.31522217 -65.32438965 10.61872559 -65.34057617 9.90112305 C-64.90238443 7.45510217 -63.86562642 6.57297914 -62 5 C-62.020625 6.0725 -62.04125 7.145 -62.0625 8.25 C-62.01907613 12.23645057 -62.01907613 12.23645057 -61 16 C-60.34 16.33 -59.68 16.66 -59 17 C-59 17.99 -59 18.98 -59 20 C-58.01 20.33 -57.02 20.66 -56 21 C-54.3125 24.5625 -54.3125 24.5625 -53 28 C-52.505 27.443125 -52.01 26.88625 -51.5 26.3125 C-48.29165118 23.34477734 -44.74878055 21.22015159 -41 19 C-39.9275 19.639375 -38.855 20.27875 -37.75 20.9375 C-34.08083214 23.02948999 -34.08083214 23.02948999 -30 24 C-29.34 23.67 -28.68 23.34 -28 23 C-22.5842924 22.64487163 -19.48933265 22.63300051 -15 26 C-15 25.34 -15 24.68 -15 24 C-13.02 23.01 -11.04 22.02 -9 21 C-9.0825 20.113125 -9.165 19.22625 -9.25 18.3125 C-8.93969193 14.20091805 -7.60250744 13.12300893 -5 10 C-4.12328413 7.94904024 -3.40024551 5.89016707 -2.7109375 3.76953125 C-2 2 -2 2 0 0 Z " fill="#E9E8E8" transform="translate(165,67)"/>
<path d="M0 0 C41.25 0 82.5 0 125 0 C125 0.66 125 1.32 125 2 C123.20048134 2.00879936 123.20048134 2.00879936 121.36460876 2.01777649 C110.04994234 2.07502908 98.73546764 2.14780423 87.42099667 2.23571491 C81.60432767 2.28041181 75.78772861 2.31966965 69.97094727 2.34643555 C64.3557513 2.37247499 58.74082455 2.41288248 53.12579536 2.46318626 C50.98526932 2.47985053 48.84469671 2.49136754 46.70411491 2.49761391 C43.70211547 2.50725955 40.7008041 2.53532519 37.69897461 2.56762695 C36.8171199 2.56619186 35.9352652 2.56475677 35.02668762 2.5632782 C29.59184624 2.645796 25.8620315 3.55503975 21 6 C19.74477847 6.46063847 18.48317191 6.90508097 17.2109375 7.31640625 C16.57929688 7.52330078 15.94765625 7.73019531 15.296875 7.94335938 C14.66265625 8.14767578 14.0284375 8.35199219 13.375 8.5625 C8.27828682 10.20866548 8.27828682 10.20866548 3.2890625 12.15234375 C1 13 1 13 -3 13 C-3 13.66 -3 14.32 -3 15 C-5.31 15.33 -7.62 15.66 -10 16 C-9.6875 14.0625 -9.6875 14.0625 -9 12 C-8.01 11.67 -7.02 11.34 -6 11 C-6 9.35 -6 7.7 -6 6 C-5.38125 5.938125 -4.7625 5.87625 -4.125 5.8125 C-3.42375 5.544375 -2.7225 5.27625 -2 5 C-1.34 3.35 -0.68 1.7 0 0 Z " fill="#DEDCDB" transform="translate(279,0)"/>
<path d="M0 0 C-2.38859283 1.59239522 -4.31058249 2.63104651 -6.921875 3.69921875 C-8.07901001 4.1772998 -8.07901001 4.1772998 -9.25952148 4.66503906 C-10.08137939 5.00245117 -10.9032373 5.33986328 -11.75 5.6875 C-18.01354655 8.29945577 -24.26198227 10.93523946 -30.4375 13.75 C-31.61183594 14.28109375 -32.78617188 14.8121875 -33.99609375 15.359375 C-36.90385685 16.94749009 -38.81692993 18.53264807 -41 21 C-40.34 21.33 -39.68 21.66 -39 22 C-41 24 -41 24 -43.24511909 24.24609566 C-44.18719152 24.24425207 -45.12926395 24.24240849 -46.09988403 24.24050903 C-47.17964508 24.24325836 -48.25940613 24.24600769 -49.37188721 24.24884033 C-50.56159119 24.24164978 -51.75129517 24.23445923 -52.97705078 24.22705078 C-54.85017441 24.22748886 -54.85017441 24.22748886 -56.76113892 24.22793579 C-60.19075699 24.22677902 -63.62013597 24.21673053 -67.0497117 24.20278788 C-70.63183803 24.19030758 -74.21396735 24.18911216 -77.79611206 24.18673706 C-84.58177564 24.18051433 -91.36737499 24.16409283 -98.15301025 24.14403808 C-105.87720534 24.12170371 -113.60140346 24.11069186 -121.3256228 24.10064721 C-137.2171191 24.07972725 -153.10855128 24.04453592 -169 24 C-169 22.68 -169 21.36 -169 20 C-168.34 20.33 -167.68 20.66 -167 21 C-165.49214647 21.0922681 -163.98024696 21.12192932 -162.46957397 21.12025452 C-161.51602524 21.12162918 -160.5624765 21.12300385 -159.58003235 21.12442017 C-158.53058945 21.12082489 -157.48114655 21.11722961 -156.39990234 21.11352539 C-155.29745682 21.11367142 -154.19501129 21.11381744 -153.05915833 21.1139679 C-149.40139829 21.11326912 -145.74368868 21.10547833 -142.0859375 21.09765625 C-139.55530831 21.09579195 -137.02467875 21.0943681 -134.49404907 21.09336853 C-128.50526544 21.08993557 -122.51650358 21.08204755 -116.52772868 21.07201904 C-109.7104022 21.06085033 -102.89307487 21.05534554 -96.07574153 21.05032361 C-82.05048426 21.03986475 -68.02524313 21.02227001 -54 21 C-54 20.34 -54 19.68 -54 19 C-51.69 18.67 -49.38 18.34 -47 18 C-47 17.34 -47 16.68 -47 16 C-46.23816406 15.75765625 -45.47632813 15.5153125 -44.69140625 15.265625 C-39.13232773 13.46118004 -33.7842953 11.5268449 -28.484375 9.0703125 C-24.15781841 7.20635573 -19.69245333 5.72259675 -15.24609375 4.171875 C-12.74047046 3.26731785 -10.34977689 2.30654311 -7.9375 1.1875 C-5.02483486 0.01003962 -3.10355793 -0.28214163 0 0 Z " fill="#CBCAC9" transform="translate(178,292)"/>
<path d="M0 0 C4.97357544 0.41446462 8.38884843 1.55899289 12.7734375 3.88671875 C20.14582307 7.57291153 27.89974467 9.66459999 36 11 C36 11.66 36 12.32 36 13 C37.258125 13.268125 38.51625 13.53625 39.8125 13.8125 C45.26120106 15.0185023 50.62778989 16.49377287 56 18 C56 18.66 56 19.32 56 20 C58.64 20.33 61.28 20.66 64 21 C64 21.66 64 22.32 64 23 C64.65484375 23.07476562 65.3096875 23.14953125 65.984375 23.2265625 C72.87519415 24.21930763 78.26568162 26.3351049 84.37109375 29.66015625 C86.63436225 30.81364971 88.52238485 31.52556306 91 32 C91 32.66 91 33.32 91 34 C91.928125 34.20625 92.85625 34.4125 93.8125 34.625 C99.29056456 36.15795634 104.09926188 39.18185403 109 42 C109 42.66 109 43.32 109 44 C109.886875 44.0825 110.77375 44.165 111.6875 44.25 C115.44097537 45.09984348 117.25968046 46.34027809 120 49 C120 49.66 120 50.32 120 51 C120.721875 51.0825 121.44375 51.165 122.1875 51.25 C127.70147365 52.72039297 130.59893017 56.66070401 134 61 C134.66 61.33 135.32 61.66 136 62 C136.72693904 63.97888961 137.39816251 65.97954558 138 68 C134.63918477 66.87972826 134.02570265 66.06597578 131.875 63.375 C118.8783952 48.19884036 94.47557308 34.34189129 74.625 31.125 C70.33019599 30.22659712 66.82429403 28.57755157 62.95800781 26.53662109 C51.15876726 20.40717078 39.25534455 15.82143487 26.625 11.75 C25.03487301 11.23003205 23.44502784 10.70920145 21.85546875 10.1875 C18.8638084 9.20689632 15.87075644 8.23079953 12.87597656 7.25976562 C8.57561046 5.86458781 4.28605293 4.43853731 0 3 C0 2.01 0 1.02 0 0 Z " fill="#DCDCDC" transform="translate(212,120)"/>
<path d="M0 0 C0 0.66 0 1.32 0 2 C-0.99 2 -1.98 2 -3 2 C-3 2.66 -3 3.32 -3 4 C-5.97 4.66 -8.94 5.32 -12 6 C-12 6.66 -12 7.32 -12 8 C1.51891935 8.82582609 15.00076541 9.19602835 28.54296875 9.31640625 C30.5336391 9.33704846 32.5243058 9.35804639 34.51496887 9.37937927 C39.68501772 9.43385155 44.855101 9.48358187 50.02520752 9.53222656 C55.32868412 9.58299811 60.63211242 9.63838977 65.93554688 9.69335938 C76.29032305 9.80002143 86.64514167 9.90165957 97 10 C97 10.33 97 10.66 97 11 C68.86963167 12.18505073 40.7469237 12.12126269 12.59649658 12.06866455 C6.42045441 12.05825937 0.24440787 12.05383088 -5.93164062 12.04882812 C-17.9544382 12.03824432 -29.97721691 12.02127841 -42 12 C-42 11.67 -42 11.34 -42 11 C-40.98679688 10.89042969 -39.97359375 10.78085937 -38.9296875 10.66796875 C-37.57805539 10.50840107 -36.22649657 10.34821167 -34.875 10.1875 C-34.20984375 10.11724609 -33.5446875 10.04699219 -32.859375 9.97460938 C-28.29039024 9.41468477 -25.0465215 8.10946484 -21 6 C-17.78329297 4.82948197 -14.52071715 3.82059775 -11.25 2.8125 C-10.38761719 2.53986328 -9.52523437 2.26722656 -8.63671875 1.98632812 C-2.27449483 0 -2.27449483 0 0 0 Z " fill="#A4A4A4" transform="translate(234,304)"/>
<path d="M0 0 C1.155 -0.0825 2.31 -0.165 3.5 -0.25 C4.1496875 -0.29640625 4.799375 -0.3428125 5.46875 -0.390625 C8.48966669 0.07556585 10.72522024 1.38686969 13.40722656 2.79638672 C18.55775163 5.18735551 24.05020296 6.75703529 29.45101929 8.48812866 C91.03823353 28.30078485 91.03823353 28.30078485 104.375 50.6875 C107.58496936 57.23089908 107.77466496 63.78902294 107 71 C105.69589507 74.58856845 104.03750686 77.77637308 102 81 C101 78 101 78 102 75 C102.66 75 103.32 75 104 75 C104.08156437 72.14524694 104.14076372 69.29286435 104.1875 66.4375 C104.21263672 65.63763672 104.23777344 64.83777344 104.26367188 64.01367188 C104.33096893 58.51774534 103.41643646 54.92800822 101 50 C101 49.34 101 48.68 101 48 C99.515 47.505 99.515 47.505 98 47 C97.46375 46.29875 96.9275 45.5975 96.375 44.875 C90.10569825 37.28584525 81.80911044 33.069183 73 29 C73 28.34 73 27.68 73 27 C71.845 26.731875 70.69 26.46375 69.5 26.1875 C65.18376486 25.11614878 61.13707033 23.62527763 57 22 C57 21.34 57 20.68 57 20 C54.69 19.67 52.38 19.34 50 19 C50 18.34 50 17.68 50 17 C48.7625 16.731875 47.525 16.46375 46.25 16.1875 C40.47132371 14.90642184 34.73666298 13.45600583 29 12 C29 11.34 29 10.68 29 10 C28.45472656 9.89042969 27.90945312 9.78085938 27.34765625 9.66796875 C22.55504356 8.66029121 17.97010921 7.40325242 13.34765625 5.7890625 C9.9267601 4.63927711 6.44957411 3.69687441 2.96875 2.74609375 C1 2 1 2 0 0 Z " fill="#D0D0D0" transform="translate(188,145)"/>
<path d="M0 0 C0.66 0.33 1.32 0.66 2 1 C-4.06400516 6.15887474 -9.9566497 9.6931521 -17.3125 12.6875 C-19.32299969 13.53235453 -21.33341211 14.37741677 -23.34375 15.22265625 C-24.94089844 15.88612061 -24.94089844 15.88612061 -26.5703125 16.56298828 C-30.27829525 18.11660349 -33.96862301 19.70745067 -37.65625 21.30859375 C-39.57807476 22.14118796 -41.50001872 22.97350658 -43.42196655 23.80581665 C-44.67991288 24.35089491 -45.93758435 24.89660794 -47.19497681 25.44296265 C-48.95785924 26.20775091 -50.72302155 26.96727747 -52.48828125 27.7265625 C-53.50446533 28.16564941 -54.52064941 28.60473633 -55.56762695 29.05712891 C-58 30 -58 30 -60 30 C-60 29.34 -60 28.68 -60 28 C-58.35 27.67 -56.7 27.34 -55 27 C-55 26.34 -55 25.68 -55 25 C-51.7 24.34 -48.4 23.68 -45 23 C-45 22.34 -45 21.68 -45 21 C-43.86820313 20.59007812 -42.73640625 20.18015625 -41.5703125 19.7578125 C-40.088435 19.21383215 -38.60666996 18.66954537 -37.125 18.125 C-36.37863281 17.85558594 -35.63226563 17.58617187 -34.86328125 17.30859375 C-30.56529918 15.76393439 -30.56529918 15.76393439 -27 13 C-26.01 13 -25.02 13 -24 13 C-24 12.34 -24 11.68 -24 11 C-20.7 10.34 -17.4 9.68 -14 9 C-14 8.34 -14 7.68 -14 7 C-10.535 6.505 -10.535 6.505 -7 6 C-6.67 5.01 -6.34 4.02 -6 3 C-5.01 3 -4.02 3 -3 3 C-3 2.34 -3 1.68 -3 1 C-2.01 0.67 -1.02 0.34 0 0 Z " fill="#B8B8B8" transform="translate(238,262)"/>
<path d="M0 0 C0.53625 0.226875 1.0725 0.45375 1.625 0.6875 C-0.685 1.3475 -2.995 2.0075 -5.375 2.6875 C-5.375 3.3475 -5.375 4.0075 -5.375 4.6875 C23.335 4.6875 52.045 4.6875 81.625 4.6875 C81.625 5.0175 81.625 5.3475 81.625 5.6875 C46.975 5.6875 12.325 5.6875 -23.375 5.6875 C-23.375 5.3575 -23.375 5.0275 -23.375 4.6875 C-22.36179688 4.57792969 -21.34859375 4.46835937 -20.3046875 4.35546875 C-18.95305539 4.19590107 -17.60149657 4.03571167 -16.25 3.875 C-15.58484375 3.80474609 -14.9196875 3.73449219 -14.234375 3.66210938 C-9.38651272 3.06800861 -4.54117363 -0.59752285 0 0 Z " fill="#DEDEDE" transform="translate(215.375,310.3125)"/>
<path d="M0 0 C-2.38859283 1.59239522 -4.31058249 2.63104651 -6.921875 3.69921875 C-7.69337891 4.01818115 -8.46488281 4.33714355 -9.25976562 4.66577148 C-10.49243164 5.1715271 -10.49243164 5.1715271 -11.75 5.6875 C-19.29724717 8.81799072 -26.72010618 12.13383327 -34.09375 15.65234375 C-38.6606971 17.77008131 -41.98677119 18.09458922 -47 18 C-47 17.34 -47 16.68 -47 16 C-46.23816406 15.75765625 -45.47632813 15.5153125 -44.69140625 15.265625 C-39.13232773 13.46118004 -33.7842953 11.5268449 -28.484375 9.0703125 C-24.15781841 7.20635573 -19.69245333 5.72259675 -15.24609375 4.171875 C-12.74047046 3.26731785 -10.34977689 2.30654311 -7.9375 1.1875 C-5.02483486 0.01003962 -3.10355793 -0.28214163 0 0 Z " fill="#CFCFCF" transform="translate(178,292)"/>
<path d="M0 0 C5.23272633 1.63958758 10.15196636 3.38952035 15 6 C15 6.66 15 7.32 15 8 C16.3303125 8.12375 16.3303125 8.12375 17.6875 8.25 C21.44097537 9.09984348 23.25968046 10.34027809 26 13 C26 13.66 26 14.32 26 15 C26.721875 15.0825 27.44375 15.165 28.1875 15.25 C33.70147365 16.72039297 36.59893017 20.66070401 40 25 C40.66 25.33 41.32 25.66 42 26 C42.72693904 27.97888961 43.39816251 29.97954558 44 32 C40.63918477 30.87972826 40.02570265 30.06597578 37.875 27.375 C28.284081 16.17566601 13.66037304 7.36657512 0 2 C0 1.34 0 0.68 0 0 Z " fill="#E3E3E3" transform="translate(306,156)"/>
<path d="M0 0 C1.87695193 0.00502509 3.75390516 0.00958621 5.63085938 0.01367188 C10.19143887 0.02459742 14.75195479 0.04180643 19.3125 0.0625 C19.8075 1.5475 19.8075 1.5475 20.3125 3.0625 C14.40872349 5.9376252 8.77962188 7.90055848 2.3125 9.0625 C2.3125 8.4025 2.3125 7.7425 2.3125 7.0625 C4.2925 6.4025 6.2725 5.7425 8.3125 5.0625 C8.3125 4.4025 8.3125 3.7425 8.3125 3.0625 C-11.4875 2.5675 -11.4875 2.5675 -31.6875 2.0625 C-31.6875 1.7325 -31.6875 1.4025 -31.6875 1.0625 C-21.15820439 -0.2955755 -10.59228013 -0.04951847 0 0 Z " fill="#737372" transform="translate(204.6875,-0.0625)"/>
<path d="M0 0 C10.80649009 3.78804012 20.98801322 13.78325772 26 24 C28.38574126 31.52798087 28.0452132 39.79217668 24.5 46.8125 C23.69247693 48.22342226 22.86856189 49.62581101 22 51 C21 48 21 48 22 45 C22.66 45 23.32 45 24 45 C24.08156437 42.14524694 24.14076372 39.29286435 24.1875 36.4375 C24.21263672 35.63763672 24.23777344 34.83777344 24.26367188 34.01367188 C24.33096893 28.51774534 23.41643646 24.92800822 21 20 C21 19.34 21 18.68 21 18 C20.01 17.67 19.02 17.34 18 17 C17.46375 16.29875 16.9275 15.5975 16.375 14.875 C12.72248381 10.45353304 8.0300839 6.39234489 2.78125 3.98046875 C1 3 1 3 0 0 Z " fill="#E2E2E2" transform="translate(268,175)"/>
<path d="M0 0 C0 0.66 0 1.32 0 2 C-0.99 2 -1.98 2 -3 2 C-3 2.66 -3 3.32 -3 4 C-5.97 4.66 -8.94 5.32 -12 6 C-12 6.66 -12 7.32 -12 8 C-5.73 8.33 0.54 8.66 7 9 C7 9.33 7 9.66 7 10 C-3.23 10 -13.46 10 -24 10 C-20 7 -20 7 -17 7 C-17 6.34 -17 5.68 -17 5 C-14.54285453 4.16301614 -12.08441143 3.33027576 -9.625 2.5 C-8.92632812 2.26152344 -8.22765625 2.02304687 -7.5078125 1.77734375 C-2.2265625 0 -2.2265625 0 0 0 Z " fill="#262626" transform="translate(234,304)"/>
<path d="M0 0 C7.92 0 15.84 0 24 0 C21.67566233 3.4865065 20.47749494 3.86599377 16.625 5.25 C15.19027344 5.78367187 15.19027344 5.78367187 13.7265625 6.328125 C10.95935166 7.0100165 9.63263806 6.9732027 7 6 C6.67 4.68 6.34 3.36 6 2 C3.03 1.505 3.03 1.505 0 1 C0 0.67 0 0.34 0 0 Z " fill="#141413" transform="translate(380,2)"/>
<path d="M0 0 C5.03682719 1.49743511 9.67436323 3.6418213 14.4140625 5.87890625 C16.6246891 6.83728969 18.64978541 7.50899273 21 8 C21 8.66 21 9.32 21 10 C23.31 10.66 25.62 11.32 28 12 C24.55860159 13.18422255 22.49050031 12.80199625 19.0625 11.6875 C18.18207031 11.40519531 17.30164063 11.12289062 16.39453125 10.83203125 C14.66144215 10.22983226 12.9481306 9.56968979 11.25 8.875 C8.53362535 7.81863208 5.87903136 7.40172531 3 7 C3.33 5.68 3.66 4.36 4 3 C2.68 2.34 1.36 1.68 0 1 C0 0.67 0 0.34 0 0 Z " fill="#E3E3E3" transform="translate(282,144)"/>
<path d="M0 0 C0.66 0 1.32 0 2 0 C3.125 3.75 3.125 3.75 2 6 C4.97 6.495 4.97 6.495 8 7 C5.23776722 9.76223278 2.79293383 9.57856291 -1 10 C-1 10.66 -1 11.32 -1 12 C-3.31 12.33 -5.62 12.66 -8 13 C-7.6875 11.0625 -7.6875 11.0625 -7 9 C-6.01 8.67 -5.02 8.34 -4 8 C-4 6.35 -4 4.7 -4 3 C-2.68 2.67 -1.36 2.34 0 2 C0 1.34 0 0.68 0 0 Z " fill="#DBD9DA" transform="translate(277,3)"/>
<path d="M0 0 C1 2 1 2 0.546875 4.0234375 C-2.2361809 12.2361809 -2.2361809 12.2361809 -5 15 C-5.66 15 -6.32 15 -7 15 C-7.061875 15.556875 -7.12375 16.11375 -7.1875 16.6875 C-8.34176979 19.97272942 -10.49388886 21.607803 -13 24 C-13.825 25.010625 -14.65 26.02125 -15.5 27.0625 C-17.82006579 29.7885773 -20.13582763 31.8723291 -23 34 C-21.47299448 28.57064705 -17.71270848 25.05446407 -14 21 C-8.17937735 14.56076045 -3.73275904 7.85844009 0 0 Z " fill="#D1D1D1" transform="translate(353,215)"/>
<path d="M0 0 C0.721875 0.185625 1.44375 0.37125 2.1875 0.5625 C5.13982052 1.02174986 7.11300664 0.62421478 10 0 C10.66 0.33 11.32 0.66 12 1 C12 2.32 12 3.64 12 5 C12.99 5 13.98 5 15 5 C14 8 14 8 12.1875 9.1875 C10 10 10 10 6 10 C6 9.34 6 8.68 6 8 C7.32 7.67 8.64 7.34 10 7 C10 6.34 10 5.68 10 5 C7.36 4.67 4.72 4.34 2 4 C2 3.34 2 2.68 2 2 C1.34 2 0.68 2 0 2 C0 1.34 0 0.68 0 0 Z M0 4 C2 5 2 5 2 5 Z " fill="#EDECEB" transform="translate(175,108)"/>
<path d="M0 0 C3.63 0 7.26 0 11 0 C10.67 1.32 10.34 2.64 10 4 C11.32 3.34 12.64 2.68 14 2 C14 3.98 14 5.96 14 8 C14.99 8 15.98 8 17 8 C16.67 8.99 16.34 9.98 16 11 C7.31034483 7.62068966 7.31034483 7.62068966 6 5 C5.01 4.67 4.02 4.34 3 4 C2.01 2.68 1.02 1.36 0 0 Z " fill="#D7D6D5" transform="translate(114,109)"/>
<path d="M0 0 C8.3626004 0.28347798 14.58944709 3.29006282 22 7 C22.84949219 7.38929688 23.69898438 7.77859375 24.57421875 8.1796875 C26.42377564 9.03639428 28.21979236 10.00719189 30 11 C30.33 11.99 30.66 12.98 31 14 C25.25 12.125 25.25 12.125 23 11 C23 10.34 23 9.68 23 9 C21.845 8.731875 20.69 8.46375 19.5 8.1875 C15.18376486 7.11614878 11.13707033 5.62527763 7 4 C7 3.34 7 2.68 7 2 C4.69 1.67 2.38 1.34 0 1 C0 0.67 0 0.34 0 0 Z " fill="#C1C1C1" transform="translate(238,163)"/>
<path d="M0 0 C7.35423405 0.27037625 12.62151248 1.26918654 19 5 C18.01 6.485 18.01 6.485 17 8 C12.76677156 7.37954537 9.47709705 5.89476441 5.6875 3.9375 C4.61886719 3.38964844 3.55023438 2.84179688 2.44921875 2.27734375 C1.64097656 1.85582031 0.83273437 1.43429688 0 1 C0 0.67 0 0.34 0 0 Z " fill="#E6E6E6" transform="translate(268,142)"/>
<path d="M0 0 C0.33 0 0.66 0 1 0 C4.16292156 13.28427054 2.0026703 26.93638105 -4 39 C-4.66 38.01 -5.32 37.02 -6 36 C-5.34 35.34 -4.68 34.68 -4 34 C-3.60235737 32.01178687 -3.26224651 30.01055661 -3 28 C-2.34 28 -1.68 28 -1 28 C-0.17961409 21.598406 0.12754513 15.38697499 0.0625 8.9375 C0.05798828 8.07189453 0.05347656 7.20628906 0.04882812 6.31445312 C0.03719913 4.20960461 0.01927073 2.10479242 0 0 Z " fill="#484642" transform="translate(437,204)"/>
<path d="M0 0 C3 1 3 1 5 4 C6.19538131 8.23270239 6.11676727 12.45024615 6.0625 16.8125 C6.05798828 17.50537109 6.05347656 18.19824219 6.04882812 18.91210938 C6.03713156 20.60811068 6.01919924 22.30406703 6 24 C5.01 24.33 4.02 24.66 3 25 C3.03480469 24.03320312 3.06960938 23.06640625 3.10546875 22.0703125 C3.27037208 14.13924746 2.96174861 7.49251881 0 0 Z " fill="#E0E0DF" transform="translate(350,189)"/>
<path d="M0 0 C0.66 0.33 1.32 0.66 2 1 C-4.18028541 6.52628695 -14.26934532 14 -23 14 C-23 13.34 -23 12.68 -23 12 C-17.375 9 -17.375 9 -14 9 C-14 8.34 -14 7.68 -14 7 C-10.535 6.505 -10.535 6.505 -7 6 C-6.67 5.01 -6.34 4.02 -6 3 C-5.01 3 -4.02 3 -3 3 C-3 2.34 -3 1.68 -3 1 C-2.01 0.67 -1.02 0.34 0 0 Z " fill="#B7B7B7" transform="translate(238,262)"/>
<path d="M0 0 C13.53 0 27.06 0 41 0 C41 0.33 41 0.66 41 1 C39.96593018 1.01458252 38.93186035 1.02916504 37.86645508 1.04418945 C34.01763918 1.10230882 30.16940001 1.17954023 26.32104492 1.26245117 C24.65772892 1.29563655 22.99430204 1.32368834 21.33081055 1.34643555 C18.93490501 1.38009999 16.54000965 1.4324194 14.14453125 1.48828125 C13.4047554 1.49467117 12.66497955 1.5010611 11.90278625 1.50764465 C7.3562757 1.63614401 4.776646 2.56335862 1 5 C0.01 4.67 -0.98 4.34 -2 4 C-1.34 3.34 -0.68 2.68 0 2 C0 1.34 0 0.68 0 0 Z " fill="#DBDBDA" transform="translate(303,0)"/>
<path d="M0 0 C-0.309375 0.598125 -0.61875 1.19625 -0.9375 1.8125 C-2.10209704 4.08956772 -2.10209704 4.08956772 -3 7 C-5.31 7.33 -7.62 7.66 -10 8 C-10 8.66 -10 9.32 -10 10 C-12.31 10.33 -14.62 10.66 -17 11 C-13.04925974 6.52249437 -6.24406437 0 0 0 Z " fill="#403F40" transform="translate(192,47)"/>
<path d="M0 0 C1.12148437 0.30744141 1.12148437 0.30744141 2.265625 0.62109375 C3.25046875 0.89050781 4.2353125 1.15992188 5.25 1.4375 C6.71179688 1.83775391 6.71179688 1.83775391 8.203125 2.24609375 C10.46372653 2.85544584 12.72622009 3.44238255 15 4 C15 4.66 15 5.32 15 6 C17.64 6.33 20.28 6.66 23 7 C23 7.66 23 8.32 23 9 C14.30742325 8.96075586 7.64967323 5.92075728 0 2 C0 1.34 0 0.68 0 0 Z " fill="#C3C3C3" transform="translate(253,134)"/>
<path d="M0 0 C0.82206353 2.4661906 1.25853627 4.45249444 1.5625 7 C1.64628906 7.680625 1.73007813 8.36125 1.81640625 9.0625 C2.20828888 13.19811248 1.38102025 16.11588054 0 20 C-0.66 20 -1.32 20 -2 20 C-2.05392397 17.22890693 -2.09363455 14.45886182 -2.125 11.6875 C-2.14175781 10.90181641 -2.15851563 10.11613281 -2.17578125 9.30664062 C-2.18544922 8.1706543 -2.18544922 8.1706543 -2.1953125 7.01171875 C-2.20578613 6.31522217 -2.21625977 5.61872559 -2.22705078 4.90112305 C-2 3 -2 3 0 0 Z " fill="#CECDCA" transform="translate(102,72)"/>
<path d="M0 0 C1.32 0.66 2.64 1.32 4 2 C3.39671875 2.65226562 2.7934375 3.30453125 2.171875 3.9765625 C-1.93170759 8.46402862 -5.84700191 12.79069881 -9 18 C-9.97608217 15.07175348 -10.08226668 13.04386724 -10 10 C-9.67 10.66 -9.34 11.32 -9 12 C-6.12579877 9.28395285 -6.12579877 9.28395285 -4 6 C-3.34 6 -2.68 6 -2 6 C-2.33 5.01 -2.66 4.02 -3 3 C-2.01 2.01 -1.02 1.02 0 0 Z " fill="#424242" transform="translate(113,54)"/>
<path d="M0 0 C3.91068803 1.65452186 6.8193138 4.22535885 10 7 C10.5775 7.474375 11.155 7.94875 11.75 8.4375 C13.57675054 10.72093817 14.1966575 13.21919903 15 16 C11.60459566 14.86819855 10.84642148 13.89642801 8.625 11.1875 C6.50910267 8.67178343 4.66571453 6.7368391 2.0625 4.6875 C1.381875 4.130625 0.70125 3.57375 0 3 C0 2.01 0 1.02 0 0 Z " fill="#D4D3CF" transform="translate(335,172)"/>
<path d="M0 0 C-2.63958118 1.75972078 -4.64748769 2.69589746 -7.59765625 3.7265625 C-8.48130859 4.0359375 -9.36496094 4.3453125 -10.27539062 4.6640625 C-11.19513672 4.98117188 -12.11488281 5.29828125 -13.0625 5.625 C-13.98611328 5.94984375 -14.90972656 6.2746875 -15.86132812 6.609375 C-22.73688616 9 -22.73688616 9 -25 9 C-25 8.34 -25 7.68 -25 7 C-23.68 7 -22.36 7 -21 7 C-21 6.34 -21 5.68 -21 5 C-17.12315913 3.80712589 -14.08378077 3 -10 3 C-10 2.34 -10 1.68 -10 1 C-6.61981469 -0.04005702 -3.5219721 -0.08004482 0 0 Z " fill="#474546" transform="translate(318,35)"/>
<path d="M0 0 C5.73647591 -0.40974828 9.09113711 0.18419104 14.1015625 2.9765625 C16.6289684 4.3390735 19.25664074 5.17699222 22 6 C18.01582073 7.59367171 14.87106381 6.25154695 11 5 C10.12859375 4.75765625 9.2571875 4.5153125 8.359375 4.265625 C7.00585938 3.88664063 7.00585938 3.88664063 5.625 3.5 C4.34496094 3.14421875 4.34496094 3.14421875 3.0390625 2.78125 C1 2 1 2 0 0 Z " fill="#DBDBDB" transform="translate(188,145)"/>
<path d="M0 0 C7.92144406 2.75835999 14.33068197 8.95272744 20 15 C19.67 15.99 19.34 16.98 19 18 C18.360625 17.154375 17.72125 16.30875 17.0625 15.4375 C13.22707977 10.82403738 8.26279965 6.49616915 2.78515625 3.984375 C1 3 1 3 0 0 Z " fill="#D9D9D9" transform="translate(268,175)"/>
<path d="M0 0 C0.33 0.66 0.66 1.32 1 2 C0.67 2.66 0.34 3.32 0 4 C-0.66 4 -1.32 4 -2 4 C-1.67 5.65 -1.34 7.3 -1 9 C-4.38391693 10.06351675 -5.5804634 10.21442982 -8.8125 8.5625 C-9.534375 8.046875 -10.25625 7.53125 -11 7 C-10.01 7 -9.02 7 -8 7 C-6.62298702 5.71182656 -5.29355827 4.37195574 -4 3 C-2.68441297 1.97676564 -1.35622245 0.96873032 0 0 Z " fill="#F9F9F9" transform="translate(120,88)"/>
<path d="M0 0 C0.33 0.66 0.66 1.32 1 2 C0.54625 2.845625 0.0925 3.69125 -0.375 4.5625 C-2.34959508 8.73952806 -2.70605529 12.43878905 -3 17 C-3.66 17 -4.32 17 -5 17 C-5 17.66 -5 18.32 -5 19 C-5.66 18.67 -6.32 18.34 -7 18 C-7.125 15.125 -7.125 15.125 -7 12 C-6.34 11.34 -5.68 10.68 -5 10 C-4.45230745 8.68553789 -3.95625532 7.34892878 -3.5 6 C-2.57258355 3.2580731 -2.09373802 2.09373802 0 0 Z " fill="#D4D2D1" transform="translate(165,67)"/>
<path d="M0 0 C0 0.66 0 1.32 0 2 C-0.66 2 -1.32 2 -2 2 C-2.33 2.99 -2.66 3.98 -3 5 C-7.39529916 6.98834962 -11.22037853 7.19118486 -16 7 C-16 6.34 -16 5.68 -16 5 C-15.15695313 4.72285156 -14.31390625 4.44570313 -13.4453125 4.16015625 C-12.34960938 3.79792969 -11.25390625 3.43570312 -10.125 3.0625 C-9.03445312 2.70285156 -7.94390625 2.34320313 -6.8203125 1.97265625 C-1.10040161 0 -1.10040161 0 0 0 Z " fill="#B3B3B3" transform="translate(147,303)"/>
<path d="M0 0 C0.99386719 0.00902344 1.98773438 0.01804688 3.01171875 0.02734375 C4.15060547 0.04474609 4.15060547 0.04474609 5.3125 0.0625 C3.3125 3.0625 3.3125 3.0625 1.1484375 3.79296875 C-0.06972656 4.01919922 -0.06972656 4.01919922 -1.3125 4.25 C-2.53839844 4.48783203 -2.53839844 4.48783203 -3.7890625 4.73046875 C-4.72878906 4.89482422 -4.72878906 4.89482422 -5.6875 5.0625 C-5.6875 4.4025 -5.6875 3.7425 -5.6875 3.0625 C-6.6775 2.4025 -7.6675 1.7425 -8.6875 1.0625 C-5.53819107 0.01273036 -3.29935544 -0.03881595 0 0 Z " fill="#222221" transform="translate(398.6875,1.9375)"/>
<path d="M0 0 C1 3 1 3 0.125 5 C-0.24625 5.66 -0.6175 6.32 -1 7 C-1.33 7.99 -1.66 8.98 -2 10 C-2.598125 9.773125 -3.19625 9.54625 -3.8125 9.3125 C-4.534375 9.209375 -5.25625 9.10625 -6 9 C-7.77190909 10.35444301 -7.77190909 10.35444301 -9 12 C-9 8.26071501 -8.08040398 7.59097747 -5.625 4.875 C-4.99851562 4.17117187 -4.37203125 3.46734375 -3.7265625 2.7421875 C-2 1 -2 1 0 0 Z " fill="#222222" transform="translate(46,45)"/>
<path d="M0 0 C-3.3625775 5.58044777 -6.14570832 9.93980208 -12 13 C-12.66 13 -13.32 13 -14 13 C-12.76210371 9.28631113 -11.14775123 8.22645819 -8 6 C-7.34 6 -6.68 6 -6 6 C-6 4.02 -6 2.04 -6 0 C-2.25 -1.125 -2.25 -1.125 0 0 Z " fill="#ACACAC" transform="translate(289,228)"/>
<path d="M0 0 C2.0625 0.4375 2.0625 0.4375 4 1 C3.67 2.98 3.34 4.96 3 7 C2.46375 6.71125 1.9275 6.4225 1.375 6.125 C-1.35280484 4.83288192 -4.12612718 3.91441408 -7 3 C-7 2.34 -7 1.68 -7 1 C-5.5459375 1.0309375 -5.5459375 1.0309375 -4.0625 1.0625 C-1.12534105 1.35618499 -1.12534105 1.35618499 0 0 Z " fill="#282726" transform="translate(328,161)"/>
<path d="M0 0 C0 0.66 0 1.32 0 2 C-0.99 2 -1.98 2 -3 2 C-3 2.66 -3 3.32 -3 4 C-12.41002278 6.29612756 -12.41002278 6.29612756 -17 6 C-13.9666221 3.97774806 -11.38655511 3.00652476 -7.9375 1.875 C-6.87402344 1.52179688 -5.81054688 1.16859375 -4.71484375 0.8046875 C-2 0 -2 0 0 0 Z " fill="#A4A4A4" transform="translate(234,304)"/>
<path d="M0 0 C0 0.66 0 1.32 0 2 C-5.00873617 6.89225393 -5.00873617 6.89225393 -8.875 7.3125 C-9.926875 7.1578125 -9.926875 7.1578125 -11 7 C-11 7.66 -11 8.32 -11 9 C-12.98 9.33 -14.96 9.66 -17 10 C-5.46153846 0 -5.46153846 0 0 0 Z " fill="#585858" transform="translate(295,275)"/>
<path d="M0 0 C-6.34388268 4.22925512 -12.40643976 6.44774107 -20 7 C-18.30315987 3.60631973 -14.41164313 3.17275233 -11 2 C-9.4221875 1.4121875 -9.4221875 1.4121875 -7.8125 0.8125 C-5.04868445 0.0140644 -2.85751349 -0.16808903 0 0 Z " fill="#B8B8B8" transform="translate(178,292)"/>
<path d="M0 0 C0.66 0.33 1.32 0.66 2 1 C0.63859873 5.45549507 -1.30756614 7.25434405 -5 10 C-5.33 10.66 -5.66 11.32 -6 12 C-6.66 11.67 -7.32 11.34 -8 11 C-6.52670958 5.99081256 -3.72484762 3.48192278 0 0 Z " fill="#525151" transform="translate(173,58)"/>
<path d="M0 0 C0.33 0.66 0.66 1.32 1 2 C0.34 2.45375 -0.32 2.9075 -1 3.375 C-1.99 4.179375 -1.99 4.179375 -3 5 C-3 5.66 -3 6.32 -3 7 C-3.99 7 -4.98 7 -6 7 C-6 6.34 -6 5.68 -6 5 C-6.5775 5.350625 -7.155 5.70125 -7.75 6.0625 C-10 7 -10 7 -14 6 C-9.38 4.02 -4.76 2.04 0 0 Z " fill="#403E3F" transform="translate(123,2)"/>
<path d="M0 0 C-12.48519362 6.70387244 -12.48519362 6.70387244 -19 7 C-15.91942417 4.94628278 -12.84433538 3.39804639 -9.5 1.8125 C-7.78296875 0.98685547 -7.78296875 0.98685547 -6.03125 0.14453125 C-3 -1 -3 -1 0 0 Z " fill="#CACACA" transform="translate(253,297)"/>
<path d="M0 0 C0.75 1.6875 0.75 1.6875 1 4 C-1.0603334 7.4613601 -2.49254958 8.7950681 -6.25 10.3125 C-7.61125 10.6528125 -7.61125 10.6528125 -9 11 C-8.34 9.68 -7.68 8.36 -7 7 C-6.34 7 -5.68 7 -5 7 C-4.731875 6.401875 -4.46375 5.80375 -4.1875 5.1875 C-3.01506533 3.02775192 -1.80630718 1.64209744 0 0 Z " fill="#323232" transform="translate(340,238)"/>
<path d="M0 0 C4.94576188 -0.28533242 7.23392431 -0.17762636 11 3 C13.29753163 4.10880875 15.63237117 5.0438422 18 6 C13.82356045 7.39214652 11.16562207 5.70664266 7.3125 4.0625 C6.61060547 3.77181641 5.90871094 3.48113281 5.18554688 3.18164062 C3.45349225 2.46289687 1.72626219 1.73254669 0 1 C0 0.67 0 0.34 0 0 Z " fill="#575757" transform="translate(121,165)"/>
<path d="M0 0 C0 0.66 0 1.32 0 2 C-0.56589844 2.19335938 -1.13179688 2.38671875 -1.71484375 2.5859375 C-2.81505859 2.97652344 -2.81505859 2.97652344 -3.9375 3.375 C-5.03384766 3.75785156 -5.03384766 3.75785156 -6.15234375 4.1484375 C-8.18682116 4.85271413 -8.18682116 4.85271413 -9 7 C-11.64 7 -14.28 7 -17 7 C-14.42033404 4.42033404 -11.90692108 3.66390156 -8.5 2.375 C-7.3346875 1.92898438 -6.169375 1.48296875 -4.96875 1.0234375 C-2 0 -2 0 0 0 Z " fill="#7D7D7D" transform="translate(270,289)"/>
<path d="M0 0 C2.625 0.375 2.625 0.375 5 1 C3.19587357 4.26460973 2.16605307 5.88929795 -1 8 C-1.625 5.125 -1.625 5.125 -2 2 C-1.34 1.34 -0.68 0.68 0 0 Z " fill="#292928" transform="translate(418,255)"/>
<path d="M0 0 C0.66 0.33 1.32 0.66 2 1 C-8.34971283 9.23016379 -8.34971283 9.23016379 -12 11 C-12.66 10.67 -13.32 10.34 -14 10 C-12.49951189 6.99902377 -9.97819157 6.48909579 -7 5 C-4.60835404 3.4023805 -2.31322736 1.71178825 0 0 Z " fill="#AFAFAF" transform="translate(273,241)"/>
<path d="M0 0 C0.598125 0.185625 1.19625 0.37125 1.8125 0.5625 C4.16408762 1.22093687 4.16408762 1.22093687 7 0 C9.17532857 2.17532857 9.3662254 3.10274469 10 6 C10.33 6.66 10.66 7.32 11 8 C6.99698968 6.23867546 3.3971023 3.73867517 0 1 C0 0.67 0 0.34 0 0 Z " fill="#3D3D3C" transform="translate(50,127)"/>
<path d="M0 0 C-1.95649397 0.83764268 -3.91525556 1.66999059 -5.875 2.5 C-6.96554688 2.9640625 -8.05609375 3.428125 -9.1796875 3.90625 C-12 5 -12 5 -14 5 C-14.33 3.68 -14.66 2.36 -15 1 C-13.35 1 -11.7 1 -10 1 C-10 0.67 -10 0.34 -10 0 C-6.26432828 -0.76411467 -3.65188082 -1.07174763 0 0 Z " fill="#54544F" transform="translate(186,18)"/>
<path d="M0 0 C2.64 0.33 5.28 0.66 8 1 C7 4 7 4 5.1875 5.1875 C3 6 3 6 -1 6 C-1 5.34 -1 4.68 -1 4 C0.32 3.67 1.64 3.34 3 3 C3 2.34 3 1.68 3 1 C2.01 0.67 1.02 0.34 0 0 Z " fill="#F7F7F6" transform="translate(182,112)"/>
<path d="M0 0 C0 0.99 0 1.98 0 3 C-1.216875 3.28875 -2.43375 3.5775 -3.6875 3.875 C-6.20085987 4.49114995 -8.36211547 5.15636805 -10.75 6.1875 C-13.36371224 7.13134053 -14.40206107 6.76955754 -17 6 C-14.5433053 4.99580363 -12.08481647 3.99649499 -9.625 3 C-8.92632812 2.71382812 -8.22765625 2.42765625 -7.5078125 2.1328125 C-2.2265625 0 -2.2265625 0 0 0 Z " fill="#4F4D4E" transform="translate(230,30)"/>
<path d="M0 0 C0.66 0 1.32 0 2 0 C3.125 3.75 3.125 3.75 2 6 C4.97 6.495 4.97 6.495 8 7 C5.4345406 9.5654594 3.52313332 9.54046087 0 10 C0 6.7 0 3.4 0 0 Z " fill="#D3D0D1" transform="translate(277,3)"/>
<path d="M0 0 C1.22611152 2.89808178 0.9905595 4.02721086 -0.0625 7.0625 C-2.34041664 10.51611554 -4.14304387 11.60493076 -8 13 C-8.66 12.67 -9.32 12.34 -10 12 C-8.37660195 10.29115995 -6.70680947 8.62553283 -5 7 C-4.34 7 -3.68 7 -3 7 C-2.690625 6.21625 -2.38125 5.4325 -2.0625 4.625 C-1 2 -1 2 0 0 Z " fill="#3F3F3F" transform="translate(219,214)"/>
<path d="M0 0 C0 0.66 0 1.32 0 2 C-0.66 2 -1.32 2 -2 2 C-2.268125 2.61875 -2.53625 3.2375 -2.8125 3.875 C-4 6 -4 6 -7 8 C-7.99 7.34 -8.98 6.68 -10 6 C-8.71283353 4.99421411 -7.42011342 3.99553202 -6.125 3 C-5.40570313 2.443125 -4.68640625 1.88625 -3.9453125 1.3125 C-2 0 -2 0 0 0 Z " fill="#4B4B4B" transform="translate(306,268)"/>
<path d="M0 0 C0.66 0.33 1.32 0.66 2 1 C3.19150921 5.36886712 3.021829 7.95634201 1 12 C0.01 12 -0.98 12 -2 12 C-1.67 10.68 -1.34 9.36 -1 8 C-0.34 8 0.32 8 1 8 C0.649375 7.05125 0.29875 6.1025 -0.0625 5.125 C-1 2 -1 2 0 0 Z " fill="#EEEDEC" transform="translate(107,87)"/>
<path d="M0 0 C3 1 3 1 5 4 C5.39013716 5.9896995 5.73202649 7.99019869 6 10 C5.01 10 4.02 10 3 10 C2.01 6.7 1.02 3.4 0 0 Z " fill="#C5C5C3" transform="translate(350,189)"/>
<path d="M0 0 C-0.66 0.66 -1.32 1.32 -2 2 C-1.34 2.66 -0.68 3.32 0 4 C-2.97 4 -5.94 4 -9 4 C-8.67 3.01 -8.34 2.02 -8 1 C-2.59770115 -1.29885057 -2.59770115 -1.29885057 0 0 Z " fill="#32312F" transform="translate(19,310)"/>
<path d="M0 0 C0.33 0.99 0.66 1.98 1 3 C-1.478327 6.7174905 -4.44299727 9.33224795 -8 12 C-6.49087042 7.01987239 -3.44338151 3.75740058 0 0 Z " fill="#E3E3E3" transform="translate(338,237)"/>
<path d="M0 0 C3.3 0 6.6 0 10 0 C10.66 1.32 11.32 2.64 12 4 C7.6822542 3.49202991 3.96697886 2.80317221 0 1 C0 0.67 0 0.34 0 0 Z " fill="#424242" transform="translate(149,175)"/>
<path d="M0 0 C3.6875 0.3125 3.6875 0.3125 7 1 C7 1.99 7 2.98 7 4 C3.7 3.67 0.4 3.34 -3 3 C-2.01 2.01 -1.02 1.02 0 0 Z " fill="#F3F3F3" transform="translate(205,119)"/>
<path d="M0 0 C4.71403788 0.47939368 8.66579301 0.96834048 13 3 C13 3.33 13 3.66 13 4 C10.36 4 7.72 4 5 4 C5 3.34 5 2.68 5 2 C3.35 2 1.7 2 0 2 C0 1.34 0 0.68 0 0 Z " fill="#3F3F3F" transform="translate(300,119)"/>
<path d="M0 0 C-1.41478135 0.64995297 -2.83191487 1.29478722 -4.25 1.9375 C-5.03890625 2.29714844 -5.8278125 2.65679687 -6.640625 3.02734375 C-8.75823698 3.90033279 -10.76669362 4.51338508 -13 5 C-13 4.34 -13 3.68 -13 3 C-3.82022472 -1.91011236 -3.82022472 -1.91011236 0 0 Z " fill="#E9E9E9" transform="translate(228,271)"/>
<path d="M0 0 C2.475 0.495 2.475 0.495 5 1 C5 1.66 5 2.32 5 3 C7.31 3.66 9.62 4.32 12 5 C9.21176345 6.0326802 8.1322726 6.04509293 5.25 5.0625 C4.5075 4.711875 3.765 4.36125 3 4 C3 3.34 3 2.68 3 2 C2.01 2 1.02 2 0 2 C0 1.34 0 0.68 0 0 Z " fill="#BFBFBF" transform="translate(298,151)"/>
<path d="M0 0 C-1.65167557 3.5786304 -3.78286492 6.74820188 -6 10 C-6.97608217 7.07175348 -7.08226668 5.04386724 -7 2 C-6.67 2.66 -6.34 3.32 -6 4 C-5.38125 3.34 -4.7625 2.68 -4.125 2 C-2 0 -2 0 0 0 Z " fill="#6A6A6A" transform="translate(110,62)"/>
<path d="M0 0 C1.65 0.99 3.3 1.98 5 3 C2 5 2 5 0 5 C-0.66 5.66 -1.32 6.32 -2 7 C-2.125 4.625 -2.125 4.625 -2 2 C-1.34 1.34 -0.68 0.68 0 0 Z " fill="#1B1B1B" transform="translate(405,164)"/>
<path d="M0 0 C2.97 0.33 5.94 0.66 9 1 C9.33 2.65 9.66 4.3 10 6 C6.7 4.35 3.4 2.7 0 1 C0 0.67 0 0.34 0 0 Z " fill="#F5F5F5" transform="translate(268,142)"/>
<path d="M0 0 C1.32 0.66 2.64 1.32 4 2 C-1.445 4.475 -1.445 4.475 -7 7 C-7 6.01 -7 5.02 -7 4 C-5.68 4 -4.36 4 -3 4 C-3 3.34 -3 2.68 -3 2 C-2.01 2 -1.02 2 0 2 C0 1.34 0 0.68 0 0 Z " fill="#454545" transform="translate(235,64)"/>
<path d="M0 0 C0.66 0.33 1.32 0.66 2 1 C2 1.99 2 2.98 2 4 C-0.31 4.66 -2.62 5.32 -5 6 C-5.33 5.01 -5.66 4.02 -6 3 C-5.01 3 -4.02 3 -3 3 C-3 2.34 -3 1.68 -3 1 C-2.01 0.67 -1.02 0.34 0 0 Z " fill="#B7B7B7" transform="translate(127,310)"/>
<path d="M0 0 C2.97 0.495 2.97 0.495 6 1 C6.33 1.99 6.66 2.98 7 4 C7.99 4 8.98 4 10 4 C9.67 4.99 9.34 5.98 9 7 C7.4972763 6.02501855 5.99788037 5.04490611 4.5 4.0625 C3.6646875 3.51722656 2.829375 2.97195312 1.96875 2.41015625 C1.3190625 1.94480469 0.669375 1.47945312 0 1 C0 0.67 0 0.34 0 0 Z " fill="#EFEEED" transform="translate(325,167)"/>
<path d="M0 0 C0.66 0.33 1.32 0.66 2 1 C-1.17320782 4.53586014 -3.16743695 6.58578031 -8 7 C-5.42215154 4.35247996 -3.08351902 2.05567935 0 0 Z " fill="#4A484A" transform="translate(65,30)"/>
<path d="M0 0 C1.32 0.33 2.64 0.66 4 1 C1.27521226 4.36591427 -2.06856792 5.44226276 -6 7 C-6 6.34 -6 5.68 -6 5 C-5.01 4.67 -4.02 4.34 -3 4 C-1.31461399 2.00334686 -1.31461399 2.00334686 0 0 Z " fill="#464645" transform="translate(363,296)"/>
<path d="M0 0 C0.99 0.66 1.98 1.32 3 2 C0.69 3.32 -1.62 4.64 -4 6 C-3.67 4.35 -3.34 2.7 -3 1 C-2.01 0.67 -1.02 0.34 0 0 Z " fill="#30302E" transform="translate(394,278)"/>
<path d="M0 0 C2.875 0.625 2.875 0.625 6 2 C7.375 5.125 7.375 5.125 8 8 C4.65001479 6.88333826 4.20659778 6.25305075 2.3125 3.4375 C1.87550781 2.79683594 1.43851562 2.15617188 0.98828125 1.49609375 C0.49908203 0.75552734 0.49908203 0.75552734 0 0 Z " fill="#DFDEDD" transform="translate(342,180)"/>
<path d="M0 0 C1.32 0.99 2.64 1.98 4 3 C3.67 3.99 3.34 4.98 3 6 C2.01 5.67 1.02 5.34 0 5 C0 4.34 0 3.68 0 3 C-0.99 2.67 -1.98 2.34 -3 2 C-2.01 1.34 -1.02 0.68 0 0 Z " fill="#1E1E1E" transform="translate(345,176)"/>
<path d="M0 0 C0.33 0.66 0.66 1.32 1 2 C2.97888961 2.72693904 4.97954558 3.39816251 7 4 C4.33333333 4.66666667 1.66666667 5.33333333 -1 6 C-0.67 4.02 -0.34 2.04 0 0 Z " fill="#151515" transform="translate(260,172)"/>
<path d="M0 0 C-0.33 1.65 -0.66 3.3 -1 5 C-3.64 5 -6.28 5 -9 5 C-6.45523312 2.20075644 -3.92372883 0 0 0 Z " fill="#383838" transform="translate(76,25)"/>
<path d="M0 0 C0.66 0 1.32 0 2 0 C2 0.66 2 1.32 2 2 C3.65 2.33 5.3 2.66 7 3 C6.67 3.66 6.34 4.32 6 5 C3.4375 5.625 3.4375 5.625 1 6 C0.67 4.02 0.34 2.04 0 0 Z " fill="#D4D0D1" transform="translate(289,3)"/>
<path d="M0 0 C-5.41538462 4.06153846 -5.41538462 4.06153846 -8.375 3.75 C-8.91125 3.5025 -9.4475 3.255 -10 3 C-7.28464405 0.28464405 -3.67870689 -1.83935344 0 0 Z " fill="#383838" transform="translate(90,283)"/>
<path d="M0 0 C0.99 0.33 1.98 0.66 3 1 C3 1.66 3 2.32 3 3 C-0.46153846 6 -0.46153846 6 -3 6 C-3 6.66 -3 7.32 -3 8 C-3.66 7.67 -4.32 7.34 -5 7 C-4.34 6.01 -3.68 5.02 -3 4 C-2.34 4 -1.68 4 -1 4 C-0.67 2.68 -0.34 1.36 0 0 Z " fill="#303030" transform="translate(346,230)"/>
<path d="M0 0 C-5.445 2.475 -5.445 2.475 -11 5 C-11 4.34 -11 3.68 -11 3 C-10.34 3 -9.68 3 -9 3 C-9 2.34 -9 1.68 -9 1 C-3.375 -1.125 -3.375 -1.125 0 0 Z " fill="#5D5D5B" transform="translate(163,28)"/>
<path d="M0 0 C2.3431213 0.25561323 4.67843403 0.59270772 7 1 C7.33 1.66 7.66 2.32 8 3 C5.36 3 2.72 3 0 3 C0 2.01 0 1.02 0 0 Z " fill="#A8A8A8" transform="translate(212,120)"/>
<path d="M0 0 C4.455 0.99 4.455 0.99 9 2 C9 2.33 9 2.66 9 3 C6.36 3.33 3.72 3.66 1 4 C0.67 2.68 0.34 1.36 0 0 Z " fill="#333333" transform="translate(291,116)"/>
<path d="M0 0 C0 0.66 0 1.32 0 2 C-0.99 2 -1.98 2 -3 2 C-3 2.66 -3 3.32 -3 4 C-4.98 4.99 -4.98 4.99 -7 6 C-7.66 5.34 -8.32 4.68 -9 4 C-2.25 0 -2.25 0 0 0 Z " fill="#3F3837" transform="translate(85,20)"/>
<path d="M0 0 C0.33 1.32 0.66 2.64 1 4 C-0.98 4.99 -0.98 4.99 -3 6 C-3.33 4.68 -3.66 3.36 -4 2 C-2.68 1.34 -1.36 0.68 0 0 Z " fill="#EFDBDB" transform="translate(277,4)"/>
<path d="M0 0 C1.98 0.495 1.98 0.495 4 1 C4 1.66 4 2.32 4 3 C5.65 3 7.3 3 9 3 C9 3.33 9 3.66 9 4 C2.9453125 4.1953125 2.9453125 4.1953125 1 4 C0.34 3.34 -0.32 2.68 -1 2 C-0.67 1.34 -0.34 0.68 0 0 Z " fill="#F7F7F7" transform="translate(127,312)"/>
<path d="M0 0 C0 0.99 0 1.98 0 3 C-2.31 4.32 -4.62 5.64 -7 7 C-7 6.01 -7 5.02 -7 4 C-4.69 2.68 -2.38 1.36 0 0 Z " fill="#BEBEBE" transform="translate(317,258)"/>
<path d="M0 0 C5.75 1.75 5.75 1.75 8 4 C5.525 5.485 5.525 5.485 3 7 C3.33 5.68 3.66 4.36 4 3 C2.68 2.34 1.36 1.68 0 1 C0 0.67 0 0.34 0 0 Z " fill="#979797" transform="translate(282,144)"/>
<path d="M0 0 C2.97 0.495 2.97 0.495 6 1 C5.67 1.99 5.34 2.98 5 4 C3.35 3.67 1.7 3.34 0 3 C0 2.01 0 1.02 0 0 Z " fill="#424242" transform="translate(165,137)"/>
<path d="M0 0 C6.625 0.75 6.625 0.75 10 3 C9.01 3.66 8.02 4.32 7 5 C6.67 4.01 6.34 3.02 6 2 C4.35 2 2.7 2 1 2 C0.67 1.34 0.34 0.68 0 0 Z " fill="#444444" transform="translate(280,113)"/>
<path d="M0 0 C0 0.66 0 1.32 0 2 C-0.969375 2.12375 -1.93875 2.2475 -2.9375 2.375 C-3.948125 2.58125 -4.95875 2.7875 -6 3 C-6.33 3.66 -6.66 4.32 -7 5 C-7.66 4.34 -8.32 3.68 -9 3 C-3.375 0 -3.375 0 0 0 Z " fill="#353535" transform="translate(168,250)"/>
<path d="M0 0 C0.66 0.33 1.32 0.66 2 1 C0.68 2.32 -0.64 3.64 -2 5 C-2.99 4.67 -3.98 4.34 -5 4 C-5 3.34 -5 2.68 -5 2 C-2.625 0.9375 -2.625 0.9375 0 0 Z " fill="#1B1B1B" transform="translate(211,226)"/>
<path d="M0 0 C3.68754757 0.49831724 5.60490662 1.10067643 8 4 C4.79604584 4 2.90600261 3.25664978 0 2 C0 1.34 0 0.68 0 0 Z " fill="#B2B2B2" transform="translate(261,172)"/>
<path d="M0 0 C4.3177458 0.50797009 8.03302114 1.19682779 12 3 C11.01 3.66 10.02 4.32 9 5 C6.73828125 4.3203125 6.73828125 4.3203125 4.3125 3.125 C3.50425781 2.73570312 2.69601562 2.34640625 1.86328125 1.9453125 C1.24839844 1.63335937 0.63351562 1.32140625 0 1 C0 0.67 0 0.34 0 0 Z " fill="#535353" transform="translate(322,126)"/>
<path d="M0 0 C2 1 2 1 2 1 Z " fill="#FFFFFF" transform="translate(155,78)"/>
</svg>
