<?xml version="1.0" encoding="UTF-8"?>
<svg xmlns="http://www.w3.org/2000/svg" xmlns:xlink="http://www.w3.org/1999/xlink" width="16px" height="16px" viewBox="0 0 16 16" version="1.1">
<g id="surface1">
<path style=" stroke:none;fill-rule:evenodd;fill-opacity:1;" d="M 5.859375 0.0898438 C 5.980469 0.0898438 6.101562 0.0898438 6.226562 0.0898438 C 6.226562 0.148438 6.257812 0.171875 6.316406 0.160156 C 6.375 0.171875 6.40625 0.148438 6.410156 0.0898438 C 6.957031 0.0898438 7.507812 0.0898438 8.058594 0.0898438 C 8.058594 0.128906 8.058594 0.167969 8.058594 0.207031 C 8.046875 0.207031 8.035156 0.207031 8.023438 0.207031 C 8.007812 0.226562 8.003906 0.25 8.007812 0.273438 C 7.941406 0.273438 7.875 0.273438 7.808594 0.273438 C 7.808594 0.304688 7.808594 0.332031 7.808594 0.359375 C 7.769531 0.359375 7.730469 0.359375 7.691406 0.359375 C 7.675781 0.382812 7.671875 0.410156 7.675781 0.441406 C 7.625 0.441406 7.574219 0.441406 7.523438 0.441406 C 7.523438 0.464844 7.523438 0.484375 7.523438 0.507812 C 7.476562 0.507812 7.425781 0.507812 7.375 0.507812 C 7.359375 0.53125 7.355469 0.558594 7.359375 0.589844 C 7.328125 0.59375 7.300781 0.589844 7.273438 0.574219 C 7.25 0.582031 7.238281 0.597656 7.242188 0.625 C 7.195312 0.621094 7.152344 0.625 7.109375 0.632812 C 7.09375 0.648438 7.089844 0.667969 7.089844 0.691406 C 7.046875 0.6875 7.003906 0.691406 6.957031 0.699219 C 6.945312 0.71875 6.9375 0.734375 6.941406 0.757812 C 6.90625 0.753906 6.875 0.757812 6.839844 0.773438 C 6.84375 0.785156 6.847656 0.789062 6.859375 0.792969 C 6.859375 0.808594 6.859375 0.824219 6.859375 0.839844 C 6.808594 0.839844 6.757812 0.839844 6.707031 0.851562 C 6.695312 0.867188 6.6875 0.886719 6.691406 0.910156 C 6.640625 0.910156 6.589844 0.910156 6.542969 0.910156 C 6.542969 0.929688 6.542969 0.953125 6.542969 0.976562 C 6.507812 0.972656 6.472656 0.976562 6.441406 0.984375 C 6.425781 1 6.421875 1.019531 6.425781 1.042969 C 6.359375 1.03125 6.324219 1.058594 6.324219 1.125 C 6.277344 1.121094 6.234375 1.125 6.191406 1.140625 C 6.195312 1.152344 6.199219 1.15625 6.207031 1.160156 C 6.207031 1.175781 6.207031 1.191406 6.207031 1.207031 C 6.164062 1.203125 6.125 1.207031 6.089844 1.226562 C 6.089844 1.242188 6.089844 1.257812 6.089844 1.273438 C 6.058594 1.273438 6.023438 1.273438 5.992188 1.273438 C 5.976562 1.292969 5.96875 1.316406 5.976562 1.339844 C 5.941406 1.339844 5.910156 1.339844 5.875 1.339844 C 5.875 1.371094 5.875 1.398438 5.875 1.425781 C 5.851562 1.425781 5.832031 1.425781 5.808594 1.425781 C 5.777344 1.441406 5.769531 1.46875 5.773438 1.507812 C 5.746094 1.507812 5.71875 1.507812 5.691406 1.507812 C 5.675781 1.5 5.671875 1.511719 5.675781 1.542969 C 5.640625 1.539062 5.605469 1.542969 5.574219 1.558594 C 5.558594 1.570312 5.554688 1.589844 5.558594 1.609375 C 5.511719 1.601562 5.480469 1.617188 5.457031 1.660156 C 5.429688 1.667969 5.402344 1.679688 5.375 1.691406 C 5.375 1.714844 5.375 1.734375 5.375 1.757812 C 5.332031 1.75 5.296875 1.761719 5.273438 1.792969 C 5.25 1.820312 5.21875 1.832031 5.175781 1.824219 C 5.175781 1.851562 5.175781 1.878906 5.175781 1.910156 C 5.136719 1.910156 5.097656 1.910156 5.058594 1.910156 C 5.058594 1.929688 5.058594 1.953125 5.058594 1.976562 C 5.042969 1.976562 5.023438 1.976562 5.007812 1.976562 C 5.007812 1.996094 5.007812 2.019531 5.007812 2.042969 C 4.980469 2.042969 4.953125 2.042969 4.925781 2.042969 C 4.921875 2.0625 4.925781 2.078125 4.941406 2.089844 C 4.941406 2.101562 4.941406 2.113281 4.941406 2.125 C 4.894531 2.117188 4.855469 2.128906 4.824219 2.160156 C 4.824219 2.167969 4.824219 2.179688 4.824219 2.191406 C 4.785156 2.1875 4.746094 2.191406 4.707031 2.207031 C 4.710938 2.21875 4.714844 2.222656 4.726562 2.226562 C 4.726562 2.242188 4.726562 2.257812 4.726562 2.273438 C 4.703125 2.269531 4.6875 2.277344 4.675781 2.292969 C 4.675781 2.308594 4.675781 2.324219 4.675781 2.339844 C 4.636719 2.339844 4.597656 2.339844 4.558594 2.339844 C 4.558594 2.371094 4.558594 2.398438 4.558594 2.425781 C 4.546875 2.425781 4.535156 2.425781 4.523438 2.425781 C 4.507812 2.441406 4.503906 2.464844 4.507812 2.492188 C 4.480469 2.492188 4.453125 2.492188 4.425781 2.492188 C 4.425781 2.519531 4.425781 2.546875 4.425781 2.574219 C 4.410156 2.574219 4.390625 2.574219 4.375 2.574219 C 4.375 2.566406 4.367188 2.558594 4.359375 2.558594 C 4.34375 2.585938 4.324219 2.609375 4.300781 2.625 C 4.269531 2.660156 4.25 2.699219 4.242188 2.742188 C 4.210938 2.738281 4.183594 2.742188 4.160156 2.757812 C 4.144531 2.792969 4.128906 2.828125 4.109375 2.859375 C 4.113281 2.871094 4.121094 2.878906 4.125 2.890625 C 4.09375 2.886719 4.070312 2.898438 4.058594 2.925781 C 4.058594 2.941406 4.058594 2.957031 4.058594 2.976562 C 4.03125 2.972656 4.015625 2.984375 4.007812 3.007812 C 4.007812 3.019531 4.007812 3.03125 4.007812 3.042969 C 3.980469 3.039062 3.964844 3.050781 3.957031 3.074219 C 3.957031 3.085938 3.957031 3.097656 3.957031 3.109375 C 3.9375 3.109375 3.914062 3.109375 3.890625 3.109375 C 3.890625 3.128906 3.890625 3.152344 3.890625 3.175781 C 3.875 3.175781 3.859375 3.175781 3.839844 3.175781 C 3.839844 3.226562 3.839844 3.273438 3.839844 3.324219 C 3.820312 3.320312 3.804688 3.328125 3.792969 3.339844 C 3.792969 3.363281 3.792969 3.386719 3.792969 3.410156 C 3.773438 3.410156 3.757812 3.410156 3.742188 3.410156 C 3.742188 3.4375 3.742188 3.464844 3.742188 3.492188 C 3.730469 3.492188 3.71875 3.492188 3.707031 3.492188 C 3.691406 3.527344 3.6875 3.578125 3.691406 3.640625 C 3.660156 3.675781 3.648438 3.722656 3.660156 3.773438 C 3.640625 3.773438 3.625 3.773438 3.609375 3.773438 C 3.59375 3.832031 3.585938 3.894531 3.589844 3.957031 C 3.574219 3.957031 3.558594 3.957031 3.542969 3.957031 C 3.542969 4.175781 3.542969 4.390625 3.542969 4.609375 C 3.558594 4.609375 3.574219 4.609375 3.589844 4.609375 C 3.589844 4.6875 3.589844 4.765625 3.589844 4.839844 C 3.609375 4.839844 3.625 4.839844 3.640625 4.839844 C 3.640625 4.886719 3.640625 4.929688 3.640625 4.976562 C 3.660156 4.976562 3.675781 4.976562 3.691406 4.976562 C 3.726562 5.039062 3.742188 5.113281 3.742188 5.191406 C 3.757812 5.191406 3.773438 5.191406 3.792969 5.191406 C 3.789062 5.210938 3.792969 5.226562 3.808594 5.242188 C 3.820312 5.238281 3.824219 5.234375 3.824219 5.226562 C 3.832031 5.226562 3.835938 5.226562 3.839844 5.226562 C 3.835938 5.257812 3.84375 5.285156 3.859375 5.308594 C 3.875 5.308594 3.890625 5.308594 3.910156 5.308594 C 3.910156 5.332031 3.910156 5.351562 3.910156 5.375 C 3.925781 5.375 3.941406 5.375 3.957031 5.375 C 3.957031 5.402344 3.957031 5.429688 3.964844 5.457031 C 3.972656 5.449219 3.980469 5.445312 3.992188 5.441406 C 4.007812 5.46875 4.011719 5.496094 4.007812 5.523438 C 4.023438 5.523438 4.042969 5.523438 4.058594 5.523438 C 4.058594 5.546875 4.058594 5.570312 4.058594 5.589844 C 4.09375 5.609375 4.132812 5.613281 4.175781 5.609375 C 4.175781 5.621094 4.175781 5.628906 4.175781 5.640625 C 4.160156 5.648438 4.15625 5.660156 4.160156 5.675781 C 4.1875 5.722656 4.222656 5.769531 4.257812 5.816406 C 4.292969 5.824219 4.324219 5.828125 4.359375 5.824219 C 4.359375 5.847656 4.359375 5.871094 4.359375 5.890625 C 4.375 5.890625 4.390625 5.890625 4.410156 5.890625 C 4.410156 5.917969 4.410156 5.945312 4.410156 5.976562 C 4.441406 5.976562 4.476562 5.976562 4.507812 5.976562 C 4.507812 5.996094 4.507812 6.019531 4.507812 6.042969 C 4.542969 6.042969 4.574219 6.042969 4.609375 6.042969 C 4.609375 6.070312 4.609375 6.097656 4.609375 6.125 C 4.628906 6.125 4.652344 6.125 4.675781 6.125 C 4.675781 6.136719 4.675781 6.148438 4.675781 6.160156 C 4.664062 6.160156 4.660156 6.164062 4.660156 6.175781 C 4.691406 6.191406 4.722656 6.195312 4.757812 6.191406 C 4.757812 6.214844 4.757812 6.234375 4.757812 6.257812 C 4.792969 6.257812 4.824219 6.257812 4.859375 6.257812 C 4.855469 6.289062 4.859375 6.300781 4.875 6.292969 C 4.902344 6.292969 4.929688 6.292969 4.957031 6.292969 C 4.953125 6.328125 4.960938 6.359375 4.992188 6.375 C 5.015625 6.375 5.035156 6.375 5.058594 6.375 C 5.054688 6.40625 5.058594 6.433594 5.074219 6.457031 C 5.085938 6.457031 5.089844 6.449219 5.089844 6.441406 C 5.121094 6.441406 5.148438 6.441406 5.175781 6.441406 C 5.175781 6.46875 5.175781 6.496094 5.175781 6.523438 C 5.207031 6.523438 5.242188 6.523438 5.273438 6.523438 C 5.273438 6.546875 5.273438 6.570312 5.273438 6.589844 C 5.3125 6.605469 5.351562 6.617188 5.390625 6.625 C 5.390625 6.628906 5.390625 6.636719 5.390625 6.640625 C 5.382812 6.644531 5.378906 6.648438 5.375 6.660156 C 5.414062 6.675781 5.453125 6.679688 5.492188 6.675781 C 5.492188 6.6875 5.492188 6.695312 5.492188 6.707031 C 5.476562 6.71875 5.472656 6.738281 5.476562 6.757812 C 5.523438 6.757812 5.574219 6.757812 5.625 6.757812 C 5.625 6.78125 5.625 6.804688 5.625 6.824219 C 5.660156 6.824219 5.691406 6.824219 5.726562 6.824219 C 5.722656 6.847656 5.726562 6.863281 5.742188 6.875 C 5.765625 6.890625 5.792969 6.894531 5.824219 6.890625 C 5.824219 6.910156 5.824219 6.925781 5.824219 6.941406 C 5.867188 6.972656 5.917969 6.984375 5.976562 6.976562 C 5.972656 6.996094 5.976562 7.015625 5.992188 7.035156 C 6.023438 7.042969 6.058594 7.042969 6.089844 7.042969 C 6.089844 7.054688 6.089844 7.0625 6.089844 7.074219 C 6.140625 7.105469 6.195312 7.117188 6.257812 7.109375 C 6.257812 7.121094 6.257812 7.128906 6.257812 7.140625 C 6.25 7.144531 6.242188 7.148438 6.242188 7.160156 C 6.285156 7.175781 6.328125 7.179688 6.375 7.175781 C 6.378906 7.238281 6.410156 7.265625 6.476562 7.257812 C 6.472656 7.277344 6.476562 7.292969 6.492188 7.308594 C 6.5 7.304688 6.507812 7.300781 6.507812 7.292969 C 6.554688 7.292969 6.597656 7.292969 6.640625 7.292969 C 6.636719 7.320312 6.640625 7.347656 6.660156 7.375 C 6.667969 7.371094 6.675781 7.367188 6.675781 7.359375 C 6.703125 7.359375 6.730469 7.359375 6.757812 7.359375 C 6.757812 7.386719 6.757812 7.414062 6.757812 7.441406 C 6.808594 7.441406 6.859375 7.441406 6.910156 7.441406 C 6.910156 7.464844 6.910156 7.484375 6.910156 7.507812 C 6.949219 7.523438 6.992188 7.53125 7.042969 7.523438 C 7.039062 7.550781 7.042969 7.574219 7.058594 7.589844 C 7.109375 7.589844 7.160156 7.589844 7.207031 7.589844 C 7.207031 7.613281 7.207031 7.636719 7.207031 7.660156 C 7.253906 7.675781 7.304688 7.679688 7.359375 7.675781 C 7.359375 7.695312 7.359375 7.71875 7.359375 7.742188 C 7.410156 7.742188 7.457031 7.742188 7.507812 7.742188 C 7.507812 7.769531 7.507812 7.796875 7.507812 7.824219 C 7.558594 7.824219 7.609375 7.824219 7.660156 7.824219 C 7.660156 7.847656 7.660156 7.871094 7.660156 7.890625 C 7.707031 7.890625 7.757812 7.890625 7.808594 7.890625 C 7.804688 7.914062 7.8125 7.933594 7.824219 7.949219 C 7.867188 7.957031 7.914062 7.960938 7.957031 7.957031 C 7.957031 7.980469 7.960938 8 7.976562 8.015625 C 8.023438 8.023438 8.074219 8.027344 8.125 8.023438 C 8.125 8.054688 8.125 8.082031 8.125 8.109375 C 8.179688 8.109375 8.234375 8.109375 8.292969 8.109375 C 8.292969 8.121094 8.292969 8.128906 8.292969 8.140625 C 8.28125 8.144531 8.277344 8.148438 8.273438 8.160156 C 8.316406 8.175781 8.363281 8.179688 8.410156 8.175781 C 8.40625 8.195312 8.410156 8.214844 8.425781 8.234375 C 8.476562 8.242188 8.523438 8.246094 8.574219 8.242188 C 8.570312 8.273438 8.578125 8.285156 8.589844 8.273438 C 8.636719 8.273438 8.679688 8.273438 8.726562 8.273438 C 8.71875 8.3125 8.730469 8.339844 8.757812 8.359375 C 8.792969 8.359375 8.824219 8.359375 8.859375 8.359375 C 8.859375 8.378906 8.859375 8.402344 8.859375 8.425781 C 8.886719 8.421875 8.914062 8.425781 8.941406 8.433594 C 8.964844 8.449219 8.964844 8.464844 8.941406 8.484375 C 8.996094 8.492188 9.050781 8.496094 9.109375 8.492188 C 9.109375 8.515625 9.109375 8.535156 9.109375 8.558594 C 9.128906 8.574219 9.160156 8.582031 9.207031 8.574219 C 9.207031 8.597656 9.207031 8.621094 9.207031 8.640625 C 9.226562 8.65625 9.25 8.664062 9.273438 8.660156 C 9.269531 8.6875 9.277344 8.710938 9.292969 8.734375 C 9.324219 8.742188 9.359375 8.746094 9.390625 8.742188 C 9.390625 8.765625 9.390625 8.785156 9.390625 8.808594 C 9.425781 8.808594 9.457031 8.808594 9.492188 8.808594 C 9.492188 8.832031 9.492188 8.851562 9.492188 8.875 C 9.523438 8.875 9.558594 8.875 9.589844 8.875 C 9.589844 8.902344 9.589844 8.929688 9.589844 8.957031 C 9.609375 8.957031 9.625 8.957031 9.640625 8.957031 C 9.640625 8.980469 9.640625 9.003906 9.640625 9.023438 C 9.679688 9.023438 9.71875 9.023438 9.757812 9.023438 C 9.757812 9.035156 9.757812 9.046875 9.757812 9.058594 C 9.765625 9.140625 9.808594 9.179688 9.890625 9.175781 C 9.902344 9.21875 9.921875 9.257812 9.949219 9.292969 C 9.976562 9.308594 9.996094 9.332031 10.007812 9.359375 C 10.019531 9.355469 10.023438 9.351562 10.023438 9.339844 C 10.03125 9.339844 10.035156 9.339844 10.042969 9.339844 C 10.035156 9.375 10.042969 9.410156 10.058594 9.441406 C 10.070312 9.441406 10.074219 9.433594 10.074219 9.425781 C 10.097656 9.425781 10.121094 9.425781 10.140625 9.425781 C 10.140625 9.453125 10.140625 9.480469 10.140625 9.507812 C 10.164062 9.507812 10.1875 9.507812 10.207031 9.507812 C 10.207031 9.53125 10.207031 9.554688 10.207031 9.574219 C 10.226562 9.574219 10.242188 9.574219 10.257812 9.574219 C 10.257812 9.625 10.257812 9.675781 10.257812 9.726562 C 10.273438 9.726562 10.292969 9.726562 10.308594 9.726562 C 10.308594 9.746094 10.308594 9.769531 10.308594 9.792969 C 10.324219 9.792969 10.339844 9.792969 10.359375 9.792969 C 10.359375 9.820312 10.359375 9.847656 10.359375 9.875 C 10.375 9.875 10.390625 9.875 10.410156 9.875 C 10.410156 9.925781 10.410156 9.976562 10.410156 10.023438 C 10.429688 10.023438 10.453125 10.023438 10.476562 10.023438 C 10.476562 10.082031 10.476562 10.136719 10.476562 10.191406 C 10.492188 10.191406 10.507812 10.191406 10.523438 10.191406 C 10.523438 10.453125 10.523438 10.714844 10.523438 10.976562 C 10.5 10.96875 10.476562 10.976562 10.457031 10.992188 C 10.460938 11 10.464844 11.007812 10.476562 11.007812 C 10.476562 11.070312 10.476562 11.128906 10.476562 11.191406 C 10.453125 11.191406 10.429688 11.191406 10.410156 11.191406 C 10.410156 11.242188 10.410156 11.292969 10.410156 11.339844 C 10.390625 11.339844 10.375 11.339844 10.359375 11.339844 C 10.359375 11.398438 10.359375 11.453125 10.359375 11.507812 C 10.351562 11.507812 10.347656 11.507812 10.339844 11.507812 C 10.339844 11.5 10.335938 11.492188 10.324219 11.492188 C 10.308594 11.515625 10.304688 11.546875 10.308594 11.574219 C 10.296875 11.574219 10.285156 11.574219 10.273438 11.574219 C 10.257812 11.613281 10.253906 11.660156 10.257812 11.726562 C 10.246094 11.726562 10.234375 11.726562 10.226562 11.726562 C 10.210938 11.714844 10.203125 11.726562 10.207031 11.757812 C 10.191406 11.753906 10.175781 11.757812 10.160156 11.765625 C 10.121094 11.8125 10.089844 11.859375 10.058594 11.910156 C 10.058594 11.929688 10.058594 11.953125 10.058594 11.976562 C 10.039062 11.972656 10.023438 11.976562 10.007812 11.984375 C 9.96875 12.027344 9.9375 12.078125 9.910156 12.132812 C 9.910156 12.144531 9.914062 12.15625 9.925781 12.160156 C 9.925781 12.167969 9.925781 12.179688 9.925781 12.191406 C 9.875 12.183594 9.839844 12.195312 9.808594 12.226562 C 9.808594 12.246094 9.808594 12.269531 9.808594 12.292969 C 9.792969 12.292969 9.773438 12.292969 9.757812 12.292969 C 9.757812 12.308594 9.757812 12.324219 9.757812 12.339844 C 9.738281 12.335938 9.71875 12.34375 9.707031 12.359375 C 9.707031 12.375 9.707031 12.390625 9.707031 12.410156 C 9.667969 12.410156 9.628906 12.410156 9.589844 12.410156 C 9.589844 12.4375 9.589844 12.464844 9.589844 12.492188 C 9.585938 12.492188 9.582031 12.492188 9.574219 12.492188 C 9.574219 12.484375 9.570312 12.476562 9.558594 12.476562 C 9.542969 12.5 9.535156 12.527344 9.542969 12.558594 C 9.519531 12.558594 9.496094 12.558594 9.476562 12.558594 C 9.445312 12.574219 9.433594 12.605469 9.441406 12.640625 C 9.429688 12.640625 9.417969 12.640625 9.410156 12.640625 C 9.394531 12.632812 9.386719 12.644531 9.390625 12.675781 C 9.355469 12.671875 9.324219 12.675781 9.292969 12.691406 C 9.277344 12.707031 9.269531 12.722656 9.273438 12.742188 C 9.246094 12.738281 9.21875 12.742188 9.191406 12.757812 C 9.152344 12.796875 9.132812 12.839844 9.125 12.890625 C 9.09375 12.886719 9.066406 12.890625 9.042969 12.910156 C 9.042969 12.917969 9.050781 12.925781 9.058594 12.925781 C 9.058594 12.9375 9.058594 12.945312 9.058594 12.957031 C 9.019531 12.957031 8.980469 12.957031 8.941406 12.957031 C 8.941406 12.976562 8.941406 12.992188 8.941406 13.007812 C 8.941406 13.015625 8.941406 13.019531 8.941406 13.023438 C 8.90625 13.042969 8.867188 13.046875 8.824219 13.042969 C 8.824219 13.0625 8.824219 13.085938 8.824219 13.109375 C 8.808594 13.109375 8.792969 13.109375 8.773438 13.109375 C 8.773438 13.128906 8.773438 13.152344 8.773438 13.175781 C 8.730469 13.167969 8.699219 13.179688 8.675781 13.207031 C 8.675781 13.226562 8.675781 13.242188 8.675781 13.257812 C 8.640625 13.257812 8.609375 13.257812 8.574219 13.257812 C 8.574219 13.28125 8.574219 13.304688 8.574219 13.324219 C 8.542969 13.320312 8.515625 13.324219 8.492188 13.339844 C 8.492188 13.363281 8.492188 13.386719 8.492188 13.410156 C 8.464844 13.410156 8.4375 13.410156 8.410156 13.410156 C 8.394531 13.425781 8.386719 13.449219 8.390625 13.476562 C 8.351562 13.46875 8.3125 13.476562 8.273438 13.492188 C 8.277344 13.5 8.28125 13.507812 8.292969 13.507812 C 8.292969 13.523438 8.292969 13.542969 8.292969 13.558594 C 8.257812 13.558594 8.226562 13.558594 8.191406 13.558594 C 8.191406 13.550781 8.183594 13.542969 8.175781 13.542969 C 8.160156 13.554688 8.15625 13.570312 8.160156 13.589844 C 8.089844 13.582031 8.058594 13.609375 8.058594 13.675781 C 8.019531 13.671875 7.988281 13.675781 7.957031 13.691406 C 7.957031 13.707031 7.957031 13.726562 7.957031 13.742188 C 7.914062 13.738281 7.867188 13.742188 7.824219 13.75 C 7.8125 13.765625 7.804688 13.785156 7.808594 13.808594 C 7.746094 13.792969 7.710938 13.816406 7.707031 13.875 C 7.675781 13.875 7.640625 13.875 7.609375 13.875 C 7.605469 13.898438 7.609375 13.914062 7.625 13.925781 C 7.625 13.9375 7.625 13.945312 7.625 13.957031 C 7.585938 13.957031 7.546875 13.957031 7.507812 13.957031 C 7.507812 13.980469 7.507812 14.003906 7.507812 14.023438 C 7.476562 14.023438 7.441406 14.023438 7.410156 14.023438 C 7.410156 14.054688 7.410156 14.082031 7.410156 14.109375 C 7.375 14.109375 7.339844 14.109375 7.308594 14.109375 C 7.308594 14.128906 7.308594 14.152344 7.308594 14.175781 C 7.253906 14.175781 7.195312 14.175781 7.140625 14.175781 C 7.140625 14.195312 7.140625 14.21875 7.140625 14.242188 C 7.078125 14.226562 7.046875 14.25 7.042969 14.308594 C 7.007812 14.304688 6.980469 14.308594 6.957031 14.324219 C 6.957031 14.335938 6.957031 14.347656 6.957031 14.359375 C 6.957031 14.371094 6.957031 14.378906 6.957031 14.390625 C 6.921875 14.386719 6.886719 14.390625 6.859375 14.410156 C 6.859375 14.429688 6.859375 14.453125 6.859375 14.476562 C 6.808594 14.476562 6.757812 14.476562 6.707031 14.476562 C 6.691406 14.5 6.6875 14.527344 6.691406 14.558594 C 6.667969 14.558594 6.648438 14.558594 6.625 14.558594 C 6.625 14.550781 6.617188 14.542969 6.609375 14.542969 C 6.59375 14.566406 6.585938 14.59375 6.589844 14.625 C 6.5625 14.625 6.535156 14.625 6.507812 14.625 C 6.507812 14.617188 6.5 14.609375 6.492188 14.609375 C 6.476562 14.621094 6.472656 14.640625 6.476562 14.660156 C 6.4375 14.65625 6.398438 14.660156 6.359375 14.667969 C 6.332031 14.679688 6.324219 14.699219 6.324219 14.726562 C 6.277344 14.71875 6.246094 14.734375 6.226562 14.773438 C 6.183594 14.792969 6.136719 14.796875 6.089844 14.792969 C 6.089844 14.808594 6.089844 14.824219 6.089844 14.839844 C 6.089844 14.851562 6.089844 14.863281 6.089844 14.875 C 6.058594 14.871094 6.023438 14.875 5.992188 14.882812 C 5.976562 14.898438 5.972656 14.917969 5.976562 14.941406 C 5.929688 14.9375 5.886719 14.941406 5.839844 14.949219 C 5.828125 14.972656 5.820312 14.996094 5.824219 15.023438 C 5.792969 15.023438 5.757812 15.023438 5.726562 15.023438 C 5.726562 15.046875 5.726562 15.070312 5.726562 15.089844 C 5.691406 15.089844 5.660156 15.089844 5.625 15.089844 C 5.625 15.113281 5.625 15.136719 5.625 15.160156 C 5.574219 15.160156 5.523438 15.160156 5.476562 15.160156 C 5.472656 15.179688 5.476562 15.195312 5.492188 15.207031 C 5.492188 15.21875 5.492188 15.230469 5.492188 15.242188 C 5.453125 15.238281 5.414062 15.242188 5.375 15.257812 C 5.378906 15.269531 5.382812 15.273438 5.390625 15.273438 C 5.390625 15.28125 5.390625 15.285156 5.390625 15.292969 C 5.332031 15.308594 5.269531 15.3125 5.207031 15.308594 C 5.207031 15.332031 5.207031 15.351562 5.207031 15.375 C 5.175781 15.375 5.140625 15.375 5.109375 15.375 C 5.109375 15.402344 5.109375 15.429688 5.109375 15.457031 C 5.058594 15.457031 5.007812 15.457031 4.957031 15.457031 C 4.957031 15.484375 4.957031 15.515625 4.957031 15.542969 C 4.929688 15.542969 4.902344 15.542969 4.875 15.542969 C 4.859375 15.53125 4.855469 15.542969 4.859375 15.574219 C 4.8125 15.574219 4.769531 15.574219 4.726562 15.582031 C 4.714844 15.648438 4.675781 15.671875 4.609375 15.660156 C 4.609375 15.679688 4.609375 15.703125 4.609375 15.726562 C 4.5625 15.722656 4.519531 15.726562 4.476562 15.734375 C 4.449219 15.746094 4.4375 15.765625 4.441406 15.792969 C 4.402344 15.785156 4.375 15.796875 4.359375 15.824219 C 3.664062 15.847656 2.96875 15.859375 2.265625 15.859375 C 1.574219 15.855469 0.882812 15.851562 0.191406 15.851562 C 0.199219 15.84375 0.207031 15.835938 0.207031 15.824219 C 0.238281 15.828125 0.265625 15.824219 0.292969 15.808594 C 0.289062 15.796875 0.285156 15.792969 0.273438 15.792969 C 0.273438 15.773438 0.273438 15.757812 0.273438 15.742188 C 0.3125 15.742188 0.351562 15.742188 0.390625 15.742188 C 0.390625 15.71875 0.390625 15.695312 0.390625 15.675781 C 0.441406 15.675781 0.492188 15.675781 0.542969 15.675781 C 0.558594 15.65625 0.5625 15.636719 0.558594 15.609375 C 0.609375 15.609375 0.660156 15.609375 0.707031 15.609375 C 0.707031 15.582031 0.707031 15.554688 0.707031 15.523438 C 0.753906 15.523438 0.796875 15.523438 0.839844 15.523438 C 0.839844 15.496094 0.839844 15.46875 0.839844 15.441406 C 0.875 15.441406 0.910156 15.441406 0.941406 15.441406 C 0.957031 15.449219 0.960938 15.441406 0.957031 15.410156 C 1.003906 15.410156 1.046875 15.410156 1.089844 15.398438 C 1.105469 15.382812 1.109375 15.363281 1.109375 15.339844 C 1.152344 15.34375 1.199219 15.339844 1.242188 15.332031 C 1.25 15.328125 1.257812 15.320312 1.257812 15.308594 C 1.28125 15.285156 1.308594 15.273438 1.339844 15.265625 C 1.367188 15.25 1.378906 15.222656 1.375 15.191406 C 1.417969 15.195312 1.464844 15.191406 1.507812 15.183594 C 1.523438 15.167969 1.527344 15.148438 1.523438 15.125 C 1.585938 15.140625 1.621094 15.117188 1.625 15.058594 C 1.675781 15.0625 1.726562 15.058594 1.773438 15.042969 C 1.773438 15.03125 1.765625 15.027344 1.757812 15.023438 C 1.757812 15.019531 1.757812 15.015625 1.757812 15.007812 C 1.757812 14.996094 1.757812 14.984375 1.757812 14.976562 C 1.8125 14.976562 1.871094 14.976562 1.925781 14.976562 C 1.925781 14.953125 1.925781 14.929688 1.925781 14.910156 C 1.960938 14.914062 1.996094 14.90625 2.023438 14.890625 C 2.023438 14.871094 2.023438 14.847656 2.023438 14.824219 C 2.074219 14.824219 2.125 14.824219 2.175781 14.824219 C 2.175781 14.804688 2.175781 14.78125 2.175781 14.757812 C 2.226562 14.761719 2.277344 14.757812 2.324219 14.742188 C 2.324219 14.730469 2.316406 14.726562 2.308594 14.726562 C 2.308594 14.707031 2.308594 14.691406 2.308594 14.675781 C 2.347656 14.675781 2.386719 14.675781 2.425781 14.667969 C 2.414062 14.660156 2.410156 14.652344 2.410156 14.640625 C 2.410156 14.625 2.410156 14.609375 2.410156 14.589844 C 2.445312 14.589844 2.484375 14.589844 2.523438 14.589844 C 2.523438 14.574219 2.523438 14.558594 2.523438 14.542969 C 2.582031 14.542969 2.636719 14.542969 2.691406 14.542969 C 2.691406 14.515625 2.691406 14.484375 2.691406 14.457031 C 2.734375 14.457031 2.78125 14.457031 2.824219 14.457031 C 2.84375 14.445312 2.847656 14.417969 2.839844 14.375 C 2.871094 14.371094 2.898438 14.378906 2.925781 14.390625 C 2.941406 14.378906 2.945312 14.363281 2.941406 14.339844 C 2.992188 14.34375 3.042969 14.339844 3.089844 14.332031 C 3.105469 14.316406 3.109375 14.296875 3.109375 14.273438 C 3.136719 14.28125 3.164062 14.273438 3.191406 14.257812 C 3.191406 14.25 3.183594 14.242188 3.175781 14.242188 C 3.175781 14.230469 3.175781 14.21875 3.175781 14.207031 C 3.238281 14.21875 3.292969 14.207031 3.339844 14.175781 C 3.339844 14.160156 3.339844 14.140625 3.339844 14.125 C 3.390625 14.128906 3.441406 14.125 3.492188 14.117188 C 3.503906 14.101562 3.511719 14.082031 3.507812 14.058594 C 3.570312 14.074219 3.605469 14.050781 3.609375 13.992188 C 3.652344 13.992188 3.695312 13.992188 3.742188 13.992188 C 3.742188 13.976562 3.742188 13.957031 3.742188 13.941406 C 3.742188 13.929688 3.742188 13.917969 3.742188 13.910156 C 3.785156 13.917969 3.816406 13.90625 3.839844 13.875 C 3.839844 13.863281 3.839844 13.851562 3.839844 13.839844 C 3.898438 13.839844 3.953125 13.839844 4.007812 13.839844 C 4.007812 13.8125 4.007812 13.785156 4.007812 13.757812 C 4.042969 13.757812 4.074219 13.757812 4.109375 13.757812 C 4.109375 13.734375 4.109375 13.714844 4.109375 13.691406 C 4.140625 13.691406 4.175781 13.691406 4.207031 13.691406 C 4.222656 13.675781 4.230469 13.652344 4.226562 13.625 C 4.273438 13.625 4.324219 13.625 4.375 13.625 C 4.375 13.597656 4.375 13.570312 4.375 13.542969 C 4.390625 13.542969 4.410156 13.542969 4.425781 13.542969 C 4.429688 13.542969 4.4375 13.542969 4.441406 13.542969 C 4.46875 13.53125 4.480469 13.507812 4.484375 13.476562 C 4.550781 13.507812 4.601562 13.492188 4.640625 13.433594 C 4.699219 13.4375 4.726562 13.414062 4.726562 13.359375 C 4.769531 13.359375 4.8125 13.359375 4.859375 13.351562 C 4.867188 13.34375 4.875 13.335938 4.875 13.324219 C 4.875 13.308594 4.875 13.292969 4.875 13.273438 C 4.910156 13.273438 4.941406 13.273438 4.976562 13.273438 C 4.976562 13.253906 4.976562 13.230469 4.976562 13.207031 C 5.007812 13.210938 5.042969 13.207031 5.074219 13.199219 C 5.089844 13.183594 5.09375 13.164062 5.089844 13.140625 C 5.136719 13.148438 5.183594 13.140625 5.226562 13.125 C 5.246094 13.085938 5.277344 13.066406 5.324219 13.074219 C 5.324219 13.058594 5.324219 13.042969 5.324219 13.023438 C 5.320312 13.015625 5.3125 13.003906 5.308594 12.992188 C 5.355469 13 5.394531 12.988281 5.425781 12.957031 C 5.425781 12.945312 5.425781 12.9375 5.425781 12.925781 C 5.480469 12.925781 5.535156 12.925781 5.589844 12.925781 C 5.589844 12.898438 5.589844 12.871094 5.589844 12.839844 C 5.625 12.839844 5.660156 12.839844 5.691406 12.839844 C 5.691406 12.820312 5.691406 12.796875 5.691406 12.773438 C 5.742188 12.773438 5.792969 12.773438 5.839844 12.773438 C 5.839844 12.753906 5.839844 12.730469 5.839844 12.707031 C 5.875 12.707031 5.910156 12.707031 5.941406 12.707031 C 5.9375 12.679688 5.945312 12.652344 5.957031 12.625 C 5.988281 12.628906 6.015625 12.625 6.042969 12.609375 C 6.039062 12.597656 6.035156 12.59375 6.023438 12.589844 C 6.023438 12.582031 6.023438 12.570312 6.023438 12.558594 C 6.0625 12.558594 6.101562 12.558594 6.140625 12.558594 C 6.140625 12.53125 6.140625 12.503906 6.140625 12.476562 C 6.167969 12.476562 6.195312 12.476562 6.226562 12.476562 C 6.226562 12.445312 6.226562 12.417969 6.226562 12.390625 C 6.273438 12.390625 6.324219 12.390625 6.375 12.390625 C 6.375 12.402344 6.382812 12.40625 6.390625 12.410156 C 6.40625 12.382812 6.414062 12.355469 6.410156 12.324219 C 6.429688 12.324219 6.453125 12.324219 6.476562 12.324219 C 6.496094 12.324219 6.507812 12.3125 6.507812 12.292969 C 6.570312 12.308594 6.605469 12.285156 6.609375 12.226562 C 6.671875 12.238281 6.703125 12.21875 6.707031 12.160156 C 6.742188 12.160156 6.773438 12.160156 6.808594 12.160156 C 6.8125 12.136719 6.808594 12.121094 6.792969 12.109375 C 6.792969 12.097656 6.792969 12.085938 6.792969 12.074219 C 6.832031 12.074219 6.871094 12.074219 6.910156 12.074219 C 6.910156 12.046875 6.910156 12.019531 6.910156 11.992188 C 6.925781 11.992188 6.941406 11.992188 6.957031 11.992188 C 6.957031 11.96875 6.957031 11.945312 6.957031 11.925781 C 6.992188 11.925781 7.023438 11.925781 7.058594 11.925781 C 7.058594 11.898438 7.058594 11.871094 7.058594 11.839844 C 7.089844 11.839844 7.125 11.839844 7.160156 11.839844 C 7.171875 11.816406 7.191406 11.792969 7.214844 11.773438 C 7.226562 11.753906 7.226562 11.730469 7.226562 11.707031 C 7.253906 11.707031 7.28125 11.707031 7.308594 11.707031 C 7.324219 11.691406 7.328125 11.667969 7.324219 11.640625 C 7.339844 11.640625 7.359375 11.640625 7.375 11.640625 C 7.375 11.621094 7.375 11.597656 7.375 11.574219 C 7.414062 11.582031 7.441406 11.570312 7.457031 11.542969 C 7.457031 11.519531 7.457031 11.496094 7.457031 11.476562 C 7.476562 11.476562 7.492188 11.476562 7.507812 11.476562 C 7.507812 11.453125 7.507812 11.429688 7.507812 11.410156 C 7.523438 11.410156 7.542969 11.410156 7.558594 11.410156 C 7.558594 11.378906 7.558594 11.351562 7.558594 11.324219 C 7.574219 11.324219 7.589844 11.324219 7.609375 11.324219 C 7.601562 11.292969 7.613281 11.269531 7.640625 11.257812 C 7.644531 11.265625 7.648438 11.273438 7.660156 11.273438 C 7.699219 11.234375 7.734375 11.1875 7.765625 11.140625 C 7.773438 11.097656 7.777344 11.054688 7.773438 11.007812 C 7.792969 11.007812 7.808594 11.007812 7.824219 11.007812 C 7.824219 10.957031 7.824219 10.910156 7.824219 10.859375 C 7.839844 10.859375 7.859375 10.859375 7.875 10.859375 C 7.875 10.714844 7.875 10.570312 7.875 10.425781 C 7.859375 10.425781 7.839844 10.425781 7.824219 10.425781 C 7.824219 10.375 7.824219 10.324219 7.824219 10.273438 C 7.808594 10.273438 7.792969 10.273438 7.773438 10.273438 C 7.773438 10.253906 7.773438 10.230469 7.773438 10.207031 C 7.757812 10.207031 7.742188 10.207031 7.726562 10.207031 C 7.726562 10.179688 7.726562 10.152344 7.726562 10.125 C 7.707031 10.125 7.691406 10.125 7.675781 10.125 C 7.675781 10.101562 7.675781 10.082031 7.675781 10.058594 C 7.636719 10.058594 7.597656 10.058594 7.558594 10.058594 C 7.558594 10.046875 7.558594 10.035156 7.558594 10.023438 C 7.535156 9.996094 7.5 9.984375 7.457031 9.992188 C 7.457031 9.980469 7.457031 9.96875 7.457031 9.957031 C 7.472656 9.945312 7.480469 9.929688 7.476562 9.910156 C 7.457031 9.910156 7.441406 9.910156 7.425781 9.910156 C 7.429688 9.886719 7.421875 9.867188 7.410156 9.851562 C 7.363281 9.839844 7.320312 9.839844 7.273438 9.839844 C 7.269531 9.78125 7.238281 9.761719 7.175781 9.773438 C 7.179688 9.746094 7.171875 9.722656 7.160156 9.699219 C 7.113281 9.691406 7.070312 9.6875 7.023438 9.691406 C 7.027344 9.664062 7.015625 9.644531 6.992188 9.632812 C 6.949219 9.625 6.902344 9.621094 6.859375 9.625 C 6.859375 9.601562 6.859375 9.582031 6.859375 9.558594 C 6.796875 9.574219 6.761719 9.550781 6.757812 9.492188 C 6.714844 9.492188 6.667969 9.492188 6.625 9.492188 C 6.628906 9.46875 6.621094 9.449219 6.609375 9.433594 C 6.558594 9.425781 6.507812 9.421875 6.457031 9.425781 C 6.457031 9.402344 6.457031 9.378906 6.457031 9.359375 C 6.402344 9.359375 6.347656 9.359375 6.292969 9.359375 C 6.292969 9.335938 6.292969 9.3125 6.292969 9.292969 C 6.21875 9.292969 6.148438 9.292969 6.074219 9.292969 C 6.074219 9.273438 6.074219 9.257812 6.074219 9.242188 C 6.085938 9.242188 6.089844 9.234375 6.089844 9.226562 C 6.039062 9.207031 5.980469 9.203125 5.925781 9.207031 C 5.925781 9.195312 5.925781 9.1875 5.925781 9.175781 C 5.890625 9.144531 5.84375 9.132812 5.792969 9.140625 C 5.792969 9.125 5.792969 9.109375 5.792969 9.089844 C 5.75 9.058594 5.699219 9.050781 5.640625 9.058594 C 5.640625 9.035156 5.640625 9.015625 5.640625 8.992188 C 5.589844 8.992188 5.542969 8.992188 5.492188 8.992188 C 5.492188 8.96875 5.492188 8.945312 5.492188 8.925781 C 5.429688 8.925781 5.371094 8.925781 5.308594 8.925781 C 5.3125 8.914062 5.320312 8.902344 5.324219 8.890625 C 5.324219 8.875 5.324219 8.859375 5.324219 8.839844 C 5.28125 8.839844 5.234375 8.839844 5.191406 8.839844 C 5.195312 8.820312 5.1875 8.800781 5.175781 8.785156 C 5.125 8.773438 5.074219 8.773438 5.023438 8.773438 C 5.023438 8.753906 5.023438 8.730469 5.023438 8.707031 C 4.976562 8.707031 4.925781 8.707031 4.875 8.707031 C 4.875 8.691406 4.875 8.675781 4.875 8.660156 C 4.875 8.648438 4.867188 8.640625 4.859375 8.632812 C 4.8125 8.625 4.769531 8.621094 4.726562 8.625 C 4.71875 8.566406 4.6875 8.542969 4.625 8.558594 C 4.628906 8.535156 4.621094 8.515625 4.609375 8.5 C 4.5625 8.492188 4.519531 8.488281 4.476562 8.492188 C 4.480469 8.46875 4.472656 8.453125 4.457031 8.441406 C 4.414062 8.441406 4.371094 8.441406 4.324219 8.441406 C 4.324219 8.414062 4.324219 8.386719 4.324219 8.359375 C 4.292969 8.359375 4.257812 8.359375 4.226562 8.359375 C 4.230469 8.332031 4.222656 8.308594 4.207031 8.292969 C 4.160156 8.292969 4.109375 8.292969 4.058594 8.292969 C 4.058594 8.269531 4.058594 8.246094 4.058594 8.226562 C 4.027344 8.207031 3.996094 8.203125 3.957031 8.207031 C 3.957031 8.1875 3.957031 8.164062 3.957031 8.140625 C 3.902344 8.140625 3.847656 8.140625 3.792969 8.140625 C 3.792969 8.128906 3.792969 8.121094 3.792969 8.109375 C 3.773438 8.078125 3.746094 8.066406 3.707031 8.074219 C 3.714844 8 3.683594 7.972656 3.609375 7.992188 C 3.609375 7.96875 3.605469 7.949219 3.589844 7.933594 C 3.546875 7.925781 3.503906 7.921875 3.457031 7.925781 C 3.460938 7.902344 3.457031 7.882812 3.441406 7.867188 C 3.410156 7.859375 3.375 7.855469 3.339844 7.859375 C 3.339844 7.835938 3.339844 7.8125 3.339844 7.792969 C 3.308594 7.792969 3.273438 7.792969 3.242188 7.792969 C 3.242188 7.765625 3.242188 7.734375 3.242188 7.707031 C 3.203125 7.707031 3.164062 7.707031 3.125 7.707031 C 3.125 7.695312 3.125 7.6875 3.125 7.675781 C 3.132812 7.675781 3.140625 7.667969 3.140625 7.660156 C 3.117188 7.640625 3.089844 7.636719 3.058594 7.640625 C 3.054688 7.582031 3.019531 7.558594 2.957031 7.574219 C 2.960938 7.550781 2.957031 7.527344 2.941406 7.507812 C 2.929688 7.511719 2.925781 7.515625 2.925781 7.523438 C 2.898438 7.523438 2.871094 7.523438 2.839844 7.523438 C 2.847656 7.496094 2.839844 7.46875 2.824219 7.441406 C 2.816406 7.445312 2.808594 7.449219 2.808594 7.457031 C 2.804688 7.457031 2.796875 7.457031 2.792969 7.457031 C 2.792969 7.429688 2.792969 7.402344 2.792969 7.375 C 2.757812 7.375 2.726562 7.375 2.691406 7.375 C 2.691406 7.347656 2.691406 7.320312 2.691406 7.292969 C 2.660156 7.292969 2.625 7.292969 2.589844 7.292969 C 2.589844 7.269531 2.589844 7.246094 2.589844 7.226562 C 2.554688 7.226562 2.515625 7.226562 2.476562 7.226562 C 2.476562 7.214844 2.476562 7.203125 2.476562 7.191406 C 2.464844 7.164062 2.441406 7.152344 2.410156 7.160156 C 2.410156 7.148438 2.410156 7.136719 2.410156 7.125 C 2.421875 7.113281 2.429688 7.097656 2.425781 7.074219 C 2.386719 7.074219 2.347656 7.074219 2.308594 7.074219 C 2.308594 7.0625 2.308594 7.054688 2.308594 7.042969 C 2.316406 7.039062 2.324219 7.035156 2.324219 7.023438 C 2.300781 7.007812 2.269531 7.003906 2.242188 7.007812 C 2.234375 6.957031 2.210938 6.914062 2.175781 6.875 C 2.144531 6.859375 2.109375 6.851562 2.074219 6.859375 C 2.078125 6.839844 2.074219 6.824219 2.066406 6.808594 C 2.039062 6.792969 2.023438 6.773438 2.015625 6.742188 C 2.011719 6.746094 2.007812 6.75 2.007812 6.757812 C 1.996094 6.757812 1.984375 6.757812 1.976562 6.757812 C 1.980469 6.730469 1.972656 6.699219 1.957031 6.675781 C 1.949219 6.675781 1.941406 6.683594 1.941406 6.691406 C 1.917969 6.691406 1.898438 6.691406 1.875 6.691406 C 1.878906 6.65625 1.875 6.625 1.859375 6.589844 C 1.847656 6.59375 1.84375 6.597656 1.839844 6.609375 C 1.832031 6.609375 1.820312 6.609375 1.808594 6.609375 C 1.808594 6.585938 1.808594 6.5625 1.808594 6.542969 C 1.792969 6.542969 1.773438 6.542969 1.757812 6.542969 C 1.757812 6.515625 1.757812 6.484375 1.757812 6.457031 C 1.742188 6.457031 1.726562 6.457031 1.707031 6.457031 C 1.707031 6.4375 1.707031 6.414062 1.707031 6.390625 C 1.691406 6.390625 1.675781 6.390625 1.660156 6.390625 C 1.660156 6.371094 1.660156 6.347656 1.660156 6.324219 C 1.640625 6.308594 1.617188 6.304688 1.589844 6.308594 C 1.589844 6.296875 1.589844 6.285156 1.589844 6.273438 C 1.605469 6.269531 1.609375 6.257812 1.609375 6.242188 C 1.519531 6.132812 1.4375 6.015625 1.367188 5.890625 C 1.351562 5.878906 1.332031 5.871094 1.308594 5.875 C 1.308594 5.847656 1.308594 5.820312 1.308594 5.792969 C 1.28125 5.792969 1.257812 5.78125 1.242188 5.757812 C 1.230469 5.757812 1.21875 5.757812 1.207031 5.757812 C 1.214844 5.699219 1.207031 5.65625 1.191406 5.625 C 1.179688 5.625 1.167969 5.625 1.160156 5.625 C 1.164062 5.59375 1.15625 5.566406 1.140625 5.542969 C 1.128906 5.542969 1.121094 5.542969 1.109375 5.542969 C 1.109375 5.492188 1.109375 5.441406 1.109375 5.390625 C 1.085938 5.390625 1.0625 5.390625 1.042969 5.390625 C 1.042969 5.351562 1.042969 5.3125 1.042969 5.273438 C 1.050781 5.273438 1.054688 5.269531 1.058594 5.257812 C 1.039062 5.242188 1.015625 5.238281 0.992188 5.242188 C 0.992188 5.203125 0.992188 5.164062 0.992188 5.125 C 1 5.125 1.007812 5.117188 1.007812 5.109375 C 0.988281 5.09375 0.964844 5.085938 0.941406 5.089844 C 0.941406 5.058594 0.941406 5.023438 0.941406 4.992188 C 0.914062 4.890625 0.902344 4.78125 0.898438 4.675781 C 0.894531 4.667969 0.886719 4.660156 0.875 4.660156 C 0.871094 4.535156 0.863281 4.414062 0.859375 4.292969 C 0.863281 4.0625 0.878906 3.84375 0.910156 3.625 C 0.925781 3.628906 0.9375 3.621094 0.941406 3.609375 C 0.941406 3.535156 0.941406 3.464844 0.941406 3.390625 C 0.957031 3.390625 0.976562 3.390625 0.992188 3.390625 C 0.992188 3.339844 0.992188 3.292969 0.992188 3.242188 C 1.007812 3.242188 1.023438 3.242188 1.042969 3.242188 C 1.042969 3.21875 1.042969 3.195312 1.042969 3.175781 C 1.054688 3.175781 1.0625 3.175781 1.074219 3.175781 C 1.074219 3.183594 1.082031 3.191406 1.089844 3.191406 C 1.109375 3.152344 1.113281 3.117188 1.109375 3.074219 C 1.136719 3.078125 1.152344 3.066406 1.160156 3.042969 C 1.160156 3.003906 1.160156 2.964844 1.160156 2.925781 C 1.175781 2.925781 1.191406 2.925781 1.207031 2.925781 C 1.207031 2.898438 1.207031 2.871094 1.207031 2.839844 C 1.226562 2.839844 1.242188 2.839844 1.257812 2.839844 C 1.257812 2.820312 1.257812 2.796875 1.257812 2.773438 C 1.273438 2.773438 1.292969 2.773438 1.308594 2.773438 C 1.308594 2.753906 1.308594 2.730469 1.308594 2.707031 C 1.324219 2.707031 1.339844 2.707031 1.359375 2.707031 C 1.359375 2.660156 1.359375 2.609375 1.359375 2.558594 C 1.398438 2.558594 1.4375 2.558594 1.476562 2.558594 C 1.476562 2.507812 1.476562 2.457031 1.476562 2.410156 C 1.496094 2.410156 1.519531 2.410156 1.542969 2.410156 C 1.542969 2.378906 1.542969 2.351562 1.542969 2.324219 C 1.566406 2.328125 1.585938 2.324219 1.609375 2.316406 C 1.59375 2.300781 1.589844 2.28125 1.589844 2.257812 C 1.613281 2.257812 1.636719 2.257812 1.660156 2.257812 C 1.652344 2.230469 1.660156 2.199219 1.675781 2.175781 C 1.683594 2.179688 1.691406 2.183594 1.699219 2.191406 C 1.707031 2.164062 1.710938 2.136719 1.707031 2.109375 C 1.734375 2.113281 1.753906 2.101562 1.757812 2.074219 C 1.78125 2.074219 1.804688 2.074219 1.824219 2.074219 C 1.824219 2.054688 1.824219 2.03125 1.824219 2.007812 C 1.867188 2.015625 1.898438 2.003906 1.925781 1.976562 C 1.925781 1.957031 1.925781 1.941406 1.925781 1.925781 C 1.941406 1.925781 1.957031 1.925781 1.976562 1.925781 C 1.976562 1.902344 1.976562 1.878906 1.976562 1.859375 C 1.992188 1.859375 2.007812 1.859375 2.023438 1.859375 C 2.023438 1.835938 2.023438 1.8125 2.023438 1.792969 C 2.058594 1.792969 2.089844 1.792969 2.125 1.792969 C 2.125 1.765625 2.125 1.734375 2.125 1.707031 C 2.140625 1.707031 2.160156 1.707031 2.175781 1.707031 C 2.175781 1.6875 2.175781 1.664062 2.175781 1.640625 C 2.203125 1.640625 2.230469 1.640625 2.257812 1.640625 C 2.28125 1.617188 2.300781 1.589844 2.324219 1.558594 C 2.335938 1.539062 2.34375 1.515625 2.339844 1.492188 C 2.371094 1.496094 2.398438 1.492188 2.425781 1.476562 C 2.421875 1.464844 2.417969 1.460938 2.410156 1.457031 C 2.410156 1.441406 2.410156 1.425781 2.410156 1.410156 C 2.445312 1.410156 2.484375 1.410156 2.523438 1.410156 C 2.519531 1.375 2.53125 1.351562 2.558594 1.339844 C 2.558594 1.351562 2.566406 1.355469 2.574219 1.359375 C 2.589844 1.339844 2.597656 1.316406 2.589844 1.292969 C 2.625 1.292969 2.660156 1.292969 2.691406 1.292969 C 2.691406 1.269531 2.691406 1.246094 2.691406 1.226562 C 2.734375 1.234375 2.765625 1.222656 2.792969 1.191406 C 2.8125 1.164062 2.84375 1.148438 2.882812 1.140625 C 2.890625 1.121094 2.894531 1.097656 2.890625 1.074219 C 2.953125 1.089844 2.988281 1.066406 2.992188 1.007812 C 3.027344 1.011719 3.058594 1.007812 3.089844 0.992188 C 3.089844 0.980469 3.085938 0.976562 3.074219 0.976562 C 3.074219 0.964844 3.074219 0.953125 3.074219 0.941406 C 3.117188 0.945312 3.152344 0.941406 3.191406 0.925781 C 3.191406 0.914062 3.183594 0.910156 3.175781 0.910156 C 3.175781 0.890625 3.175781 0.875 3.175781 0.859375 C 3.214844 0.859375 3.253906 0.859375 3.292969 0.859375 C 3.292969 0.835938 3.292969 0.8125 3.292969 0.792969 C 3.332031 0.792969 3.371094 0.792969 3.410156 0.792969 C 3.410156 0.769531 3.410156 0.746094 3.410156 0.726562 C 3.457031 0.730469 3.5 0.722656 3.542969 0.707031 C 3.558594 0.695312 3.5625 0.679688 3.558594 0.660156 C 3.589844 0.664062 3.617188 0.65625 3.640625 0.640625 C 3.644531 0.625 3.640625 0.613281 3.625 0.609375 C 3.625 0.597656 3.625 0.585938 3.625 0.574219 C 3.667969 0.578125 3.707031 0.574219 3.742188 0.558594 C 3.742188 0.535156 3.742188 0.515625 3.742188 0.492188 C 3.769531 0.492188 3.796875 0.492188 3.824219 0.492188 C 3.839844 0.472656 3.847656 0.453125 3.839844 0.425781 C 3.878906 0.425781 3.917969 0.425781 3.957031 0.425781 C 3.957031 0.398438 3.957031 0.371094 3.957031 0.339844 C 4.003906 0.339844 4.046875 0.339844 4.089844 0.339844 C 4.105469 0.351562 4.113281 0.339844 4.109375 0.308594 C 4.144531 0.3125 4.175781 0.304688 4.207031 0.292969 C 4.222656 0.277344 4.230469 0.261719 4.226562 0.242188 C 4.269531 0.246094 4.3125 0.242188 4.359375 0.234375 C 4.371094 0.210938 4.378906 0.1875 4.375 0.160156 C 4.859375 0.160156 5.339844 0.160156 5.824219 0.148438 C 5.847656 0.136719 5.859375 0.117188 5.859375 0.0898438 Z M 5.859375 0.0898438 "/>
<path style=" stroke:none;fill-rule:evenodd;fill-opacity:1;" d="M 14.574219 0.207031 C 14.5625 0.207031 14.554688 0.207031 14.542969 0.207031 C 14.527344 0.226562 14.519531 0.25 14.523438 0.273438 C 14.457031 0.273438 14.390625 0.273438 14.324219 0.273438 C 14.324219 0.304688 14.324219 0.332031 14.324219 0.359375 C 14.304688 0.359375 14.28125 0.359375 14.257812 0.359375 C 14.242188 0.382812 14.238281 0.410156 14.242188 0.441406 C 14.191406 0.441406 14.140625 0.441406 14.089844 0.441406 C 14.089844 0.464844 14.089844 0.484375 14.089844 0.507812 C 14.042969 0.507812 13.992188 0.507812 13.941406 0.507812 C 13.917969 0.53125 13.917969 0.554688 13.941406 0.574219 C 13.914062 0.589844 13.878906 0.597656 13.839844 0.589844 C 13.839844 0.582031 13.835938 0.578125 13.824219 0.574219 C 13.808594 0.589844 13.804688 0.605469 13.808594 0.625 C 13.761719 0.621094 13.71875 0.625 13.675781 0.632812 C 13.660156 0.648438 13.65625 0.667969 13.660156 0.691406 C 13.613281 0.6875 13.570312 0.691406 13.523438 0.699219 C 13.511719 0.71875 13.503906 0.734375 13.507812 0.757812 C 13.476562 0.757812 13.441406 0.757812 13.410156 0.757812 C 13.40625 0.78125 13.410156 0.796875 13.425781 0.808594 C 13.425781 0.820312 13.425781 0.832031 13.425781 0.839844 C 13.371094 0.839844 13.3125 0.839844 13.257812 0.839844 C 13.257812 0.863281 13.257812 0.886719 13.257812 0.910156 C 13.207031 0.910156 13.160156 0.910156 13.109375 0.910156 C 13.109375 0.929688 13.109375 0.953125 13.109375 0.976562 C 13.054688 0.96875 13.003906 0.976562 12.957031 0.992188 C 12.941406 1.003906 12.9375 1.019531 12.941406 1.042969 C 12.875 1.03125 12.839844 1.058594 12.839844 1.125 C 12.796875 1.121094 12.75 1.125 12.707031 1.140625 C 12.710938 1.152344 12.714844 1.15625 12.726562 1.160156 C 12.726562 1.167969 12.726562 1.179688 12.726562 1.191406 C 12.664062 1.191406 12.601562 1.191406 12.542969 1.191406 C 12.542969 1.21875 12.542969 1.246094 12.542969 1.273438 C 12.507812 1.273438 12.476562 1.273438 12.441406 1.273438 C 12.441406 1.296875 12.441406 1.320312 12.441406 1.339844 C 12.390625 1.339844 12.339844 1.339844 12.292969 1.339844 C 12.292969 1.371094 12.292969 1.398438 12.292969 1.425781 C 12.246094 1.425781 12.203125 1.425781 12.160156 1.425781 C 12.160156 1.453125 12.160156 1.480469 12.160156 1.507812 C 12.109375 1.507812 12.058594 1.507812 12.007812 1.507812 C 12.007812 1.53125 12.007812 1.554688 12.007812 1.574219 C 11.964844 1.570312 11.925781 1.574219 11.890625 1.589844 C 11.84375 1.605469 11.792969 1.613281 11.742188 1.617188 C 11.726562 1.640625 11.722656 1.664062 11.726562 1.691406 C 11.675781 1.691406 11.625 1.691406 11.574219 1.691406 C 11.574219 1.714844 11.574219 1.734375 11.574219 1.757812 C 11.511719 1.742188 11.480469 1.765625 11.476562 1.824219 C 11.425781 1.824219 11.375 1.824219 11.324219 1.824219 C 11.324219 1.847656 11.324219 1.871094 11.324219 1.890625 C 11.269531 1.886719 11.222656 1.890625 11.175781 1.910156 C 11.171875 1.925781 11.175781 1.9375 11.191406 1.941406 C 11.191406 1.953125 11.191406 1.964844 11.191406 1.976562 C 11.136719 1.976562 11.082031 1.976562 11.023438 1.976562 C 11.023438 1.996094 11.023438 2.019531 11.023438 2.042969 C 10.984375 2.042969 10.945312 2.042969 10.910156 2.042969 C 10.910156 2.0625 10.910156 2.085938 10.910156 2.109375 C 10.859375 2.101562 10.816406 2.109375 10.773438 2.125 C 10.757812 2.144531 10.753906 2.164062 10.757812 2.191406 C 10.714844 2.191406 10.667969 2.191406 10.625 2.191406 C 10.609375 2.210938 10.605469 2.230469 10.609375 2.257812 C 10.558594 2.253906 10.507812 2.257812 10.457031 2.273438 C 10.460938 2.285156 10.464844 2.289062 10.476562 2.292969 C 10.476562 2.308594 10.476562 2.324219 10.476562 2.339844 C 10.4375 2.339844 10.398438 2.339844 10.359375 2.339844 C 10.359375 2.371094 10.359375 2.398438 10.359375 2.425781 C 10.3125 2.425781 10.269531 2.425781 10.226562 2.425781 C 10.226562 2.445312 10.226562 2.46875 10.226562 2.492188 C 10.175781 2.492188 10.125 2.492188 10.074219 2.492188 C 10.074219 2.484375 10.070312 2.476562 10.058594 2.476562 C 10.042969 2.496094 10.039062 2.515625 10.042969 2.542969 C 10.007812 2.542969 9.976562 2.542969 9.941406 2.542969 C 9.941406 2.5625 9.941406 2.585938 9.941406 2.609375 C 9.886719 2.597656 9.84375 2.609375 9.808594 2.640625 C 9.808594 2.652344 9.808594 2.664062 9.808594 2.675781 C 9.757812 2.671875 9.707031 2.675781 9.660156 2.683594 C 9.644531 2.699219 9.640625 2.71875 9.640625 2.742188 C 9.601562 2.734375 9.566406 2.746094 9.542969 2.773438 C 9.542969 2.792969 9.542969 2.808594 9.542969 2.824219 C 9.492188 2.824219 9.441406 2.824219 9.390625 2.824219 C 9.390625 2.847656 9.390625 2.871094 9.390625 2.890625 C 9.339844 2.890625 9.292969 2.890625 9.242188 2.898438 C 9.226562 2.917969 9.222656 2.9375 9.226562 2.957031 C 9.195312 2.957031 9.167969 2.957031 9.140625 2.957031 C 9.136719 2.980469 9.144531 2.996094 9.160156 3.007812 C 9.160156 3.019531 9.160156 3.03125 9.160156 3.042969 C 9.09375 3.03125 9.039062 3.042969 8.992188 3.074219 C 8.992188 3.085938 8.992188 3.097656 8.992188 3.109375 C 8.953125 3.109375 8.914062 3.109375 8.875 3.109375 C 8.875 3.128906 8.875 3.152344 8.875 3.175781 C 8.839844 3.175781 8.808594 3.175781 8.773438 3.175781 C 8.773438 3.203125 8.773438 3.230469 8.773438 3.257812 C 8.726562 3.257812 8.675781 3.257812 8.625 3.257812 C 8.625 3.28125 8.625 3.304688 8.625 3.324219 C 8.589844 3.324219 8.558594 3.324219 8.523438 3.324219 C 8.523438 3.351562 8.523438 3.378906 8.523438 3.410156 C 8.503906 3.410156 8.480469 3.410156 8.457031 3.410156 C 8.441406 3.433594 8.4375 3.460938 8.441406 3.492188 C 8.410156 3.492188 8.375 3.492188 8.339844 3.492188 C 8.339844 3.515625 8.339844 3.535156 8.339844 3.558594 C 8.308594 3.558594 8.273438 3.558594 8.242188 3.558594 C 8.226562 3.582031 8.21875 3.609375 8.226562 3.640625 C 8.195312 3.640625 8.167969 3.640625 8.140625 3.640625 C 8.125 3.632812 8.121094 3.644531 8.125 3.675781 C 8.089844 3.671875 8.058594 3.675781 8.023438 3.683594 C 7.976562 3.75 7.933594 3.820312 7.890625 3.890625 C 7.847656 3.941406 7.808594 3.988281 7.765625 4.042969 C 7.761719 4.101562 7.75 4.15625 7.726562 4.207031 C 7.714844 4.277344 7.726562 4.339844 7.757812 4.390625 C 7.757812 4.441406 7.757812 4.492188 7.757812 4.542969 C 7.773438 4.542969 7.792969 4.542969 7.808594 4.542969 C 7.804688 4.566406 7.808594 4.589844 7.824219 4.609375 C 7.847656 4.628906 7.859375 4.65625 7.859375 4.691406 C 7.890625 4.691406 7.925781 4.691406 7.957031 4.691406 C 7.953125 4.71875 7.960938 4.742188 7.976562 4.757812 C 7.992188 4.757812 8.007812 4.757812 8.023438 4.757812 C 8.023438 4.78125 8.023438 4.804688 8.023438 4.824219 C 8.046875 4.839844 8.078125 4.847656 8.109375 4.839844 C 8.109375 4.863281 8.109375 4.886719 8.109375 4.910156 C 8.148438 4.910156 8.1875 4.910156 8.226562 4.910156 C 8.226562 4.917969 8.226562 4.929688 8.226562 4.941406 C 8.273438 4.972656 8.328125 4.984375 8.390625 4.976562 C 8.390625 4.984375 8.390625 4.996094 8.390625 5.007812 C 8.375 5.019531 8.371094 5.035156 8.375 5.058594 C 8.425781 5.058594 8.476562 5.058594 8.523438 5.058594 C 8.523438 5.082031 8.527344 5.101562 8.542969 5.117188 C 8.585938 5.125 8.628906 5.128906 8.675781 5.125 C 8.671875 5.148438 8.675781 5.167969 8.691406 5.183594 C 8.734375 5.191406 8.78125 5.195312 8.824219 5.191406 C 8.820312 5.210938 8.828125 5.226562 8.839844 5.242188 C 8.851562 5.238281 8.855469 5.234375 8.859375 5.226562 C 8.902344 5.226562 8.945312 5.226562 8.992188 5.226562 C 8.992188 5.253906 8.992188 5.28125 8.992188 5.308594 C 9.046875 5.308594 9.101562 5.308594 9.160156 5.308594 C 9.160156 5.332031 9.160156 5.351562 9.160156 5.375 C 9.226562 5.375 9.292969 5.375 9.359375 5.375 C 9.355469 5.40625 9.359375 5.433594 9.375 5.457031 C 9.429688 5.457031 9.484375 5.457031 9.542969 5.457031 C 9.535156 5.492188 9.546875 5.511719 9.574219 5.523438 C 9.621094 5.523438 9.664062 5.523438 9.707031 5.523438 C 9.707031 5.546875 9.707031 5.570312 9.707031 5.589844 C 9.761719 5.609375 9.816406 5.613281 9.875 5.609375 C 9.875 5.621094 9.875 5.628906 9.875 5.640625 C 9.859375 5.648438 9.855469 5.660156 9.859375 5.675781 C 9.917969 5.691406 9.976562 5.695312 10.042969 5.691406 C 10.039062 5.714844 10.042969 5.734375 10.058594 5.75 C 10.109375 5.757812 10.15625 5.761719 10.207031 5.757812 C 10.207031 5.78125 10.207031 5.804688 10.207031 5.824219 C 10.257812 5.824219 10.308594 5.824219 10.359375 5.824219 C 10.359375 5.847656 10.359375 5.871094 10.359375 5.890625 C 10.421875 5.90625 10.488281 5.914062 10.558594 5.910156 C 10.558594 5.929688 10.558594 5.953125 10.558594 5.976562 C 10.609375 5.976562 10.660156 5.976562 10.707031 5.976562 C 10.707031 5.996094 10.710938 6.015625 10.726562 6.035156 C 10.792969 6.042969 10.859375 6.042969 10.925781 6.042969 C 10.925781 6.070312 10.925781 6.097656 10.925781 6.125 C 10.976562 6.125 11.023438 6.125 11.074219 6.125 C 11.074219 6.136719 11.074219 6.148438 11.074219 6.160156 C 11.121094 6.191406 11.179688 6.199219 11.242188 6.191406 C 11.28125 6.222656 11.332031 6.234375 11.390625 6.226562 C 11.390625 6.246094 11.390625 6.269531 11.390625 6.292969 C 11.4375 6.292969 11.480469 6.292969 11.523438 6.292969 C 11.519531 6.328125 11.527344 6.359375 11.558594 6.375 C 11.609375 6.375 11.660156 6.375 11.707031 6.375 C 11.707031 6.398438 11.707031 6.417969 11.707031 6.441406 C 11.753906 6.441406 11.796875 6.441406 11.839844 6.441406 C 11.839844 6.46875 11.839844 6.496094 11.839844 6.523438 C 11.898438 6.523438 11.953125 6.523438 12.007812 6.523438 C 12.007812 6.542969 12.007812 6.558594 12.007812 6.574219 C 12 6.574219 11.992188 6.582031 11.992188 6.589844 C 12.039062 6.609375 12.089844 6.613281 12.140625 6.609375 C 12.140625 6.628906 12.140625 6.652344 12.140625 6.675781 C 12.191406 6.675781 12.242188 6.675781 12.292969 6.675781 C 12.292969 6.695312 12.292969 6.71875 12.292969 6.742188 C 12.324219 6.742188 12.359375 6.742188 12.390625 6.742188 C 12.390625 6.769531 12.390625 6.796875 12.390625 6.824219 C 12.441406 6.824219 12.492188 6.824219 12.542969 6.824219 C 12.542969 6.847656 12.542969 6.871094 12.542969 6.890625 C 12.582031 6.890625 12.621094 6.890625 12.660156 6.890625 C 12.660156 6.902344 12.660156 6.914062 12.660156 6.925781 C 12.660156 6.941406 12.660156 6.957031 12.660156 6.976562 C 12.703125 6.96875 12.75 6.976562 12.792969 6.992188 C 12.8125 7.03125 12.84375 7.046875 12.890625 7.042969 C 12.890625 7.0625 12.894531 7.082031 12.910156 7.101562 C 12.941406 7.109375 12.972656 7.109375 13.007812 7.109375 C 13.003906 7.136719 13.011719 7.160156 13.023438 7.183594 C 13.070312 7.191406 13.113281 7.195312 13.160156 7.191406 C 13.160156 7.203125 13.160156 7.214844 13.160156 7.226562 C 13.183594 7.253906 13.214844 7.265625 13.257812 7.257812 C 13.253906 7.28125 13.261719 7.300781 13.273438 7.316406 C 13.308594 7.324219 13.339844 7.328125 13.375 7.324219 C 13.398438 7.355469 13.433594 7.367188 13.476562 7.359375 C 13.476562 7.386719 13.476562 7.414062 13.476562 7.441406 C 13.503906 7.441406 13.53125 7.441406 13.558594 7.441406 C 13.558594 7.46875 13.558594 7.496094 13.558594 7.523438 C 13.597656 7.523438 13.636719 7.523438 13.675781 7.523438 C 13.675781 7.546875 13.675781 7.570312 13.675781 7.589844 C 13.707031 7.589844 13.742188 7.589844 13.773438 7.589844 C 13.773438 7.613281 13.773438 7.636719 13.773438 7.660156 C 13.796875 7.675781 13.828125 7.679688 13.859375 7.675781 C 13.859375 7.695312 13.859375 7.71875 13.859375 7.742188 C 13.898438 7.742188 13.9375 7.742188 13.976562 7.742188 C 13.976562 7.765625 13.976562 7.785156 13.976562 7.808594 C 14.015625 7.808594 14.054688 7.808594 14.089844 7.808594 C 14.089844 7.820312 14.089844 7.832031 14.089844 7.839844 C 14.074219 7.882812 14.089844 7.898438 14.140625 7.890625 C 14.140625 7.902344 14.140625 7.914062 14.140625 7.925781 C 14.132812 7.925781 14.128906 7.929688 14.125 7.941406 C 14.15625 7.957031 14.191406 7.964844 14.226562 7.957031 C 14.226562 7.980469 14.226562 8.003906 14.226562 8.023438 C 14.257812 8.023438 14.292969 8.023438 14.324219 8.023438 C 14.332031 8.074219 14.351562 8.117188 14.382812 8.160156 C 14.410156 8.171875 14.441406 8.179688 14.476562 8.175781 C 14.472656 8.195312 14.476562 8.210938 14.492188 8.226562 C 14.5 8.222656 14.507812 8.21875 14.507812 8.207031 C 14.515625 8.207031 14.519531 8.207031 14.523438 8.207031 C 14.523438 8.242188 14.523438 8.273438 14.523438 8.308594 C 14.558594 8.308594 14.589844 8.308594 14.625 8.308594 C 14.621094 8.332031 14.625 8.355469 14.640625 8.375 C 14.652344 8.371094 14.65625 8.367188 14.660156 8.359375 C 14.675781 8.359375 14.691406 8.359375 14.707031 8.359375 C 14.710938 8.378906 14.707031 8.398438 14.691406 8.417969 C 14.730469 8.425781 14.769531 8.425781 14.808594 8.425781 C 14.808594 8.441406 14.808594 8.457031 14.808594 8.476562 C 14.800781 8.476562 14.792969 8.480469 14.792969 8.492188 C 14.8125 8.507812 14.832031 8.511719 14.859375 8.507812 C 14.859375 8.523438 14.859375 8.542969 14.859375 8.558594 C 14.871094 8.574219 14.886719 8.578125 14.910156 8.574219 C 14.910156 8.589844 14.910156 8.609375 14.910156 8.625 C 14.886719 8.644531 14.894531 8.65625 14.925781 8.660156 C 14.921875 8.710938 14.941406 8.738281 14.992188 8.742188 C 14.988281 8.769531 14.992188 8.789062 15.007812 8.808594 C 15.035156 8.820312 15.046875 8.84375 15.042969 8.875 C 15.058594 8.875 15.074219 8.875 15.089844 8.875 C 15.089844 8.898438 15.09375 8.921875 15.101562 8.941406 C 15.160156 9.003906 15.210938 9.070312 15.257812 9.140625 C 15.269531 9.140625 15.273438 9.132812 15.273438 9.125 C 15.28125 9.125 15.285156 9.125 15.292969 9.125 C 15.285156 9.164062 15.296875 9.191406 15.324219 9.207031 C 15.332031 9.207031 15.335938 9.207031 15.339844 9.207031 C 15.335938 9.238281 15.34375 9.265625 15.359375 9.292969 C 15.367188 9.289062 15.375 9.285156 15.375 9.273438 C 15.378906 9.273438 15.386719 9.273438 15.390625 9.273438 C 15.386719 9.304688 15.390625 9.332031 15.410156 9.359375 C 15.417969 9.355469 15.425781 9.351562 15.425781 9.339844 C 15.457031 9.382812 15.46875 9.433594 15.457031 9.492188 C 15.476562 9.492188 15.492188 9.492188 15.507812 9.492188 C 15.507812 9.515625 15.507812 9.535156 15.507812 9.558594 C 15.523438 9.558594 15.542969 9.558594 15.558594 9.558594 C 15.558594 9.601562 15.558594 9.648438 15.558594 9.691406 C 15.570312 9.71875 15.59375 9.730469 15.625 9.726562 C 15.625 9.757812 15.625 9.792969 15.625 9.824219 C 15.609375 9.832031 15.605469 9.84375 15.609375 9.859375 C 15.632812 9.914062 15.65625 9.96875 15.675781 10.023438 C 15.714844 10.179688 15.746094 10.335938 15.773438 10.492188 C 15.78125 10.492188 15.785156 10.492188 15.792969 10.492188 C 15.792969 10.796875 15.792969 11.101562 15.792969 11.410156 C 15.773438 11.410156 15.757812 11.410156 15.742188 11.410156 C 15.746094 11.527344 15.742188 11.640625 15.726562 11.757812 C 15.714844 11.761719 15.707031 11.765625 15.699219 11.773438 C 15.695312 11.84375 15.6875 11.910156 15.675781 11.976562 C 15.652344 12.023438 15.628906 12.074219 15.609375 12.125 C 15.605469 12.140625 15.609375 12.152344 15.625 12.160156 C 15.625 12.203125 15.625 12.246094 15.625 12.292969 C 15.601562 12.292969 15.582031 12.292969 15.558594 12.292969 C 15.558594 12.335938 15.558594 12.378906 15.558594 12.425781 C 15.542969 12.425781 15.523438 12.425781 15.507812 12.425781 C 15.507812 12.445312 15.507812 12.46875 15.507812 12.492188 C 15.492188 12.492188 15.476562 12.492188 15.457031 12.492188 C 15.46875 12.550781 15.457031 12.601562 15.425781 12.640625 C 15.425781 12.632812 15.417969 12.628906 15.410156 12.625 C 15.390625 12.652344 15.386719 12.679688 15.390625 12.707031 C 15.386719 12.707031 15.378906 12.707031 15.375 12.707031 C 15.375 12.699219 15.367188 12.695312 15.359375 12.691406 C 15.34375 12.734375 15.335938 12.777344 15.339844 12.824219 C 15.324219 12.824219 15.308594 12.824219 15.292969 12.824219 C 15.296875 12.851562 15.289062 12.871094 15.273438 12.890625 C 15.253906 12.921875 15.230469 12.949219 15.199219 12.976562 C 15.191406 12.996094 15.1875 13.019531 15.191406 13.042969 C 15.175781 13.042969 15.160156 13.042969 15.140625 13.042969 C 15.140625 13.085938 15.140625 13.128906 15.140625 13.175781 C 15.125 13.175781 15.109375 13.175781 15.089844 13.175781 C 15.089844 13.203125 15.089844 13.230469 15.089844 13.257812 C 15.074219 13.257812 15.058594 13.257812 15.042969 13.257812 C 15.046875 13.292969 15.035156 13.3125 15.007812 13.324219 C 14.980469 13.339844 14.96875 13.359375 14.976562 13.390625 C 14.945312 13.390625 14.917969 13.390625 14.890625 13.390625 C 14.886719 13.414062 14.894531 13.429688 14.910156 13.441406 C 14.910156 13.457031 14.910156 13.476562 14.910156 13.492188 C 14.890625 13.492188 14.875 13.492188 14.859375 13.492188 C 14.859375 13.515625 14.859375 13.535156 14.859375 13.558594 C 14.835938 13.554688 14.8125 13.558594 14.792969 13.566406 C 14.804688 13.582031 14.8125 13.601562 14.808594 13.625 C 14.792969 13.625 14.773438 13.625 14.757812 13.625 C 14.757812 13.652344 14.757812 13.679688 14.757812 13.707031 C 14.742188 13.707031 14.726562 13.707031 14.707031 13.707031 C 14.691406 13.699219 14.6875 13.710938 14.691406 13.742188 C 14.640625 13.734375 14.621094 13.757812 14.625 13.808594 C 14.597656 13.804688 14.570312 13.808594 14.542969 13.816406 C 14.527344 13.851562 14.503906 13.882812 14.476562 13.910156 C 14.453125 13.945312 14.4375 13.984375 14.425781 14.023438 C 14.398438 14.023438 14.367188 14.023438 14.339844 14.035156 C 14.332031 14.066406 14.3125 14.089844 14.285156 14.109375 C 14.273438 14.128906 14.273438 14.152344 14.273438 14.175781 C 14.257812 14.175781 14.242188 14.175781 14.226562 14.175781 C 14.226562 14.195312 14.226562 14.21875 14.226562 14.242188 C 14.191406 14.238281 14.15625 14.242188 14.125 14.257812 C 14.128906 14.269531 14.132812 14.273438 14.140625 14.273438 C 14.140625 14.292969 14.140625 14.308594 14.140625 14.324219 C 14.121094 14.320312 14.101562 14.328125 14.089844 14.339844 C 14.089844 14.359375 14.089844 14.375 14.089844 14.390625 C 14.054688 14.390625 14.015625 14.390625 13.976562 14.390625 C 13.976562 14.417969 13.976562 14.445312 13.976562 14.476562 C 13.945312 14.476562 13.917969 14.476562 13.890625 14.476562 C 13.890625 14.503906 13.890625 14.53125 13.890625 14.558594 C 13.875 14.558594 13.859375 14.558594 13.839844 14.558594 C 13.839844 14.582031 13.839844 14.601562 13.839844 14.625 C 13.808594 14.625 13.773438 14.625 13.742188 14.625 C 13.742188 14.648438 13.742188 14.667969 13.742188 14.691406 C 13.726562 14.691406 13.707031 14.691406 13.691406 14.691406 C 13.691406 14.683594 13.683594 14.675781 13.675781 14.675781 C 13.660156 14.695312 13.652344 14.71875 13.660156 14.742188 C 13.597656 14.726562 13.5625 14.75 13.558594 14.808594 C 13.523438 14.808594 13.492188 14.808594 13.457031 14.808594 C 13.457031 14.832031 13.457031 14.851562 13.457031 14.875 C 13.421875 14.871094 13.390625 14.875 13.359375 14.890625 C 13.359375 14.902344 13.367188 14.90625 13.375 14.910156 C 13.375 14.917969 13.375 14.929688 13.375 14.941406 C 13.335938 14.941406 13.296875 14.941406 13.257812 14.941406 C 13.257812 14.96875 13.257812 14.996094 13.257812 15.023438 C 13.242188 15.023438 13.226562 15.023438 13.207031 15.023438 C 13.207031 15.046875 13.207031 15.070312 13.207031 15.089844 C 13.175781 15.089844 13.140625 15.089844 13.109375 15.089844 C 13.109375 15.113281 13.109375 15.136719 13.109375 15.160156 C 13.074219 15.160156 13.042969 15.160156 13.007812 15.160156 C 13.007812 15.1875 13.007812 15.214844 13.007812 15.242188 C 12.96875 15.242188 12.929688 15.242188 12.890625 15.242188 C 12.890625 15.265625 12.890625 15.285156 12.890625 15.308594 C 12.863281 15.304688 12.835938 15.308594 12.808594 15.324219 C 12.808594 15.335938 12.816406 15.339844 12.824219 15.339844 C 12.824219 15.359375 12.824219 15.375 12.824219 15.390625 C 12.777344 15.382812 12.738281 15.394531 12.707031 15.425781 C 12.714844 15.4375 12.71875 15.445312 12.726562 15.457031 C 12.6875 15.472656 12.648438 15.480469 12.609375 15.476562 C 12.609375 15.496094 12.609375 15.519531 12.609375 15.542969 C 12.5625 15.542969 12.519531 15.542969 12.476562 15.542969 C 12.472656 15.53125 12.46875 15.527344 12.457031 15.523438 C 12.441406 15.550781 12.4375 15.578125 12.441406 15.609375 C 12.417969 15.609375 12.398438 15.609375 12.375 15.609375 C 12.347656 15.625 12.335938 15.652344 12.339844 15.691406 C 12.3125 15.691406 12.285156 15.691406 12.257812 15.691406 C 12.242188 15.683594 12.238281 15.691406 12.242188 15.726562 C 12.207031 15.722656 12.171875 15.726562 12.140625 15.742188 C 12.125 15.753906 12.121094 15.773438 12.125 15.792969 C 12.078125 15.785156 12.046875 15.800781 12.023438 15.839844 C 10.519531 15.859375 9.015625 15.863281 7.507812 15.859375 C 7.507812 15.847656 7.507812 15.835938 7.507812 15.824219 C 7.535156 15.828125 7.554688 15.816406 7.558594 15.792969 C 7.558594 15.773438 7.558594 15.757812 7.558594 15.742188 C 7.628906 15.742188 7.703125 15.742188 7.773438 15.742188 C 7.773438 15.71875 7.773438 15.695312 7.773438 15.675781 C 7.820312 15.675781 7.863281 15.675781 7.910156 15.675781 C 7.925781 15.65625 7.929688 15.636719 7.925781 15.609375 C 7.980469 15.609375 8.035156 15.609375 8.089844 15.609375 C 8.089844 15.582031 8.089844 15.554688 8.089844 15.523438 C 8.136719 15.523438 8.179688 15.523438 8.226562 15.523438 C 8.226562 15.496094 8.226562 15.46875 8.226562 15.441406 C 8.257812 15.441406 8.292969 15.441406 8.324219 15.441406 C 8.324219 15.417969 8.324219 15.398438 8.324219 15.375 C 8.375 15.375 8.425781 15.375 8.476562 15.375 C 8.492188 15.355469 8.496094 15.335938 8.492188 15.308594 C 8.519531 15.308594 8.546875 15.308594 8.574219 15.308594 C 8.589844 15.300781 8.59375 15.292969 8.589844 15.273438 C 8.636719 15.277344 8.679688 15.273438 8.726562 15.265625 C 8.753906 15.226562 8.792969 15.203125 8.839844 15.191406 C 8.855469 15.171875 8.859375 15.148438 8.859375 15.125 C 8.886719 15.128906 8.914062 15.125 8.941406 15.109375 C 8.941406 15.097656 8.933594 15.09375 8.925781 15.089844 C 8.925781 15.074219 8.925781 15.058594 8.925781 15.042969 C 8.980469 15.042969 9.035156 15.042969 9.089844 15.042969 C 9.089844 15.019531 9.089844 14.996094 9.089844 14.976562 C 9.128906 14.976562 9.167969 14.976562 9.207031 14.976562 C 9.207031 14.953125 9.207031 14.929688 9.207031 14.910156 C 9.242188 14.914062 9.269531 14.90625 9.292969 14.890625 C 9.308594 14.878906 9.3125 14.863281 9.308594 14.839844 C 9.339844 14.847656 9.367188 14.839844 9.390625 14.824219 C 9.394531 14.808594 9.390625 14.796875 9.375 14.792969 C 9.375 14.785156 9.375 14.78125 9.375 14.773438 C 9.414062 14.761719 9.453125 14.757812 9.492188 14.757812 C 9.507812 14.742188 9.511719 14.71875 9.507812 14.691406 C 9.558594 14.695312 9.609375 14.691406 9.660156 14.675781 C 9.65625 14.664062 9.652344 14.660156 9.640625 14.660156 C 9.640625 14.640625 9.640625 14.625 9.640625 14.609375 C 9.679688 14.609375 9.71875 14.609375 9.757812 14.609375 C 9.757812 14.585938 9.757812 14.5625 9.757812 14.542969 C 9.792969 14.542969 9.824219 14.542969 9.859375 14.542969 C 9.859375 14.515625 9.859375 14.484375 9.859375 14.457031 C 9.886719 14.457031 9.914062 14.457031 9.941406 14.457031 C 9.941406 14.429688 9.941406 14.402344 9.941406 14.375 C 9.957031 14.375 9.976562 14.375 9.992188 14.375 C 9.992188 14.382812 10 14.390625 10.007812 14.390625 C 10.023438 14.378906 10.027344 14.359375 10.023438 14.339844 C 10.085938 14.355469 10.121094 14.335938 10.125 14.273438 C 10.1875 14.289062 10.21875 14.269531 10.226562 14.207031 C 10.289062 14.222656 10.320312 14.199219 10.324219 14.140625 C 10.351562 14.140625 10.378906 14.140625 10.410156 14.140625 C 10.410156 14.125 10.410156 14.109375 10.410156 14.089844 C 10.410156 14.082031 10.410156 14.070312 10.410156 14.058594 C 10.429688 14.058594 10.453125 14.058594 10.476562 14.058594 C 10.476562 14.035156 10.476562 14.015625 10.476562 13.992188 C 10.511719 13.996094 10.546875 13.992188 10.574219 13.976562 C 10.574219 13.953125 10.574219 13.929688 10.574219 13.910156 C 10.589844 13.910156 10.609375 13.910156 10.625 13.910156 C 10.625 13.886719 10.625 13.863281 10.625 13.839844 C 10.660156 13.839844 10.691406 13.839844 10.726562 13.839844 C 10.726562 13.8125 10.726562 13.785156 10.726562 13.757812 C 10.742188 13.757812 10.757812 13.757812 10.773438 13.757812 C 10.773438 13.734375 10.773438 13.714844 10.773438 13.691406 C 10.804688 13.691406 10.832031 13.691406 10.859375 13.691406 C 10.902344 13.652344 10.925781 13.605469 10.925781 13.542969 C 10.949219 13.519531 10.972656 13.519531 11 13.542969 C 11.007812 13.515625 11.011719 13.488281 11.007812 13.457031 C 11.03125 13.460938 11.054688 13.457031 11.074219 13.449219 C 11.054688 13.433594 11.054688 13.417969 11.074219 13.398438 C 11.109375 13.390625 11.140625 13.390625 11.175781 13.390625 C 11.175781 13.371094 11.175781 13.347656 11.175781 13.324219 C 11.191406 13.324219 11.207031 13.324219 11.226562 13.324219 C 11.21875 13.285156 11.230469 13.257812 11.257812 13.242188 C 11.257812 13.25 11.265625 13.257812 11.273438 13.257812 C 11.289062 13.246094 11.296875 13.226562 11.292969 13.207031 C 11.324219 13.210938 11.355469 13.207031 11.382812 13.191406 C 11.425781 13.125 11.460938 13.058594 11.492188 12.992188 C 11.507812 12.992188 11.523438 12.992188 11.542969 12.992188 C 11.542969 12.96875 11.542969 12.945312 11.542969 12.925781 C 11.574219 12.925781 11.609375 12.925781 11.640625 12.925781 C 11.640625 12.902344 11.640625 12.878906 11.640625 12.859375 C 11.660156 12.863281 11.679688 12.855469 11.691406 12.839844 C 11.722656 12.792969 11.757812 12.742188 11.792969 12.691406 C 11.789062 12.679688 11.785156 12.675781 11.773438 12.675781 C 11.773438 12.660156 11.773438 12.640625 11.773438 12.625 C 11.800781 12.628906 11.820312 12.625 11.839844 12.609375 C 11.839844 12.597656 11.835938 12.59375 11.824219 12.589844 C 11.824219 12.574219 11.824219 12.558594 11.824219 12.542969 C 11.847656 12.542969 11.871094 12.542969 11.890625 12.535156 C 11.878906 12.515625 11.871094 12.496094 11.875 12.476562 C 11.898438 12.480469 11.921875 12.472656 11.941406 12.457031 C 11.921875 12.4375 11.921875 12.417969 11.941406 12.398438 C 11.96875 12.390625 11.996094 12.390625 12.023438 12.390625 C 12.023438 12.347656 12.023438 12.304688 12.023438 12.257812 C 12.042969 12.257812 12.058594 12.257812 12.074219 12.257812 C 12.074219 12.230469 12.074219 12.203125 12.074219 12.175781 C 12.089844 12.175781 12.109375 12.175781 12.125 12.175781 C 12.125 12.183594 12.132812 12.191406 12.140625 12.191406 C 12.179688 12.148438 12.21875 12.105469 12.25 12.058594 C 12.269531 12.011719 12.289062 11.96875 12.308594 11.925781 C 12.324219 11.925781 12.339844 11.925781 12.359375 11.925781 C 12.359375 11.902344 12.359375 11.878906 12.359375 11.859375 C 12.375 11.859375 12.390625 11.859375 12.410156 11.859375 C 12.410156 11.808594 12.410156 11.757812 12.410156 11.707031 C 12.425781 11.707031 12.441406 11.707031 12.457031 11.707031 C 12.457031 11.6875 12.457031 11.664062 12.457031 11.640625 C 12.476562 11.644531 12.496094 11.640625 12.507812 11.625 C 12.507812 11.613281 12.5 11.609375 12.492188 11.609375 C 12.492188 11.5625 12.492188 11.519531 12.492188 11.476562 C 12.507812 11.476562 12.523438 11.476562 12.542969 11.476562 C 12.542969 11.453125 12.542969 11.429688 12.542969 11.410156 C 12.558594 11.410156 12.574219 11.410156 12.589844 11.410156 C 12.589844 11.371094 12.589844 11.332031 12.589844 11.292969 C 12.613281 11.292969 12.636719 11.292969 12.660156 11.292969 C 12.660156 11.246094 12.660156 11.203125 12.660156 11.160156 C 12.6875 11.160156 12.703125 11.152344 12.707031 11.125 C 12.707031 11.0625 12.707031 11.003906 12.707031 10.941406 C 12.726562 10.941406 12.742188 10.941406 12.757812 10.941406 C 12.757812 10.839844 12.757812 10.742188 12.757812 10.640625 C 12.773438 10.640625 12.792969 10.640625 12.808594 10.640625 C 12.808594 10.445312 12.808594 10.253906 12.808594 10.058594 C 12.792969 10.058594 12.773438 10.058594 12.757812 10.058594 C 12.761719 9.992188 12.757812 9.933594 12.742188 9.875 C 12.730469 9.875 12.71875 9.875 12.707031 9.875 C 12.714844 9.816406 12.707031 9.773438 12.691406 9.742188 C 12.675781 9.742188 12.660156 9.742188 12.640625 9.742188 C 12.640625 9.691406 12.640625 9.640625 12.640625 9.589844 C 12.625 9.589844 12.609375 9.589844 12.589844 9.589844 C 12.589844 9.542969 12.589844 9.492188 12.589844 9.441406 C 12.574219 9.441406 12.558594 9.441406 12.542969 9.441406 C 12.542969 9.417969 12.542969 9.398438 12.542969 9.375 C 12.523438 9.375 12.507812 9.375 12.492188 9.375 C 12.492188 9.351562 12.492188 9.332031 12.492188 9.308594 C 12.480469 9.292969 12.464844 9.289062 12.441406 9.292969 C 12.441406 9.253906 12.441406 9.214844 12.441406 9.175781 C 12.4375 9.148438 12.417969 9.136719 12.390625 9.140625 C 12.390625 9.128906 12.390625 9.121094 12.390625 9.109375 C 12.375 9.070312 12.363281 9.03125 12.359375 8.992188 C 12.339844 8.992188 12.324219 8.992188 12.308594 8.992188 C 12.285156 8.949219 12.265625 8.902344 12.242188 8.859375 C 12.21875 8.84375 12.191406 8.835938 12.160156 8.839844 C 12.160156 8.824219 12.15625 8.808594 12.148438 8.792969 C 12.109375 8.742188 12.074219 8.695312 12.042969 8.640625 C 12.011719 8.628906 11.976562 8.621094 11.941406 8.625 C 11.929688 8.597656 11.90625 8.585938 11.875 8.589844 C 11.871094 8.570312 11.878906 8.550781 11.890625 8.535156 C 11.871094 8.523438 11.847656 8.523438 11.824219 8.523438 C 11.824219 8.507812 11.824219 8.492188 11.824219 8.476562 C 11.835938 8.472656 11.839844 8.46875 11.839844 8.457031 C 11.804688 8.441406 11.765625 8.4375 11.726562 8.441406 C 11.726562 8.429688 11.726562 8.417969 11.726562 8.410156 C 11.738281 8.398438 11.746094 8.378906 11.742188 8.359375 C 11.714844 8.359375 11.6875 8.359375 11.660156 8.359375 C 11.664062 8.324219 11.652344 8.304688 11.625 8.292969 C 11.597656 8.292969 11.570312 8.292969 11.542969 8.292969 C 11.542969 8.269531 11.542969 8.246094 11.542969 8.226562 C 11.523438 8.226562 11.507812 8.226562 11.492188 8.226562 C 11.492188 8.195312 11.492188 8.167969 11.492188 8.140625 C 11.457031 8.140625 11.425781 8.140625 11.390625 8.140625 C 11.390625 8.121094 11.390625 8.097656 11.390625 8.074219 C 11.359375 8.074219 11.324219 8.074219 11.292969 8.074219 C 11.292969 8.046875 11.292969 8.019531 11.292969 7.992188 C 11.253906 7.992188 11.214844 7.992188 11.175781 7.992188 C 11.175781 7.980469 11.175781 7.96875 11.175781 7.957031 C 11.152344 7.929688 11.117188 7.917969 11.074219 7.925781 C 11.074219 7.914062 11.074219 7.902344 11.074219 7.890625 C 11.058594 7.863281 11.03125 7.851562 10.992188 7.859375 C 10.992188 7.792969 10.957031 7.765625 10.890625 7.773438 C 10.894531 7.753906 10.890625 7.734375 10.875 7.714844 C 10.832031 7.707031 10.785156 7.707031 10.742188 7.707031 C 10.746094 7.6875 10.738281 7.671875 10.726562 7.660156 C 10.691406 7.644531 10.660156 7.636719 10.625 7.640625 C 10.628906 7.621094 10.625 7.605469 10.609375 7.589844 C 10.597656 7.59375 10.59375 7.597656 10.589844 7.609375 C 10.546875 7.609375 10.503906 7.609375 10.457031 7.609375 C 10.457031 7.582031 10.457031 7.554688 10.457031 7.523438 C 10.425781 7.523438 10.390625 7.523438 10.359375 7.523438 C 10.359375 7.503906 10.359375 7.480469 10.359375 7.457031 C 10.304688 7.457031 10.246094 7.457031 10.191406 7.457031 C 10.191406 7.441406 10.191406 7.425781 10.191406 7.410156 C 10.199219 7.40625 10.207031 7.402344 10.207031 7.390625 C 10.183594 7.375 10.15625 7.371094 10.125 7.375 C 10.125 7.347656 10.125 7.320312 10.125 7.292969 C 10.074219 7.292969 10.023438 7.292969 9.976562 7.292969 C 9.976562 7.269531 9.976562 7.246094 9.976562 7.226562 C 9.9375 7.226562 9.898438 7.226562 9.859375 7.226562 C 9.859375 7.203125 9.859375 7.179688 9.859375 7.160156 C 9.804688 7.160156 9.746094 7.160156 9.691406 7.160156 C 9.691406 7.148438 9.691406 7.136719 9.691406 7.125 C 9.707031 7.113281 9.710938 7.097656 9.707031 7.074219 C 9.660156 7.074219 9.609375 7.074219 9.558594 7.074219 C 9.558594 7.054688 9.558594 7.03125 9.558594 7.007812 C 9.507812 7.007812 9.457031 7.007812 9.410156 7.007812 C 9.410156 6.984375 9.410156 6.964844 9.410156 6.941406 C 9.375 6.941406 9.339844 6.941406 9.308594 6.941406 C 9.3125 6.914062 9.304688 6.890625 9.292969 6.867188 C 9.21875 6.867188 9.152344 6.855469 9.089844 6.824219 C 9.0625 6.792969 9.023438 6.78125 8.976562 6.792969 C 8.976562 6.78125 8.976562 6.769531 8.976562 6.757812 C 8.988281 6.746094 8.996094 6.730469 8.992188 6.707031 C 8.945312 6.714844 8.902344 6.707031 8.859375 6.691406 C 8.851562 6.679688 8.847656 6.667969 8.839844 6.660156 C 8.78125 6.648438 8.726562 6.632812 8.675781 6.609375 C 8.628906 6.609375 8.585938 6.609375 8.542969 6.609375 C 8.546875 6.578125 8.539062 6.550781 8.523438 6.523438 C 8.515625 6.527344 8.507812 6.53125 8.507812 6.542969 C 8.46875 6.542969 8.429688 6.542969 8.390625 6.542969 C 8.398438 6.503906 8.386719 6.476562 8.359375 6.457031 C 8.3125 6.457031 8.269531 6.457031 8.226562 6.457031 C 8.226562 6.4375 8.226562 6.414062 8.226562 6.390625 C 8.183594 6.375 8.140625 6.371094 8.089844 6.375 C 8.097656 6.347656 8.089844 6.324219 8.074219 6.308594 C 8.023438 6.308594 7.976562 6.308594 7.925781 6.308594 C 7.925781 6.285156 7.925781 6.265625 7.925781 6.242188 C 7.875 6.242188 7.824219 6.242188 7.773438 6.242188 C 7.773438 6.214844 7.773438 6.1875 7.773438 6.160156 C 7.742188 6.160156 7.707031 6.160156 7.675781 6.160156 C 7.675781 6.136719 7.675781 6.113281 7.675781 6.089844 C 7.621094 6.089844 7.5625 6.089844 7.507812 6.089844 C 7.507812 6.082031 7.507812 6.070312 7.507812 6.058594 C 7.523438 6.046875 7.527344 6.03125 7.523438 6.007812 C 7.492188 6.007812 7.457031 6.007812 7.425781 6.007812 C 7.425781 5.984375 7.425781 5.964844 7.425781 5.941406 C 7.375 5.941406 7.324219 5.941406 7.273438 5.941406 C 7.277344 5.917969 7.273438 5.898438 7.257812 5.882812 C 7.226562 5.875 7.191406 5.871094 7.160156 5.875 C 7.160156 5.847656 7.160156 5.820312 7.160156 5.792969 C 7.109375 5.792969 7.058594 5.792969 7.007812 5.792969 C 7.007812 5.773438 7.007812 5.757812 7.007812 5.742188 C 6.976562 5.742188 6.941406 5.742188 6.910156 5.742188 C 6.914062 5.71875 6.90625 5.703125 6.890625 5.691406 C 6.859375 5.691406 6.824219 5.691406 6.792969 5.691406 C 6.792969 5.667969 6.792969 5.648438 6.792969 5.625 C 6.757812 5.625 6.726562 5.625 6.691406 5.625 C 6.691406 5.597656 6.691406 5.570312 6.691406 5.542969 C 6.660156 5.542969 6.625 5.542969 6.589844 5.542969 C 6.597656 5.507812 6.585938 5.488281 6.558594 5.476562 C 6.5625 5.441406 6.558594 5.414062 6.542969 5.390625 C 6.515625 5.390625 6.484375 5.390625 6.457031 5.390625 C 6.457031 5.363281 6.457031 5.335938 6.457031 5.308594 C 6.425781 5.308594 6.390625 5.308594 6.359375 5.308594 C 6.359375 5.285156 6.359375 5.265625 6.359375 5.242188 C 6.339844 5.242188 6.324219 5.242188 6.308594 5.242188 C 6.3125 5.214844 6.308594 5.191406 6.292969 5.175781 C 6.273438 5.175781 6.257812 5.175781 6.242188 5.175781 C 6.242188 5.152344 6.242188 5.128906 6.242188 5.109375 C 6.226562 5.109375 6.207031 5.109375 6.191406 5.109375 C 6.191406 5.082031 6.191406 5.054688 6.191406 5.023438 C 6.152344 5.023438 6.113281 5.023438 6.074219 5.023438 C 6.074219 5.015625 6.074219 5.003906 6.074219 4.992188 C 6.085938 4.992188 6.089844 4.984375 6.089844 4.976562 C 6.070312 4.960938 6.050781 4.953125 6.023438 4.957031 C 6.023438 4.917969 6.023438 4.878906 6.023438 4.839844 C 6.035156 4.839844 6.039062 4.835938 6.042969 4.824219 C 6.015625 4.800781 6 4.773438 5.992188 4.742188 C 5.953125 4.6875 5.90625 4.636719 5.859375 4.589844 C 5.847656 4.527344 5.835938 4.46875 5.824219 4.410156 C 5.8125 4.410156 5.804688 4.410156 5.792969 4.410156 C 5.792969 4.195312 5.792969 3.984375 5.792969 3.773438 C 5.808594 3.773438 5.824219 3.773438 5.839844 3.773438 C 5.839844 3.703125 5.839844 3.628906 5.839844 3.558594 C 5.859375 3.5625 5.875 3.558594 5.890625 3.550781 C 5.902344 3.519531 5.921875 3.492188 5.949219 3.476562 C 5.957031 3.425781 5.960938 3.375 5.957031 3.324219 C 5.972656 3.300781 5.980469 3.273438 5.976562 3.242188 C 5.992188 3.242188 6.007812 3.242188 6.023438 3.242188 C 6.023438 3.21875 6.023438 3.195312 6.023438 3.175781 C 6.042969 3.175781 6.058594 3.175781 6.074219 3.175781 C 6.074219 3.152344 6.074219 3.128906 6.074219 3.109375 C 6.089844 3.109375 6.109375 3.109375 6.125 3.109375 C 6.152344 3.089844 6.175781 3.066406 6.191406 3.042969 C 6.191406 3.023438 6.191406 3.007812 6.191406 2.992188 C 6.207031 2.992188 6.226562 2.992188 6.242188 2.992188 C 6.242188 2.96875 6.242188 2.945312 6.242188 2.925781 C 6.277344 2.925781 6.308594 2.925781 6.339844 2.917969 C 6.382812 2.867188 6.417969 2.816406 6.449219 2.757812 C 6.457031 2.742188 6.460938 2.726562 6.457031 2.707031 C 6.492188 2.707031 6.523438 2.707031 6.558594 2.707031 C 6.554688 2.675781 6.566406 2.644531 6.589844 2.625 C 6.589844 2.613281 6.589844 2.601562 6.589844 2.589844 C 6.589844 2.582031 6.589844 2.570312 6.589844 2.558594 C 6.628906 2.5625 6.664062 2.558594 6.691406 2.542969 C 6.691406 2.519531 6.691406 2.496094 6.691406 2.476562 C 6.726562 2.476562 6.757812 2.476562 6.792969 2.476562 C 6.792969 2.453125 6.792969 2.429688 6.792969 2.410156 C 6.820312 2.410156 6.847656 2.410156 6.875 2.410156 C 6.902344 2.390625 6.914062 2.363281 6.910156 2.324219 C 6.9375 2.324219 6.964844 2.324219 6.992188 2.324219 C 6.992188 2.335938 7 2.339844 7.007812 2.339844 C 7.03125 2.300781 7.054688 2.261719 7.074219 2.226562 C 7.121094 2.226562 7.164062 2.226562 7.207031 2.214844 C 7.21875 2.210938 7.222656 2.203125 7.226562 2.191406 C 7.226562 2.175781 7.226562 2.160156 7.226562 2.140625 C 7.289062 2.15625 7.320312 2.132812 7.324219 2.074219 C 7.386719 2.089844 7.421875 2.066406 7.425781 2.007812 C 7.460938 2.011719 7.492188 2.007812 7.523438 1.992188 C 7.523438 1.980469 7.515625 1.976562 7.507812 1.976562 C 7.507812 1.957031 7.507812 1.941406 7.507812 1.925781 C 7.5625 1.925781 7.621094 1.925781 7.675781 1.925781 C 7.675781 1.902344 7.675781 1.878906 7.675781 1.859375 C 7.707031 1.859375 7.742188 1.859375 7.773438 1.859375 C 7.773438 1.835938 7.773438 1.8125 7.773438 1.792969 C 7.808594 1.792969 7.839844 1.792969 7.875 1.792969 C 7.875 1.765625 7.875 1.734375 7.875 1.707031 C 7.917969 1.707031 7.964844 1.707031 8.007812 1.707031 C 8.035156 1.695312 8.046875 1.671875 8.042969 1.640625 C 8.085938 1.648438 8.132812 1.640625 8.175781 1.625 C 8.171875 1.613281 8.167969 1.609375 8.160156 1.609375 C 8.160156 1.589844 8.160156 1.574219 8.160156 1.558594 C 8.199219 1.5625 8.238281 1.558594 8.273438 1.542969 C 8.273438 1.523438 8.273438 1.507812 8.273438 1.492188 C 8.324219 1.492188 8.375 1.492188 8.425781 1.492188 C 8.441406 1.472656 8.445312 1.453125 8.441406 1.425781 C 8.492188 1.425781 8.542969 1.425781 8.589844 1.425781 C 8.589844 1.398438 8.589844 1.371094 8.589844 1.339844 C 8.621094 1.339844 8.648438 1.339844 8.675781 1.339844 C 8.675781 1.351562 8.679688 1.355469 8.691406 1.359375 C 8.707031 1.339844 8.710938 1.316406 8.707031 1.292969 C 8.753906 1.292969 8.796875 1.292969 8.839844 1.285156 C 8.855469 1.265625 8.859375 1.246094 8.859375 1.226562 C 8.910156 1.234375 8.957031 1.222656 8.992188 1.191406 C 8.984375 1.179688 8.980469 1.167969 8.976562 1.160156 C 9.03125 1.160156 9.085938 1.160156 9.140625 1.148438 C 9.15625 1.132812 9.160156 1.113281 9.160156 1.089844 C 9.210938 1.101562 9.257812 1.089844 9.292969 1.058594 C 9.308594 1.046875 9.3125 1.03125 9.308594 1.007812 C 9.371094 1.023438 9.402344 1 9.410156 0.941406 C 9.457031 0.941406 9.507812 0.941406 9.558594 0.941406 C 9.558594 0.917969 9.558594 0.898438 9.558594 0.875 C 9.609375 0.875 9.660156 0.875 9.707031 0.875 C 9.710938 0.851562 9.707031 0.835938 9.691406 0.824219 C 9.691406 0.8125 9.691406 0.804688 9.691406 0.792969 C 9.746094 0.792969 9.804688 0.792969 9.859375 0.792969 C 9.859375 0.769531 9.859375 0.746094 9.859375 0.726562 C 9.910156 0.726562 9.957031 0.726562 10.007812 0.726562 C 10.007812 0.695312 10.007812 0.667969 10.007812 0.640625 C 10.058594 0.640625 10.109375 0.640625 10.160156 0.640625 C 10.175781 0.625 10.179688 0.601562 10.175781 0.574219 C 10.226562 0.574219 10.273438 0.574219 10.324219 0.574219 C 10.324219 0.554688 10.324219 0.53125 10.324219 0.507812 C 10.375 0.507812 10.425781 0.507812 10.476562 0.507812 C 10.476562 0.480469 10.476562 0.453125 10.476562 0.425781 C 10.507812 0.425781 10.542969 0.425781 10.574219 0.425781 C 10.574219 0.398438 10.574219 0.371094 10.574219 0.339844 C 10.621094 0.339844 10.664062 0.339844 10.707031 0.339844 C 10.710938 0.351562 10.714844 0.355469 10.726562 0.359375 C 10.738281 0.34375 10.746094 0.328125 10.742188 0.308594 C 10.789062 0.3125 10.832031 0.304688 10.875 0.292969 C 10.886719 0.269531 10.894531 0.25 10.898438 0.226562 C 10.941406 0.246094 10.984375 0.246094 11.023438 0.226562 C 11.039062 0.203125 11.042969 0.183594 11.042969 0.160156 C 12.21875 0.160156 13.398438 0.160156 14.574219 0.160156 C 14.574219 0.175781 14.574219 0.191406 14.574219 0.207031 Z M 14.574219 0.207031 "/>
</g>
</svg>
