<?xml version="1.0" encoding="UTF-8"?>
<!DOCTYPE svg PUBLIC "-//W3C//DTD SVG 1.1//EN" "http://www.w3.org/Graphics/SVG/1.1/DTD/svg11.dtd">
<svg xmlns="http://www.w3.org/2000/svg" version="1.1" width="960px" height="960px" style="shape-rendering:geometricPrecision; text-rendering:geometricPrecision; image-rendering:optimizeQuality; fill-rule:evenodd; clip-rule:evenodd" xmlns:xlink="http://www.w3.org/1999/xlink">
<g><path style="opacity:1" d="M 351.5,5.5 C 358.833,5.5 366.167,5.5 373.5,5.5C 373.573,8.94963 375.406,10.283 379,9.5C 382.594,10.283 384.427,8.94963 384.5,5.5C 417.5,5.5 450.5,5.5 483.5,5.5C 483.5,7.83333 483.5,10.1667 483.5,12.5C 482.833,12.5 482.167,12.5 481.5,12.5C 480.566,13.5676 480.232,14.901 480.5,16.5C 476.5,16.5 472.5,16.5 468.5,16.5C 468.5,18.1667 468.5,19.8333 468.5,21.5C 466.167,21.5 463.833,21.5 461.5,21.5C 460.549,22.9187 460.216,24.5853 460.5,26.5C 457.5,26.5 454.5,26.5 451.5,26.5C 451.5,27.8333 451.5,29.1667 451.5,30.5C 448.5,30.5 445.5,30.5 442.5,30.5C 441.549,31.9187 441.216,33.5853 441.5,35.5C 439.708,35.634 438.042,35.3007 436.5,34.5C 434.952,34.8212 434.285,35.8212 434.5,37.5C 431.813,37.3359 429.146,37.5026 426.5,38C 425.663,39.0113 425.33,40.1779 425.5,41.5C 422.813,41.3359 420.146,41.5026 417.5,42C 416.663,43.0113 416.33,44.1779 416.5,45.5C 414.396,45.2011 412.396,45.5344 410.5,46.5C 410.624,47.1067 410.957,47.44 411.5,47.5C 411.5,48.5 411.5,49.5 411.5,50.5C 408.482,50.3354 405.482,50.502 402.5,51C 401.663,52.0113 401.33,53.1779 401.5,54.5C 398.5,54.5 395.5,54.5 392.5,54.5C 392.5,55.8333 392.5,57.1667 392.5,58.5C 390.473,58.3379 388.473,58.5045 386.5,59C 385.663,60.0113 385.33,61.1779 385.5,62.5C 381.488,61.8874 379.488,63.5541 379.5,67.5C 376.753,67.1866 374.086,67.52 371.5,68.5C 371.624,69.1067 371.957,69.44 372.5,69.5C 372.5,70.5 372.5,71.5 372.5,72.5C 369.941,72.1984 367.607,72.5318 365.5,73.5C 365.5,74.5 365.5,75.5 365.5,76.5C 363.5,76.5 361.5,76.5 359.5,76.5C 358.566,77.5676 358.232,78.901 358.5,80.5C 356.5,80.5 354.5,80.5 352.5,80.5C 352.5,82.1667 352.5,83.8333 352.5,85.5C 351.167,85.5 349.833,85.5 348.5,85.5C 346.744,86.5521 346.077,88.2188 346.5,90.5C 344.833,90.5 343.167,90.5 341.5,90.5C 340.58,89.9326 340.246,90.5992 340.5,92.5C 338.409,92.3184 336.409,92.6518 334.5,93.5C 333.614,94.325 333.281,95.325 333.5,96.5C 330.712,96.0769 328.712,97.0769 327.5,99.5C 325.709,100.17 324.042,100.837 322.5,101.5C 322.5,102.833 322.5,104.167 322.5,105.5C 319.918,105.025 317.918,105.692 316.5,107.5C 315.082,109.308 313.082,109.975 310.5,109.5C 310.5,111.167 310.5,112.833 310.5,114.5C 308.167,114.5 305.833,114.5 303.5,114.5C 303.5,115.833 303.5,117.167 303.5,118.5C 302.5,118.5 301.5,118.5 300.5,118.5C 300.5,119.833 300.5,121.167 300.5,122.5C 298.833,122.5 297.167,122.5 295.5,122.5C 295.263,123.791 295.596,124.791 296.5,125.5C 296.5,126.167 296.5,126.833 296.5,127.5C 293.612,126.99 291.279,127.656 289.5,129.5C 289.5,130.167 289.5,130.833 289.5,131.5C 287.076,131.192 284.743,131.526 282.5,132.5C 282.624,133.107 282.957,133.44 283.5,133.5C 283.5,134.5 283.5,135.5 283.5,136.5C 282.209,136.263 281.209,136.596 280.5,137.5C 280.5,138.5 280.5,139.5 280.5,140.5C 278.167,140.5 275.833,140.5 273.5,140.5C 273.5,142.167 273.5,143.833 273.5,145.5C 272.833,145.5 272.167,145.5 271.5,145.5C 270.566,146.568 270.232,147.901 270.5,149.5C 268.833,149.5 267.167,149.5 265.5,149.5C 265.5,151.167 265.5,152.833 265.5,154.5C 264.5,154.5 263.5,154.5 262.5,154.5C 262.44,153.957 262.107,153.624 261.5,153.5C 260.673,155.162 259.507,156.495 258,157.5C 256.274,159.591 255.107,161.924 254.5,164.5C 252.712,164.215 251.045,164.548 249.5,165.5C 248.63,167.626 247.63,169.626 246.5,171.5C 246.833,172.167 247.167,172.833 247.5,173.5C 245.517,173.157 244.183,173.824 243.5,175.5C 243.5,176.5 243.5,177.5 243.5,178.5C 241.821,178.285 240.821,178.952 240.5,180.5C 240.5,181.167 240.5,181.833 240.5,182.5C 238.821,182.285 237.821,182.952 237.5,184.5C 237.5,185.167 237.5,185.833 237.5,186.5C 236.167,186.5 234.833,186.5 233.5,186.5C 233.5,187.833 233.5,189.167 233.5,190.5C 232.5,190.5 231.5,190.5 230.5,190.5C 230.5,193.5 230.5,196.5 230.5,199.5C 229.209,199.263 228.209,199.596 227.5,200.5C 227.5,201.833 227.5,203.167 227.5,204.5C 226.5,204.5 225.5,204.5 224.5,204.5C 224.5,206.167 224.5,207.833 224.5,209.5C 223.833,209.5 223.167,209.5 222.5,209.5C 221.495,211.704 221.162,214.704 221.5,218.5C 219.631,220.635 218.964,223.302 219.5,226.5C 218.5,226.5 217.5,226.5 216.5,226.5C 215.518,229.962 215.185,233.629 215.5,237.5C 214.5,237.5 213.5,237.5 212.5,237.5C 212.5,250.5 212.5,263.5 212.5,276.5C 213.5,276.5 214.5,276.5 215.5,276.5C 215.5,281.167 215.5,285.833 215.5,290.5C 216.5,290.5 217.5,290.5 218.5,290.5C 218.5,293.167 218.5,295.833 218.5,298.5C 219.5,298.5 220.5,298.5 221.5,298.5C 223.563,302.427 224.563,306.761 224.5,311.5C 225.5,311.5 226.5,311.5 227.5,311.5C 227.281,312.675 227.614,313.675 228.5,314.5C 229.107,314.376 229.44,314.043 229.5,313.5C 229.833,313.5 230.167,313.5 230.5,313.5C 230.216,315.415 230.549,317.081 231.5,318.5C 232.5,318.5 233.5,318.5 234.5,318.5C 234.5,319.833 234.5,321.167 234.5,322.5C 235.5,322.5 236.5,322.5 237.5,322.5C 237.34,324.199 237.506,325.866 238,327.5C 238.414,327.043 238.914,326.709 239.5,326.5C 240.452,328.045 240.785,329.712 240.5,331.5C 241.5,331.5 242.5,331.5 243.5,331.5C 243.5,332.833 243.5,334.167 243.5,335.5C 245.607,336.468 247.941,336.802 250.5,336.5C 250.5,337.167 250.5,337.833 250.5,338.5C 249.662,338.842 249.328,339.508 249.5,340.5C 251.28,343.454 253.28,346.287 255.5,349C 257.473,349.495 259.473,349.662 261.5,349.5C 261.5,350.833 261.5,352.167 261.5,353.5C 262.5,353.5 263.5,353.5 264.5,353.5C 264.5,355.167 264.5,356.833 264.5,358.5C 266.5,358.5 268.5,358.5 270.5,358.5C 270.5,359.833 270.5,361.167 270.5,362.5C 272.5,362.5 274.5,362.5 276.5,362.5C 276.5,364.167 276.5,365.833 276.5,367.5C 277.833,367.5 279.167,367.5 280.5,367.5C 280.5,368.167 280.5,368.833 280.5,369.5C 279.957,369.56 279.624,369.893 279.5,370.5C 281.396,371.466 283.396,371.799 285.5,371.5C 285.5,372.833 285.5,374.167 285.5,375.5C 287.5,375.5 289.5,375.5 291.5,375.5C 291.246,377.401 291.58,378.067 292.5,377.5C 294.167,377.5 295.833,377.5 297.5,377.5C 297.077,379.781 297.744,381.448 299.5,382.5C 300.833,382.5 302.167,382.5 303.5,382.5C 303.215,384.288 303.548,385.955 304.5,387.5C 305.107,387.376 305.44,387.043 305.5,386.5C 307.167,386.5 308.833,386.5 310.5,386.5C 310.5,388.167 310.5,389.833 310.5,391.5C 312.5,391.5 314.5,391.5 316.5,391.5C 316.5,392.833 316.5,394.167 316.5,395.5C 318.715,396.268 321.048,396.935 323.5,397.5C 323.5,397.833 323.5,398.167 323.5,398.5C 322.957,398.56 322.624,398.893 322.5,399.5C 324.743,400.474 327.076,400.808 329.5,400.5C 329.5,401.167 329.5,401.833 329.5,402.5C 328.596,403.209 328.263,404.209 328.5,405.5C 331.5,405.5 334.5,405.5 337.5,405.5C 337.5,406.833 337.5,408.167 337.5,409.5C 339.5,409.5 341.5,409.5 343.5,409.5C 343.263,410.791 343.596,411.791 344.5,412.5C 345.919,413.451 347.585,413.784 349.5,413.5C 349.5,414.5 349.5,415.5 349.5,416.5C 351.988,418.388 354.988,419.055 358.5,418.5C 358.33,419.822 358.663,420.989 359.5,422C 361.473,422.495 363.473,422.662 365.5,422.5C 365.5,423.167 365.5,423.833 365.5,424.5C 368.337,426.402 371.671,427.069 375.5,426.5C 375.5,427.167 375.5,427.833 375.5,428.5C 374.957,428.56 374.624,428.893 374.5,429.5C 377.086,430.48 379.753,430.813 382.5,430.5C 382.651,434.314 384.651,435.981 388.5,435.5C 388.281,436.675 388.614,437.675 389.5,438.5C 390.107,438.376 390.44,438.043 390.5,437.5C 393.167,437.5 395.833,437.5 398.5,437.5C 398.215,439.288 398.548,440.955 399.5,442.5C 400.107,442.376 400.44,442.043 400.5,441.5C 402.167,441.5 403.833,441.5 405.5,441.5C 405.5,443.167 405.5,444.833 405.5,446.5C 408.5,446.5 411.5,446.5 414.5,446.5C 414.5,447.833 414.5,449.167 414.5,450.5C 416.948,451.473 419.615,451.806 422.5,451.5C 422.232,453.099 422.566,454.432 423.5,455.5C 426.5,455.5 429.5,455.5 432.5,455.5C 432.5,456.833 432.5,458.167 432.5,459.5C 435.287,460.477 438.287,460.81 441.5,460.5C 441.5,461.833 441.5,463.167 441.5,464.5C 444.5,464.5 447.5,464.5 450.5,464.5C 450.5,466.167 450.5,467.833 450.5,469.5C 453.5,469.5 456.5,469.5 459.5,469.5C 459.5,470.833 459.5,472.167 459.5,473.5C 462.5,473.5 465.5,473.5 468.5,473.5C 468.33,474.822 468.663,475.989 469.5,477C 472.146,477.497 474.813,477.664 477.5,477.5C 477.33,478.822 477.663,479.989 478.5,481C 481.482,481.498 484.482,481.665 487.5,481.5C 487.5,483.167 487.5,484.833 487.5,486.5C 490.833,486.5 494.167,486.5 497.5,486.5C 497.5,487.167 497.5,487.833 497.5,488.5C 496.957,488.56 496.624,488.893 496.5,489.5C 499.086,490.48 501.753,490.813 504.5,490.5C 504.33,491.822 504.663,492.989 505.5,494C 508.482,494.498 511.482,494.665 514.5,494.5C 514.246,496.401 514.58,497.067 515.5,496.5C 518.167,496.5 520.833,496.5 523.5,496.5C 523.077,498.781 523.744,500.448 525.5,501.5C 527.5,501.5 529.5,501.5 531.5,501.5C 531.5,502.833 531.5,504.167 531.5,505.5C 533.199,505.34 534.866,505.506 536.5,506C 537.833,507 537.833,508 536.5,509C 539.817,509.498 543.15,509.665 546.5,509.5C 546.5,510.833 546.5,512.167 546.5,513.5C 547.659,514.513 549.659,514.847 552.5,514.5C 552.5,515.833 552.5,517.167 552.5,518.5C 553.568,519.434 554.901,519.768 556.5,519.5C 556.286,521.144 556.62,522.644 557.5,524C 559.473,524.495 561.473,524.662 563.5,524.5C 563.5,525.833 563.5,527.167 563.5,528.5C 565.5,528.5 567.5,528.5 569.5,528.5C 569.5,529.833 569.5,531.167 569.5,532.5C 571.5,532.5 573.5,532.5 575.5,532.5C 575.5,534.167 575.5,535.833 575.5,537.5C 576.5,537.5 577.5,537.5 578.5,537.5C 578.5,538.833 578.5,540.167 578.5,541.5C 580.833,541.5 583.167,541.5 585.5,541.5C 585.5,542.167 585.5,542.833 585.5,543.5C 585.924,548.538 588.59,550.871 593.5,550.5C 594.107,553.076 595.274,555.409 597,557.5C 598.507,558.505 599.673,559.838 600.5,561.5C 601.107,561.376 601.44,561.043 601.5,560.5C 601.833,560.5 602.167,560.5 602.5,560.5C 602.201,562.604 602.534,564.604 603.5,566.5C 604.107,566.376 604.44,566.043 604.5,565.5C 605.833,565.5 607.167,565.5 608.5,565.5C 608.5,567.167 608.5,568.833 608.5,570.5C 609.833,570.5 611.167,570.5 612.5,570.5C 612.5,571.833 612.5,573.167 612.5,574.5C 613.5,574.5 614.5,574.5 615.5,574.5C 615.5,577.5 615.5,580.5 615.5,583.5C 616.5,583.5 617.5,583.5 618.5,583.5C 618.5,584.833 618.5,586.167 618.5,587.5C 619.5,587.5 620.5,587.5 621.5,587.5C 621.5,589.167 621.5,590.833 621.5,592.5C 622.5,592.5 623.5,592.5 624.5,592.5C 624.5,595.5 624.5,598.5 624.5,601.5C 625.833,601.5 627.167,601.5 628.5,601.5C 628.5,604.833 628.5,608.167 628.5,611.5C 629.5,611.5 630.5,611.5 631.5,611.5C 631.5,627.167 631.5,642.833 631.5,658.5C 630.022,658.238 628.689,658.571 627.5,659.5C 627.624,660.107 627.957,660.44 628.5,660.5C 628.5,664.167 628.5,667.833 628.5,671.5C 627.167,671.5 625.833,671.5 624.5,671.5C 624.5,674.5 624.5,677.5 624.5,680.5C 623.5,680.5 622.5,680.5 621.5,680.5C 621.5,683.833 621.5,687.167 621.5,690.5C 621.167,690.5 620.833,690.5 620.5,690.5C 620.44,689.957 620.107,689.624 619.5,689.5C 618.548,691.045 618.215,692.712 618.5,694.5C 617.833,694.5 617.167,694.5 616.5,694.5C 615.495,696.704 615.162,699.704 615.5,703.5C 614.833,703.5 614.167,703.5 613.5,703.5C 612.58,702.933 612.246,703.599 612.5,705.5C 611.448,705.351 610.448,705.517 609.5,706C 607.28,708.713 605.28,711.546 603.5,714.5C 603.5,715.833 603.5,717.167 603.5,718.5C 602.448,718.351 601.448,718.517 600.5,719C 598.148,721.7 596.148,724.7 594.5,728C 594.57,728.765 594.903,729.265 595.5,729.5C 595.5,730.167 595.5,730.833 595.5,731.5C 592.612,730.99 590.279,731.656 588.5,733.5C 588.5,734.833 588.5,736.167 588.5,737.5C 587.5,737.5 586.5,737.5 585.5,737.5C 585.5,738.5 585.5,739.5 585.5,740.5C 584.209,740.263 583.209,740.596 582.5,741.5C 582.5,742.5 582.5,743.5 582.5,744.5C 580.167,744.5 577.833,744.5 575.5,744.5C 575.5,746.167 575.5,747.833 575.5,749.5C 575.167,749.5 574.833,749.5 574.5,749.5C 574.44,748.957 574.107,748.624 573.5,748.5C 572.548,750.045 572.215,751.712 572.5,753.5C 571.167,753.5 569.833,753.5 568.5,753.5C 566.744,754.552 566.077,756.219 566.5,758.5C 565.833,758.5 565.167,758.5 564.5,758.5C 563.58,757.933 563.246,758.599 563.5,760.5C 561.409,760.318 559.409,760.652 557.5,761.5C 556.614,762.325 556.281,763.325 556.5,764.5C 554.712,764.215 553.045,764.548 551.5,765.5C 549.252,767.737 547.919,770.404 547.5,773.5C 545.712,773.215 544.045,773.548 542.5,774.5C 542.624,775.107 542.957,775.44 543.5,775.5C 543.5,776.167 543.5,776.833 543.5,777.5C 541.167,777.5 538.833,777.5 536.5,777.5C 536.5,778.5 536.5,779.5 536.5,780.5C 536.5,780.833 536.5,781.167 536.5,781.5C 534.393,782.468 532.059,782.802 529.5,782.5C 529.5,783.833 529.5,785.167 529.5,786.5C 528.5,786.5 527.5,786.5 526.5,786.5C 526.5,787.833 526.5,789.167 526.5,790.5C 523.918,790.025 521.918,790.692 520.5,792.5C 520.5,793.5 520.5,794.5 520.5,795.5C 518.5,795.5 516.5,795.5 514.5,795.5C 514.5,796.833 514.5,798.167 514.5,799.5C 512.585,799.216 510.919,799.549 509.5,800.5C 509.5,801.833 509.5,803.167 509.5,804.5C 507.833,804.5 506.167,804.5 504.5,804.5C 503.566,805.568 503.232,806.901 503.5,808.5C 501.076,808.192 498.743,808.526 496.5,809.5C 496.624,810.107 496.957,810.44 497.5,810.5C 497.5,811.5 497.5,812.5 497.5,813.5C 495.5,813.5 493.5,813.5 491.5,813.5C 491.44,812.957 491.107,812.624 490.5,812.5C 489.614,813.325 489.281,814.325 489.5,815.5C 485.44,814.848 483.44,816.515 483.5,820.5C 481.265,820.205 479.265,820.539 477.5,821.5C 477.5,822.5 477.5,823.5 477.5,824.5C 474.813,824.336 472.146,824.503 469.5,825C 468.663,826.011 468.33,827.178 468.5,828.5C 464.759,827.599 462.759,828.932 462.5,832.5C 460.5,832.5 458.5,832.5 456.5,832.5C 456.263,833.791 456.596,834.791 457.5,835.5C 457.5,836.167 457.5,836.833 457.5,837.5C 455.167,837.5 452.833,837.5 450.5,837.5C 450.5,838.833 450.5,840.167 450.5,841.5C 448.5,841.5 446.5,841.5 444.5,841.5C 444.5,843.167 444.5,844.833 444.5,846.5C 442.5,846.5 440.5,846.5 438.5,846.5C 438.5,847.833 438.5,849.167 438.5,850.5C 435.167,850.5 431.833,850.5 428.5,850.5C 428.5,851.833 428.5,853.167 428.5,854.5C 424.759,853.599 422.759,854.932 422.5,858.5C 420.585,858.216 418.919,858.549 417.5,859.5C 417.5,860.167 417.5,860.833 417.5,861.5C 417.5,862.167 417.5,862.833 417.5,863.5C 415.265,863.205 413.265,863.539 411.5,864.5C 411.5,865.833 411.5,867.167 411.5,868.5C 408.5,868.5 405.5,868.5 402.5,868.5C 401.549,869.919 401.216,871.585 401.5,873.5C 400.167,873.5 398.833,873.5 397.5,873.5C 397.44,872.957 397.107,872.624 396.5,872.5C 395.548,874.045 395.215,875.712 395.5,877.5C 393.833,877.5 392.167,877.5 390.5,877.5C 390.44,876.957 390.107,876.624 389.5,876.5C 388.614,877.325 388.281,878.325 388.5,879.5C 386.143,879.337 383.81,879.503 381.5,880C 380.027,880.71 379.36,881.876 379.5,883.5C 376.712,883.077 374.712,884.077 373.5,886.5C 370.914,887.48 368.247,887.813 365.5,887.5C 365.5,888.5 365.5,889.5 365.5,890.5C 365.5,891.167 365.5,891.833 365.5,892.5C 363.473,892.338 361.473,892.505 359.5,893C 358.663,894.011 358.33,895.178 358.5,896.5C 355.813,896.336 353.146,896.503 350.5,897C 349.62,898.356 349.286,899.856 349.5,901.5C 347.5,901.5 345.5,901.5 343.5,901.5C 343.5,902.833 343.5,904.167 343.5,905.5C 341.5,905.5 339.5,905.5 337.5,905.5C 337.5,906.833 337.5,908.167 337.5,909.5C 334.5,909.5 331.5,909.5 328.5,909.5C 328.263,910.791 328.596,911.791 329.5,912.5C 329.5,913.167 329.5,913.833 329.5,914.5C 327.076,914.192 324.743,914.526 322.5,915.5C 322.624,916.107 322.957,916.44 323.5,916.5C 323.5,916.833 323.5,917.167 323.5,917.5C 319.936,918.423 316.269,918.756 312.5,918.5C 312.5,919.833 312.5,921.167 312.5,922.5C 310.5,922.5 308.5,922.5 306.5,922.5C 306.5,924.167 306.5,925.833 306.5,927.5C 303.5,927.5 300.5,927.5 297.5,927.5C 297.5,929.167 297.5,930.833 297.5,932.5C 295.833,932.5 294.167,932.5 292.5,932.5C 291.58,931.933 291.246,932.599 291.5,934.5C 288.813,934.336 286.146,934.503 283.5,935C 282.816,938.922 280.482,940.422 276.5,939.5C 276.5,940.833 276.5,942.167 276.5,943.5C 273.813,943.336 271.146,943.503 268.5,944C 267.027,944.71 266.36,945.876 266.5,947.5C 264.219,947.077 262.552,947.744 261.5,949.5C 219.878,950.828 178.045,951.495 136,951.5C 94.5,951.333 53,951.167 11.5,951C 12.056,950.617 12.3893,950.117 12.5,949.5C 14.288,949.785 15.9547,949.452 17.5,948.5C 17.3764,947.893 17.0431,947.56 16.5,947.5C 16.5,946.5 16.5,945.5 16.5,944.5C 18.8333,944.5 21.1667,944.5 23.5,944.5C 23.5,943.167 23.5,941.833 23.5,940.5C 26.5,940.5 29.5,940.5 32.5,940.5C 33.4345,939.432 33.7678,938.099 33.5,936.5C 36.5,936.5 39.5,936.5 42.5,936.5C 42.5,934.833 42.5,933.167 42.5,931.5C 45.1667,931.5 47.8333,931.5 50.5,931.5C 50.5,929.833 50.5,928.167 50.5,926.5C 52.5,926.5 54.5,926.5 56.5,926.5C 57.4202,927.067 57.7535,926.401 57.5,924.5C 60.1873,924.664 62.854,924.497 65.5,924C 66.3366,922.989 66.67,921.822 66.5,920.5C 69.1873,920.664 71.854,920.497 74.5,920C 75.056,919.617 75.3893,919.117 75.5,918.5C 76.8304,917.168 78.4971,916.335 80.5,916C 82.0368,914.89 82.7035,913.39 82.5,911.5C 85.1873,911.664 87.854,911.497 90.5,911C 91.3366,909.989 91.67,908.822 91.5,907.5C 95.2407,908.401 97.2407,907.068 97.5,903.5C 100.572,903.817 103.572,903.484 106.5,902.5C 106.376,901.893 106.043,901.56 105.5,901.5C 105.5,901.167 105.5,900.833 105.5,900.5C 105.5,899.833 105.5,899.167 105.5,898.5C 108.833,898.5 112.167,898.5 115.5,898.5C 115.5,897.167 115.5,895.833 115.5,894.5C 117.735,894.795 119.735,894.461 121.5,893.5C 121.5,892.167 121.5,890.833 121.5,889.5C 124.5,889.5 127.5,889.5 130.5,889.5C 130.5,888.167 130.5,886.833 130.5,885.5C 133.572,885.817 136.572,885.484 139.5,884.5C 139.376,883.893 139.043,883.56 138.5,883.5C 138.5,882.5 138.5,881.5 138.5,880.5C 140.857,880.663 143.19,880.497 145.5,880C 144.944,879.617 144.611,879.117 144.5,878.5C 144.5,877.5 144.5,876.5 144.5,875.5C 146.833,875.5 149.167,875.5 151.5,875.5C 151.5,874.5 151.5,873.5 151.5,872.5C 154.833,872.5 158.167,872.5 161.5,872.5C 161.5,870.833 161.5,869.167 161.5,867.5C 164.167,867.5 166.833,867.5 169.5,867.5C 170.518,866.708 170.851,865.041 170.5,862.5C 172.292,862.366 173.958,862.699 175.5,863.5C 176.404,862.791 176.737,861.791 176.5,860.5C 179.518,860.665 182.518,860.498 185.5,860C 186.337,858.989 186.67,857.822 186.5,856.5C 188.288,856.785 189.955,856.452 191.5,855.5C 191.376,854.893 191.043,854.56 190.5,854.5C 190.5,853.833 190.5,853.167 190.5,852.5C 194.329,853.069 197.663,852.402 200.5,850.5C 200.5,849.5 200.5,848.5 200.5,847.5C 203.518,847.665 206.518,847.498 209.5,847C 210.337,845.989 210.67,844.822 210.5,843.5C 214.241,844.401 216.241,843.068 216.5,839.5C 219.167,839.5 221.833,839.5 224.5,839.5C 224.5,838.5 224.5,837.5 224.5,836.5C 224.5,835.833 224.5,835.167 224.5,834.5C 227.082,834.975 229.082,834.308 230.5,832.5C 230.5,831.833 230.5,831.167 230.5,830.5C 233.833,830.5 237.167,830.5 240.5,830.5C 240.5,828.833 240.5,827.167 240.5,825.5C 242.5,825.5 244.5,825.5 246.5,825.5C 246.5,824.167 246.5,822.833 246.5,821.5C 248.5,821.5 250.5,821.5 252.5,821.5C 253.434,820.432 253.768,819.099 253.5,817.5C 256.5,817.5 259.5,817.5 262.5,817.5C 262.5,815.833 262.5,814.167 262.5,812.5C 263.5,812.5 264.5,812.5 265.5,812.5C 265.833,812.5 266.167,812.5 266.5,812.5C 268.045,811.77 268.878,810.437 269,808.5C 273.021,810.413 276.187,809.58 278.5,806C 281.901,806.266 283.567,804.766 283.5,801.5C 286.187,801.664 288.854,801.497 291.5,801C 292.056,800.617 292.389,800.117 292.5,799.5C 292.5,798.5 292.5,797.5 292.5,796.5C 294.5,796.5 296.5,796.5 298.5,796.5C 298.5,795.167 298.5,793.833 298.5,792.5C 300.527,792.662 302.527,792.495 304.5,792C 305.337,790.989 305.67,789.822 305.5,788.5C 308.247,788.813 310.914,788.48 313.5,787.5C 314.712,785.077 316.712,784.077 319.5,784.5C 319.5,783.5 319.5,782.5 319.5,781.5C 319.167,780.833 318.833,780.167 318.5,779.5C 321.388,780.01 323.721,779.344 325.5,777.5C 325.5,776.833 325.5,776.167 325.5,775.5C 328.833,775.5 332.167,775.5 335.5,775.5C 335.5,773.833 335.5,772.167 335.5,770.5C 337.5,770.5 339.5,770.5 341.5,770.5C 341.5,769.167 341.5,767.833 341.5,766.5C 344.5,766.5 347.5,766.5 350.5,766.5C 350.5,765.167 350.5,763.833 350.5,762.5C 352.5,762.5 354.5,762.5 356.5,762.5C 356.366,760.708 356.699,759.042 357.5,757.5C 359.288,757.785 360.955,757.452 362.5,756.5C 362.376,755.893 362.043,755.56 361.5,755.5C 361.5,754.833 361.5,754.167 361.5,753.5C 363.833,753.5 366.167,753.5 368.5,753.5C 368.5,751.833 368.5,750.167 368.5,748.5C 370.167,748.5 371.833,748.5 373.5,748.5C 373.5,746.833 373.5,745.167 373.5,743.5C 376.5,743.5 379.5,743.5 382.5,743.5C 382.56,744.043 382.893,744.376 383.5,744.5C 384.452,742.955 384.785,741.288 384.5,739.5C 385.833,739.5 387.167,739.5 388.5,739.5C 389.833,739.5 390.5,738.833 390.5,737.5C 394.241,738.401 396.241,737.068 396.5,733.5C 400.241,734.401 402.241,733.068 402.5,729.5C 404.5,729.5 406.5,729.5 408.5,729.5C 408.737,728.209 408.404,727.209 407.5,726.5C 407.5,725.833 407.5,725.167 407.5,724.5C 409.833,724.5 412.167,724.5 414.5,724.5C 414.5,722.833 414.5,721.167 414.5,719.5C 415.5,719.5 416.5,719.5 417.5,719.5C 417.5,718.167 417.5,716.833 417.5,715.5C 419.5,715.5 421.5,715.5 423.5,715.5C 423.5,713.833 423.5,712.167 423.5,710.5C 425.5,710.5 427.5,710.5 429.5,710.5C 430.283,708.924 431.45,707.591 433,706.5C 433.49,705.207 433.657,703.873 433.5,702.5C 435.167,702.5 436.833,702.5 438.5,702.5C 439.434,701.432 439.768,700.099 439.5,698.5C 440.5,698.5 441.5,698.5 442.5,698.5C 442.5,697.167 442.5,695.833 442.5,694.5C 444.781,694.923 446.448,694.256 447.5,692.5C 447.5,691.167 447.5,689.833 447.5,688.5C 448.5,688.5 449.5,688.5 450.5,688.5C 450.5,687.167 450.5,685.833 450.5,684.5C 451.5,684.5 452.5,684.5 453.5,684.5C 453.5,682.833 453.5,681.167 453.5,679.5C 454.5,679.5 455.5,679.5 456.5,679.5C 456.157,677.517 456.824,676.183 458.5,675.5C 458.56,676.043 458.893,676.376 459.5,676.5C 461.876,673.962 464.042,671.296 466,668.5C 466.497,665.854 466.664,663.187 466.5,660.5C 467.5,660.5 468.5,660.5 469.5,660.5C 469.5,657.5 469.5,654.5 469.5,651.5C 470.5,651.5 471.5,651.5 472.5,651.5C 472.5,642.833 472.5,634.167 472.5,625.5C 471.5,625.5 470.5,625.5 469.5,625.5C 469.5,622.5 469.5,619.5 469.5,616.5C 468.5,616.5 467.5,616.5 466.5,616.5C 466.5,615.167 466.5,613.833 466.5,612.5C 465.5,612.5 464.5,612.5 463.5,612.5C 463.5,610.833 463.5,609.167 463.5,607.5C 462.5,607.5 461.5,607.5 460.5,607.5C 460.5,606.167 460.5,604.833 460.5,603.5C 458.167,603.5 455.833,603.5 453.5,603.5C 453.5,602.833 453.5,602.167 453.5,601.5C 452.082,599.692 450.082,599.025 447.5,599.5C 447.5,598.833 447.5,598.167 447.5,597.5C 448.404,596.791 448.737,595.791 448.5,594.5C 447.5,594.5 446.5,594.5 445.5,594.5C 445.67,593.178 445.337,592.011 444.5,591C 441.854,590.503 439.187,590.336 436.5,590.5C 436.241,586.932 434.241,585.599 430.5,586.5C 430.714,584.856 430.38,583.356 429.5,582C 426.854,581.503 424.187,581.336 421.5,581.5C 421.64,579.876 420.973,578.71 419.5,578C 416.854,577.503 414.187,577.336 411.5,577.5C 411.5,576.167 411.5,574.833 411.5,573.5C 407.759,574.401 405.759,573.068 405.5,569.5C 402.833,569.5 400.167,569.5 397.5,569.5C 397.67,568.178 397.337,567.011 396.5,566C 393.518,565.502 390.518,565.335 387.5,565.5C 387.5,564.167 387.5,562.833 387.5,561.5C 384.167,561.5 380.833,561.5 377.5,561.5C 377.5,560.167 377.5,558.833 377.5,557.5C 373.167,557.5 368.833,557.5 364.5,557.5C 364.5,556.5 364.5,555.5 364.5,554.5C 365.043,554.44 365.376,554.107 365.5,553.5C 362.232,552.513 358.898,552.18 355.5,552.5C 355.5,551.833 355.5,551.167 355.5,550.5C 353.365,548.631 350.698,547.964 347.5,548.5C 347.5,547.5 347.5,546.5 347.5,545.5C 345.012,543.612 342.012,542.945 338.5,543.5C 338.5,542.167 338.5,540.833 338.5,539.5C 335.5,539.5 332.5,539.5 329.5,539.5C 329.5,538.167 329.5,536.833 329.5,535.5C 325.833,535.5 322.167,535.5 318.5,535.5C 318.833,534.833 319.167,534.167 319.5,533.5C 319.5,532.5 319.5,531.5 319.5,530.5C 316.833,530.5 314.167,530.5 311.5,530.5C 311.67,529.178 311.337,528.011 310.5,527C 307.518,526.502 304.518,526.335 301.5,526.5C 301.5,525.167 301.5,523.833 301.5,522.5C 298.5,522.5 295.5,522.5 292.5,522.5C 292.5,521.5 292.5,520.5 292.5,519.5C 292.389,518.883 292.056,518.383 291.5,518C 288.854,517.503 286.187,517.336 283.5,517.5C 283.241,513.932 281.241,512.599 277.5,513.5C 277.67,512.178 277.337,511.011 276.5,510C 273.854,509.503 271.187,509.336 268.5,509.5C 268.737,508.209 268.404,507.209 267.5,506.5C 264.833,506.5 262.167,506.5 259.5,506.5C 259.5,504.833 259.5,503.167 259.5,501.5C 257.5,501.5 255.5,501.5 253.5,501.5C 253.768,499.901 253.434,498.568 252.5,497.5C 249.5,497.5 246.5,497.5 243.5,497.5C 243.5,496.167 243.5,494.833 243.5,493.5C 241.735,492.539 239.735,492.205 237.5,492.5C 237.5,491.167 237.5,489.833 237.5,488.5C 234.167,488.5 230.833,488.5 227.5,488.5C 227.5,487.833 227.5,487.167 227.5,486.5C 226.448,484.744 224.781,484.077 222.5,484.5C 222.938,480.092 220.938,478.425 216.5,479.5C 216.67,478.178 216.337,477.011 215.5,476C 212.854,475.503 210.187,475.336 207.5,475.5C 207.67,474.178 207.337,473.011 206.5,472C 204.527,471.505 202.527,471.338 200.5,471.5C 200.5,470.167 200.5,468.833 200.5,467.5C 198.5,467.5 196.5,467.5 194.5,467.5C 194.5,465.833 194.5,464.167 194.5,462.5C 192.167,462.5 189.833,462.5 187.5,462.5C 187.5,461.833 187.5,461.167 187.5,460.5C 188.043,460.44 188.376,460.107 188.5,459.5C 186.955,458.548 185.288,458.215 183.5,458.5C 183.241,454.932 181.241,453.599 177.5,454.5C 177.762,453.022 177.429,451.689 176.5,450.5C 175.893,450.624 175.56,450.957 175.5,451.5C 173.833,451.5 172.167,451.5 170.5,451.5C 170.785,449.712 170.452,448.045 169.5,446.5C 168.893,446.624 168.56,446.957 168.5,447.5C 168.167,447.5 167.833,447.5 167.5,447.5C 167.5,445.833 167.5,444.167 167.5,442.5C 165.5,442.5 163.5,442.5 161.5,442.5C 161.5,440.833 161.5,439.167 161.5,437.5C 159.5,437.5 157.5,437.5 155.5,437.5C 155.5,436.167 155.5,434.833 155.5,433.5C 153.167,433.5 150.833,433.5 148.5,433.5C 148.5,432.833 148.5,432.167 148.5,431.5C 147.817,429.824 146.483,429.157 144.5,429.5C 144.5,428.833 144.5,428.167 144.5,427.5C 145.404,426.791 145.737,425.791 145.5,424.5C 143.167,424.5 140.833,424.5 138.5,424.5C 138.5,423.833 138.5,423.167 138.5,422.5C 139.043,422.44 139.376,422.107 139.5,421.5C 137.955,420.548 136.288,420.215 134.5,420.5C 134.081,417.404 132.748,414.737 130.5,412.5C 128.604,411.534 126.604,411.201 124.5,411.5C 124.649,410.448 124.483,409.448 124,408.5C 122.415,407.624 121.415,406.291 121,404.5C 120.601,404.728 120.435,405.062 120.5,405.5C 119.833,405.5 119.167,405.5 118.5,405.5C 118.785,403.712 118.452,402.045 117.5,400.5C 116.893,400.624 116.56,400.957 116.5,401.5C 115.167,401.5 113.833,401.5 112.5,401.5C 112.799,399.396 112.466,397.396 111.5,395.5C 110.893,395.624 110.56,395.957 110.5,396.5C 109.833,396.5 109.167,396.5 108.5,396.5C 108.5,395.167 108.5,393.833 108.5,392.5C 107.5,392.5 106.5,392.5 105.5,392.5C 105.5,390.833 105.5,389.167 105.5,387.5C 104.5,387.5 103.5,387.5 102.5,387.5C 102.5,386.167 102.5,384.833 102.5,383.5C 101.5,383.5 100.5,383.5 99.5,383.5C 99.5,382.167 99.5,380.833 99.5,379.5C 98.4324,378.566 97.099,378.232 95.5,378.5C 95.5,377.833 95.5,377.167 95.5,376.5C 96.3382,376.158 96.6716,375.492 96.5,374.5C 91.1822,367.875 86.3489,360.875 82,353.5C 80.9887,352.663 79.8221,352.33 78.5,352.5C 78.5,350.833 78.5,349.167 78.5,347.5C 76.8007,347.473 75.4674,346.806 74.5,345.5C 73.8333,345.5 73.1667,345.5 72.5,345.5C 72.8404,342.028 72.507,339.361 71.5,337.5C 70.8333,337.5 70.1667,337.5 69.5,337.5C 69.7845,335.585 69.4511,333.919 68.5,332.5C 67.8333,332.5 67.1667,332.5 66.5,332.5C 66.5,329.5 66.5,326.5 66.5,323.5C 65.1667,323.5 63.8333,323.5 62.5,323.5C 62.5,321.167 62.5,318.833 62.5,316.5C 63.0431,316.44 63.3764,316.107 63.5,315.5C 62.3112,314.571 60.9778,314.238 59.5,314.5C 59.5,312.167 59.5,309.833 59.5,307.5C 60.0431,307.44 60.3764,307.107 60.5,306.5C 59.3112,305.571 57.9778,305.238 56.5,305.5C 56.5,303.5 56.5,301.5 56.5,299.5C 54.9358,293.323 54.1025,286.99 54,280.5C 53.586,280.043 53.086,279.709 52.5,279.5C 52.1667,272.167 51.8333,264.833 51.5,257.5C 51.7187,243.863 52.7187,230.53 54.5,217.5C 55.4916,217.672 56.1583,217.338 56.5,216.5C 56.5,212.167 56.5,207.833 56.5,203.5C 57.5,203.5 58.5,203.5 59.5,203.5C 59.5,200.5 59.5,197.5 59.5,194.5C 60.5,194.5 61.5,194.5 62.5,194.5C 62.5,193.167 62.5,191.833 62.5,190.5C 63.1667,190.5 63.8333,190.5 64.5,190.5C 64.56,191.043 64.8933,191.376 65.5,191.5C 66.4742,189.257 66.8076,186.924 66.5,184.5C 68.1788,184.715 69.1788,184.048 69.5,182.5C 69.5,180.167 69.5,177.833 69.5,175.5C 70.5,175.5 71.5,175.5 72.5,175.5C 72.5,173.833 72.5,172.167 72.5,170.5C 73.5,170.5 74.5,170.5 75.5,170.5C 75.5,169.167 75.5,167.833 75.5,166.5C 76.5,166.5 77.5,166.5 78.5,166.5C 78.5,165.167 78.5,163.833 78.5,162.5C 79.5,162.5 80.5,162.5 81.5,162.5C 81.5,159.5 81.5,156.5 81.5,153.5C 83.8333,153.5 86.1667,153.5 88.5,153.5C 88.5,150.5 88.5,147.5 88.5,144.5C 89.8333,144.5 91.1667,144.5 92.5,144.5C 92.5,142.833 92.5,141.167 92.5,139.5C 93.8734,139.657 95.2068,139.49 96.5,139C 95.6634,137.989 95.33,136.822 95.5,135.5C 96.8333,135.5 98.1667,135.5 99.5,135.5C 99.2148,133.712 99.5481,132.045 100.5,130.5C 101.086,130.709 101.586,131.043 102,131.5C 102.494,129.866 102.66,128.199 102.5,126.5C 104.179,126.715 105.179,126.048 105.5,124.5C 106.833,124.5 108.167,124.5 109.5,124.5C 109.5,123.167 109.5,121.833 109.5,120.5C 112.01,120.946 114.01,120.28 115.5,118.5C 115.5,117.5 115.5,116.5 115.5,115.5C 116.5,115.5 117.5,115.5 118.5,115.5C 118.5,114.167 118.5,112.833 118.5,111.5C 119.5,111.5 120.5,111.5 121.5,111.5C 121.5,110.167 121.5,108.833 121.5,107.5C 123.5,107.5 125.5,107.5 127.5,107.5C 127.5,105.833 127.5,104.167 127.5,102.5C 128.5,102.5 129.5,102.5 130.5,102.5C 130.5,101.167 130.5,99.8333 130.5,98.5C 132.167,98.5 133.833,98.5 135.5,98.5C 136.829,96.9414 138.162,95.2748 139.5,93.5C 140.246,92.2638 140.579,90.9305 140.5,89.5C 142.288,89.7852 143.955,89.4519 145.5,88.5C 145.376,87.8933 145.043,87.56 144.5,87.5C 144.5,86.5 144.5,85.5 144.5,84.5C 146.833,84.5 149.167,84.5 151.5,84.5C 151.157,82.5168 151.824,81.1834 153.5,80.5C 153.56,81.0431 153.893,81.3764 154.5,81.5C 155.429,80.3112 155.762,78.9778 155.5,77.5C 157.5,77.5 159.5,77.5 161.5,77.5C 161.5,76.1667 161.5,74.8333 161.5,73.5C 164.01,73.9465 166.01,73.2798 167.5,71.5C 168.841,69.88 170.674,68.88 173,68.5C 173.49,67.2068 173.657,65.8734 173.5,64.5C 177.241,65.4015 179.241,64.0681 179.5,60.5C 181.604,60.7989 183.604,60.4656 185.5,59.5C 185.376,58.8933 185.043,58.56 184.5,58.5C 184.5,57.8333 184.5,57.1667 184.5,56.5C 186.924,56.8076 189.257,56.4742 191.5,55.5C 191.376,54.8933 191.043,54.56 190.5,54.5C 190.5,53.5 190.5,52.5 190.5,51.5C 192.833,51.5 195.167,51.5 197.5,51.5C 197.5,50.1667 197.5,48.8333 197.5,47.5C 199.833,47.5 202.167,47.5 204.5,47.5C 204.5,46.1667 204.5,44.8333 204.5,43.5C 207.385,43.8064 210.052,43.4731 212.5,42.5C 213.404,41.791 213.737,40.791 213.5,39.5C 215.415,39.7845 217.081,39.4511 218.5,38.5C 218.672,37.5084 218.338,36.8417 217.5,36.5C 217.5,35.8333 217.5,35.1667 217.5,34.5C 220.059,34.8016 222.393,34.4682 224.5,33.5C 224.5,32.1667 224.5,30.8333 224.5,29.5C 226.167,29.5 227.833,29.5 229.5,29.5C 230.434,28.4324 230.768,27.099 230.5,25.5C 232.833,25.5 235.167,25.5 237.5,25.5C 237.5,23.8333 237.5,22.1667 237.5,20.5C 240.167,20.5 242.833,20.5 245.5,20.5C 246.42,21.0674 246.754,20.4008 246.5,18.5C 248.591,18.6816 250.591,18.3482 252.5,17.5C 253.386,16.675 253.719,15.675 253.5,14.5C 256.187,14.6641 258.854,14.4974 261.5,14C 262.38,12.6439 262.714,11.1439 262.5,9.5C 291.502,9.66664 320.502,9.49998 349.5,9C 350.973,8.29044 351.64,7.12377 351.5,5.5 Z"/></g>
<g><path style="opacity:1" d="M 874.5,12.5 C 873.833,12.5 873.167,12.5 872.5,12.5C 871.566,13.5676 871.232,14.901 871.5,16.5C 867.5,16.5 863.5,16.5 859.5,16.5C 859.5,18.1667 859.5,19.8333 859.5,21.5C 858.167,21.5 856.833,21.5 855.5,21.5C 854.549,22.9187 854.216,24.5853 854.5,26.5C 851.5,26.5 848.5,26.5 845.5,26.5C 845.5,27.8333 845.5,29.1667 845.5,30.5C 842.5,30.5 839.5,30.5 836.5,30.5C 835.167,31.8333 835.167,33.1667 836.5,34.5C 834.735,35.4614 832.735,35.7947 830.5,35.5C 830.44,34.9569 830.107,34.6236 829.5,34.5C 828.614,35.325 828.281,36.325 828.5,37.5C 825.813,37.3359 823.146,37.5026 820.5,38C 819.663,39.0113 819.33,40.1779 819.5,41.5C 816.813,41.3359 814.146,41.5026 811.5,42C 810.663,43.0113 810.33,44.1779 810.5,45.5C 808.5,45.5 806.5,45.5 804.5,45.5C 804.263,46.791 804.596,47.791 805.5,48.5C 805.5,49.1667 805.5,49.8333 805.5,50.5C 802.167,50.5 798.833,50.5 795.5,50.5C 795.5,51.8333 795.5,53.1667 795.5,54.5C 792.5,54.5 789.5,54.5 786.5,54.5C 786.5,55.8333 786.5,57.1667 786.5,58.5C 783.287,58.19 780.287,58.5233 777.5,59.5C 776.596,60.209 776.263,61.209 776.5,62.5C 772.488,61.8874 770.488,63.5541 770.5,67.5C 767.753,67.1866 765.086,67.52 762.5,68.5C 762.624,69.1067 762.957,69.44 763.5,69.5C 763.5,70.1667 763.5,70.8333 763.5,71.5C 759.833,71.5 756.167,71.5 752.5,71.5C 752.5,73.1667 752.5,74.8333 752.5,76.5C 750.5,76.5 748.5,76.5 746.5,76.5C 746.5,77.8333 746.5,79.1667 746.5,80.5C 743.5,80.5 740.5,80.5 737.5,80.5C 737.5,82.1667 737.5,83.8333 737.5,85.5C 734.833,85.5 732.167,85.5 729.5,85.5C 729.5,87.1667 729.5,88.8333 729.5,90.5C 726.5,90.5 723.5,90.5 720.5,90.5C 720.5,91.8333 720.5,93.1667 720.5,94.5C 717.941,94.1984 715.607,94.5318 713.5,95.5C 710.695,96.3195 707.695,96.8195 704.5,97C 703.62,98.3561 703.286,99.8561 703.5,101.5C 700.5,101.5 697.5,101.5 694.5,101.5C 694.5,102.833 694.5,104.167 694.5,105.5C 690.759,104.599 688.759,105.932 688.5,109.5C 685.5,109.5 682.5,109.5 679.5,109.5C 679.5,110.833 679.5,112.167 679.5,113.5C 676.287,113.19 673.287,113.523 670.5,114.5C 670.328,115.492 670.662,116.158 671.5,116.5C 671.5,117.167 671.5,117.833 671.5,118.5C 668.167,118.5 664.833,118.5 661.5,118.5C 661.5,119.833 661.5,121.167 661.5,122.5C 659.167,122.5 656.833,122.5 654.5,122.5C 654.5,123.833 654.5,125.167 654.5,126.5C 651.615,126.194 648.948,126.527 646.5,127.5C 645.566,128.568 645.232,129.901 645.5,131.5C 642.833,131.5 640.167,131.5 637.5,131.5C 636.566,132.568 636.232,133.901 636.5,135.5C 633.428,135.183 630.428,135.516 627.5,136.5C 627.624,137.107 627.957,137.44 628.5,137.5C 628.5,138.5 628.5,139.5 628.5,140.5C 626.167,140.5 623.833,140.5 621.5,140.5C 621.5,142.167 621.5,143.833 621.5,145.5C 618.833,145.5 616.167,145.5 613.5,145.5C 613.5,146.833 613.5,148.167 613.5,149.5C 610.5,149.5 607.5,149.5 604.5,149.5C 604.44,148.957 604.107,148.624 603.5,148.5C 602.571,149.689 602.238,151.022 602.5,152.5C 600.5,152.5 598.5,152.5 596.5,152.5C 596.5,153.833 596.5,155.167 596.5,156.5C 593.302,155.964 590.635,156.631 588.5,158.5C 588.5,159.167 588.5,159.833 588.5,160.5C 585.482,160.335 582.482,160.502 579.5,161C 578.663,162.011 578.33,163.178 578.5,164.5C 575.99,164.054 573.99,164.72 572.5,166.5C 572.5,167.5 572.5,168.5 572.5,169.5C 569.5,169.5 566.5,169.5 563.5,169.5C 563.5,170.833 563.5,172.167 563.5,173.5C 560.482,173.335 557.482,173.502 554.5,174C 553.663,175.011 553.33,176.178 553.5,177.5C 551.833,177.5 550.167,177.5 548.5,177.5C 548.263,178.791 548.596,179.791 549.5,180.5C 549.5,181.167 549.5,181.833 549.5,182.5C 545.671,181.931 542.337,182.598 539.5,184.5C 539.5,185.167 539.5,185.833 539.5,186.5C 537.167,186.5 534.833,186.5 532.5,186.5C 532.5,187.833 532.5,189.167 532.5,190.5C 530.5,190.5 528.5,190.5 526.5,190.5C 526.5,192.167 526.5,193.833 526.5,195.5C 523.5,195.5 520.5,195.5 517.5,195.5C 517.5,196.833 517.5,198.167 517.5,199.5C 515.5,199.5 513.5,199.5 511.5,199.5C 511.5,201.167 511.5,202.833 511.5,204.5C 510.167,204.5 508.833,204.5 507.5,204.5C 506.549,205.919 506.216,207.585 506.5,209.5C 504.5,209.5 502.5,209.5 500.5,209.5C 500.5,210.833 500.5,212.167 500.5,213.5C 498.5,213.5 496.5,213.5 494.5,213.5C 493.549,214.919 493.216,216.585 493.5,218.5C 491.833,218.5 490.167,218.5 488.5,218.5C 487.58,217.933 487.246,218.599 487.5,220.5C 485.473,220.338 483.473,220.505 481.5,221C 478.676,225.069 476.01,229.236 473.5,233.5C 470.9,236.392 468.4,239.392 466,242.5C 465.778,246.056 464.944,249.389 463.5,252.5C 462.92,256.649 463.586,260.316 465.5,263.5C 465.5,266.5 465.5,269.5 465.5,272.5C 466.5,272.5 467.5,272.5 468.5,272.5C 468.232,274.099 468.566,275.432 469.5,276.5C 470.968,277.779 471.635,279.446 471.5,281.5C 473.5,281.5 475.5,281.5 477.5,281.5C 477.232,283.099 477.566,284.432 478.5,285.5C 479.5,285.5 480.5,285.5 481.5,285.5C 481.5,286.833 481.5,288.167 481.5,289.5C 482.919,290.451 484.585,290.784 486.5,290.5C 486.5,291.833 486.5,293.167 486.5,294.5C 488.833,294.5 491.167,294.5 493.5,294.5C 493.5,295.167 493.5,295.833 493.5,296.5C 496.337,298.402 499.671,299.069 503.5,298.5C 503.5,299.167 503.5,299.833 503.5,300.5C 502.596,301.209 502.263,302.209 502.5,303.5C 505.5,303.5 508.5,303.5 511.5,303.5C 511.33,304.822 511.663,305.989 512.5,307C 515.146,307.497 517.813,307.664 520.5,307.5C 520.33,308.822 520.663,309.989 521.5,311C 524.146,311.497 526.813,311.664 529.5,311.5C 529.281,312.675 529.614,313.675 530.5,314.5C 531.107,314.376 531.44,314.043 531.5,313.5C 534.167,313.5 536.833,313.5 539.5,313.5C 539.5,315.167 539.5,316.833 539.5,318.5C 542.833,318.5 546.167,318.5 549.5,318.5C 549.5,319.833 549.5,321.167 549.5,322.5C 553.5,322.5 557.5,322.5 561.5,322.5C 561.216,324.415 561.549,326.081 562.5,327.5C 565.833,327.5 569.167,327.5 572.5,327.5C 572.157,329.483 572.824,330.817 574.5,331.5C 577.167,331.5 579.833,331.5 582.5,331.5C 582.5,332.833 582.5,334.167 582.5,335.5C 585.625,336.479 588.958,336.813 592.5,336.5C 592.5,337.167 592.5,337.833 592.5,338.5C 591.662,338.842 591.328,339.508 591.5,340.5C 594.962,341.482 598.629,341.815 602.5,341.5C 602.33,342.822 602.663,343.989 603.5,345C 606.482,345.498 609.482,345.665 612.5,345.5C 612.5,346.833 612.5,348.167 612.5,349.5C 615.5,349.5 618.5,349.5 621.5,349.5C 621.5,350.833 621.5,352.167 621.5,353.5C 625.298,354.483 629.298,354.817 633.5,354.5C 633.5,355.833 633.5,357.167 633.5,358.5C 636.5,358.5 639.5,358.5 642.5,358.5C 642.33,359.822 642.663,360.989 643.5,362C 647.486,362.499 651.486,362.666 655.5,362.5C 655.5,364.167 655.5,365.833 655.5,367.5C 658.5,367.5 661.5,367.5 664.5,367.5C 664.5,368.167 664.5,368.833 664.5,369.5C 667.337,371.402 670.671,372.069 674.5,371.5C 676.988,373.388 679.988,374.055 683.5,373.5C 683.5,374.833 683.5,376.167 683.5,377.5C 686.167,377.5 688.833,377.5 691.5,377.5C 691.077,379.781 691.744,381.448 693.5,382.5C 696.5,382.5 699.5,382.5 702.5,382.5C 702.5,383.833 702.5,385.167 702.5,386.5C 705.167,386.5 707.833,386.5 710.5,386.5C 710.5,388.167 710.5,389.833 710.5,391.5C 713.833,391.5 717.167,391.5 720.5,391.5C 720.5,392.5 720.5,393.5 720.5,394.5C 719.957,394.56 719.624,394.893 719.5,395.5C 722.428,396.484 725.428,396.817 728.5,396.5C 728.5,397.833 728.5,399.167 728.5,400.5C 731.5,400.5 734.5,400.5 737.5,400.5C 737.5,401.833 737.5,403.167 737.5,404.5C 739.5,404.5 741.5,404.5 743.5,404.5C 743.5,406.167 743.5,407.833 743.5,409.5C 746.5,409.5 749.5,409.5 752.5,409.5C 752.5,410.833 752.5,412.167 752.5,413.5C 754.833,413.5 757.167,413.5 759.5,413.5C 759.5,414.167 759.5,414.833 759.5,415.5C 759.5,416.5 759.5,417.5 759.5,418.5C 762.247,418.187 764.914,418.52 767.5,419.5C 768.712,421.923 770.712,422.923 773.5,422.5C 773.33,423.822 773.663,424.989 774.5,426C 776.473,426.495 778.473,426.662 780.5,426.5C 780.286,428.144 780.62,429.644 781.5,431C 784.146,431.497 786.813,431.664 789.5,431.5C 789.5,432.167 789.5,432.833 789.5,433.5C 790.99,435.28 792.99,435.946 795.5,435.5C 795.33,436.822 795.663,437.989 796.5,439C 798.473,439.495 800.473,439.662 802.5,439.5C 803.918,441.308 805.918,441.975 808.5,441.5C 808.5,443.167 808.5,444.833 808.5,446.5C 810.167,446.5 811.833,446.5 813.5,446.5C 813.5,448.167 813.5,449.833 813.5,451.5C 815.833,451.5 818.167,451.5 820.5,451.5C 820.5,452.833 820.5,454.167 820.5,455.5C 822.5,455.5 824.5,455.5 826.5,455.5C 826.5,456.833 826.5,458.167 826.5,459.5C 827.919,460.451 829.585,460.784 831.5,460.5C 831.5,461.833 831.5,463.167 831.5,464.5C 833.833,464.5 836.167,464.5 838.5,464.5C 838.5,465.833 838.5,467.167 838.5,468.5C 840.833,468.5 843.167,468.5 845.5,468.5C 845.5,469.167 845.5,469.833 845.5,470.5C 844.433,472.879 845.433,473.879 848.5,473.5C 848.5,474.167 848.5,474.833 848.5,475.5C 847.957,475.56 847.624,475.893 847.5,476.5C 849.396,477.466 851.396,477.799 853.5,477.5C 853.5,478.833 853.5,480.167 853.5,481.5C 855.5,481.5 857.5,481.5 859.5,481.5C 859.955,484.462 861.121,487.129 863,489.5C 864.699,490.406 866.533,490.739 868.5,490.5C 868.281,491.675 868.614,492.675 869.5,493.5C 870.107,493.376 870.44,493.043 870.5,492.5C 870.833,492.5 871.167,492.5 871.5,492.5C 871.5,494.5 871.5,496.5 871.5,498.5C 873.5,498.5 875.5,498.5 877.5,498.5C 877.238,499.978 877.571,501.311 878.5,502.5C 879.107,502.376 879.44,502.043 879.5,501.5C 880.5,501.5 881.5,501.5 882.5,501.5C 882.67,502.822 882.337,503.989 881.5,505C 883.81,505.497 886.143,505.663 888.5,505.5C 888.5,506.5 888.5,507.5 888.5,508.5C 887.957,508.56 887.624,508.893 887.5,509.5C 888.689,510.429 890.022,510.762 891.5,510.5C 891.5,511.5 891.5,512.5 891.5,513.5C 892.209,514.404 893.209,514.737 894.5,514.5C 894.5,515.5 894.5,516.5 894.5,517.5C 893.243,518.623 893.576,519.289 895.5,519.5C 895.197,522.588 896.53,524.254 899.5,524.5C 899.232,526.099 899.566,527.432 900.5,528.5C 902.176,529.183 902.843,530.517 902.5,532.5C 903.5,532.5 904.5,532.5 905.5,532.5C 905.343,533.873 905.51,535.207 906,536.5C 909.513,540.181 912.68,544.181 915.5,548.5C 916.107,548.376 916.44,548.043 916.5,547.5C 916.833,547.5 917.167,547.5 917.5,547.5C 917.077,549.781 917.744,551.448 919.5,552.5C 919.833,552.5 920.167,552.5 920.5,552.5C 920.215,554.288 920.548,555.955 921.5,557.5C 922.107,557.376 922.44,557.043 922.5,556.5C 922.833,556.5 923.167,556.5 923.5,556.5C 923.215,558.288 923.548,559.955 924.5,561.5C 925.107,561.376 925.44,561.043 925.5,560.5C 927.388,562.988 928.055,565.988 927.5,569.5C 928.5,569.5 929.5,569.5 930.5,569.5C 930.5,570.833 930.5,572.167 930.5,573.5C 931.5,573.5 932.5,573.5 933.5,573.5C 933.5,576.167 933.5,578.833 933.5,581.5C 934.183,583.176 935.517,583.843 937.5,583.5C 937.5,585.5 937.5,587.5 937.5,589.5C 936.662,589.842 936.328,590.508 936.5,591.5C 937.927,594.745 939.261,598.078 940.5,601.5C 942.828,610.852 944.828,620.185 946.5,629.5C 946.833,629.5 947.167,629.5 947.5,629.5C 947.5,647.833 947.5,666.167 947.5,684.5C 946.5,684.5 945.5,684.5 944.5,684.5C 944.83,691.532 944.497,698.532 943.5,705.5C 942.914,705.709 942.414,706.043 942,706.5C 941.827,710.541 941.327,714.541 940.5,718.5C 939.163,721.462 937.83,724.462 936.5,727.5C 936.328,728.492 936.662,729.158 937.5,729.5C 937.5,732.167 937.5,734.833 937.5,737.5C 936.167,737.5 934.833,737.5 933.5,737.5C 933.5,740.167 933.5,742.833 933.5,745.5C 932.5,745.5 931.5,745.5 930.5,745.5C 930.5,746.833 930.5,748.167 930.5,749.5C 929.5,749.5 928.5,749.5 927.5,749.5C 928.055,753.012 927.388,756.012 925.5,758.5C 925.44,757.957 925.107,757.624 924.5,757.5C 923.548,759.045 923.215,760.712 923.5,762.5C 923.167,762.5 922.833,762.5 922.5,762.5C 922.44,761.957 922.107,761.624 921.5,761.5C 920.52,764.086 920.187,766.753 920.5,769.5C 919.5,769.5 918.5,769.5 917.5,769.5C 917.762,770.978 917.429,772.311 916.5,773.5C 915.226,775.318 913.726,776.985 912,778.5C 911.51,779.793 911.343,781.127 911.5,782.5C 910.5,782.5 909.5,782.5 908.5,782.5C 908.5,785.167 908.5,787.833 908.5,790.5C 907.5,790.5 906.5,790.5 905.5,790.5C 905.5,792.167 905.5,793.833 905.5,795.5C 904.5,795.5 903.5,795.5 902.5,795.5C 902.843,797.483 902.176,798.817 900.5,799.5C 898.896,800.287 898.229,801.62 898.5,803.5C 896.833,803.5 895.167,803.5 893.5,803.5C 893.263,804.791 893.596,805.791 894.5,806.5C 894.5,807.5 894.5,808.5 894.5,809.5C 893.5,809.5 892.5,809.5 891.5,809.5C 891.5,810.833 891.5,812.167 891.5,813.5C 890.127,813.343 888.793,813.51 887.5,814C 888.337,815.011 888.67,816.178 888.5,817.5C 887.5,817.5 886.5,817.5 885.5,817.5C 885.5,819.167 885.5,820.833 885.5,822.5C 884.5,822.5 883.5,822.5 882.5,822.5C 881.58,821.933 881.246,822.599 881.5,824.5C 878.5,824.167 877.167,825.5 877.5,828.5C 875.801,828.34 874.134,828.506 872.5,829C 871.588,831.205 870.255,833.038 868.5,834.5C 867.199,836.672 866.199,839.005 865.5,841.5C 863.801,841.34 862.134,841.506 860.5,842C 859.842,843.905 858.675,845.405 857,846.5C 856.51,847.793 856.343,849.127 856.5,850.5C 855.5,850.5 854.5,850.5 853.5,850.5C 853.5,851.833 853.5,853.167 853.5,854.5C 851.396,854.201 849.396,854.534 847.5,855.5C 847.624,856.107 847.957,856.44 848.5,856.5C 848.5,857.5 848.5,858.5 848.5,859.5C 847.209,859.263 846.209,859.596 845.5,860.5C 845.5,861.5 845.5,862.5 845.5,863.5C 843.167,863.5 840.833,863.5 838.5,863.5C 838.5,865.167 838.5,866.833 838.5,868.5C 836.833,868.5 835.167,868.5 833.5,868.5C 833.5,870.167 833.5,871.833 833.5,873.5C 832.5,873.5 831.5,873.5 830.5,873.5C 830.5,874.833 830.5,876.167 830.5,877.5C 828.5,877.5 826.5,877.5 824.5,877.5C 824.5,878.833 824.5,880.167 824.5,881.5C 823.5,881.5 822.5,881.5 821.5,881.5C 821.44,880.957 821.107,880.624 820.5,880.5C 819.571,881.689 819.238,883.022 819.5,884.5C 815.759,883.599 813.759,884.932 813.5,888.5C 811.5,888.5 809.5,888.5 807.5,888.5C 807.5,889.833 807.5,891.167 807.5,892.5C 805.396,892.201 803.396,892.534 801.5,893.5C 801.624,894.107 801.957,894.44 802.5,894.5C 802.5,895.167 802.5,895.833 802.5,896.5C 800.167,896.5 797.833,896.5 795.5,896.5C 795.5,898.167 795.5,899.833 795.5,901.5C 794.5,901.5 793.5,901.5 792.5,901.5C 792.5,902.833 792.5,904.167 792.5,905.5C 790.5,905.5 788.5,905.5 786.5,905.5C 786.5,906.833 786.5,908.167 786.5,909.5C 784.5,909.5 782.5,909.5 780.5,909.5C 780.5,911.167 780.5,912.833 780.5,914.5C 778.167,914.5 775.833,914.5 773.5,914.5C 773.5,915.833 773.5,917.167 773.5,918.5C 771.712,918.215 770.045,918.548 768.5,919.5C 768.624,920.107 768.957,920.44 769.5,920.5C 769.5,921.5 769.5,922.5 769.5,923.5C 766.612,922.99 764.279,923.656 762.5,925.5C 762.804,926.15 763.137,926.817 763.5,927.5C 761.257,928.474 758.924,928.808 756.5,928.5C 756.5,929.833 756.5,931.167 756.5,932.5C 753.833,932.5 751.167,932.5 748.5,932.5C 748.44,931.957 748.107,931.624 747.5,931.5C 746.548,933.045 746.215,934.712 746.5,936.5C 745.167,936.5 743.833,936.5 742.5,936.5C 740.744,937.552 740.077,939.219 740.5,941.5C 738.833,941.5 737.167,941.5 735.5,941.5C 734.58,940.933 734.246,941.599 734.5,943.5C 732.409,943.318 730.409,943.652 728.5,944.5C 727.614,945.325 727.281,946.325 727.5,947.5C 724.712,947.077 722.712,948.077 721.5,950.5C 631.169,951.5 540.836,951.833 450.5,951.5C 450.5,950.833 450.5,950.167 450.5,949.5C 452.179,949.715 453.179,949.048 453.5,947.5C 453.5,946.5 453.5,945.5 453.5,944.5C 457.833,944.5 462.167,944.5 466.5,944.5C 466.5,943.167 466.5,941.833 466.5,940.5C 469.167,940.5 471.833,940.5 474.5,940.5C 475.434,939.432 475.768,938.099 475.5,936.5C 478.833,936.5 482.167,936.5 485.5,936.5C 485.5,934.833 485.5,933.167 485.5,931.5C 488.167,931.5 490.833,931.5 493.5,931.5C 493.5,929.833 493.5,928.167 493.5,926.5C 495.5,926.5 497.5,926.5 499.5,926.5C 499.5,925.167 499.5,923.833 499.5,922.5C 502.5,922.5 505.5,922.5 508.5,922.5C 509.434,921.432 509.768,920.099 509.5,918.5C 511.167,918.5 512.833,918.5 514.5,918.5C 515.338,918.158 515.672,917.492 515.5,916.5C 518.187,916.664 520.854,916.497 523.5,916C 525.201,913.61 527.534,912.11 530.5,911.5C 531.246,910.264 531.579,908.93 531.5,907.5C 533.288,907.785 534.955,907.452 536.5,906.5C 536.376,905.893 536.043,905.56 535.5,905.5C 535.5,904.5 535.5,903.5 535.5,902.5C 538.833,902.5 542.167,902.5 545.5,902.5C 545.5,901.167 545.5,899.833 545.5,898.5C 547.833,898.5 550.167,898.5 552.5,898.5C 552.5,897.167 552.5,895.833 552.5,894.5C 554.415,894.784 556.081,894.451 557.5,893.5C 558.404,892.791 558.737,891.791 558.5,890.5C 560.415,890.784 562.081,890.451 563.5,889.5C 563.672,888.508 563.338,887.842 562.5,887.5C 562.5,887.167 562.5,886.833 562.5,886.5C 564.764,885.781 567.097,885.448 569.5,885.5C 570.434,884.432 570.768,883.099 570.5,881.5C 573.572,881.817 576.572,881.484 579.5,880.5C 579.376,879.893 579.043,879.56 578.5,879.5C 578.5,878.5 578.5,877.5 578.5,876.5C 580.833,876.5 583.167,876.5 585.5,876.5C 585.5,875.167 585.5,873.833 585.5,872.5C 587.5,872.5 589.5,872.5 591.5,872.5C 591.5,870.833 591.5,869.167 591.5,867.5C 593.167,867.5 594.833,867.5 596.5,867.5C 596.5,865.833 596.5,864.167 596.5,862.5C 597.5,862.5 598.5,862.5 599.5,862.5C 599.56,863.043 599.893,863.376 600.5,863.5C 601.386,862.675 601.719,861.675 601.5,860.5C 605.241,861.401 607.241,860.068 607.5,856.5C 611.241,857.401 613.241,856.068 613.5,852.5C 617.241,853.401 619.241,852.068 619.5,848.5C 621.167,848.5 622.833,848.5 624.5,848.5C 624.5,847.5 624.5,846.5 624.5,845.5C 624.5,844.833 624.5,844.167 624.5,843.5C 625.833,843.5 627.167,843.5 628.5,843.5C 628.5,842.167 628.5,840.833 628.5,839.5C 630.735,839.795 632.735,839.461 634.5,838.5C 634.5,837.167 634.5,835.833 634.5,834.5C 635.5,834.5 636.5,834.5 637.5,834.5C 637.5,833.167 637.5,831.833 637.5,830.5C 639.5,830.5 641.5,830.5 643.5,830.5C 643.5,828.833 643.5,827.167 643.5,825.5C 644.5,825.5 645.5,825.5 646.5,825.5C 646.5,824.167 646.5,822.833 646.5,821.5C 648.167,821.5 649.833,821.5 651.5,821.5C 654.133,819.223 655.466,816.223 655.5,812.5C 656.884,811.199 658.384,811.199 660,812.5C 660.494,810.866 660.66,809.199 660.5,807.5C 661.873,807.657 663.207,807.49 664.5,807C 663.167,806 663.167,805 664.5,804C 666.473,803.505 668.473,803.338 670.5,803.5C 670.5,802.167 670.5,800.833 670.5,799.5C 671.5,799.5 672.5,799.5 673.5,799.5C 673.077,797.219 673.744,795.552 675.5,794.5C 675.56,795.043 675.893,795.376 676.5,795.5C 677.386,794.675 677.719,793.675 677.5,792.5C 679.467,792.739 681.301,792.406 683,791.5C 685.461,787.616 687.628,783.616 689.5,779.5C 690.5,779.5 691.5,779.5 692.5,779.5C 692.5,778.167 692.5,776.833 692.5,775.5C 694.5,775.5 696.5,775.5 698.5,775.5C 698.5,774.167 698.5,772.833 698.5,771.5C 699.675,771.719 700.675,771.386 701.5,770.5C 703.45,767.507 705.45,764.507 707.5,761.5C 707.376,760.893 707.043,760.56 706.5,760.5C 706.5,759.5 706.5,758.5 706.5,757.5C 707.978,757.762 709.311,757.429 710.5,756.5C 710.376,755.893 710.043,755.56 709.5,755.5C 709.5,754.5 709.5,753.5 709.5,752.5C 710.873,752.657 712.207,752.49 713.5,752C 712.663,750.989 712.33,749.822 712.5,748.5C 713.978,748.762 715.311,748.429 716.5,747.5C 715.289,746.28 715.289,745.113 716.5,744C 718.134,743.506 719.801,743.34 721.5,743.5C 721.5,740.833 721.5,738.167 721.5,735.5C 722.5,735.5 723.5,735.5 724.5,735.5C 724.5,733.833 724.5,732.167 724.5,730.5C 725.5,730.5 726.5,730.5 727.5,730.5C 727.56,731.043 727.893,731.376 728.5,731.5C 730.876,728.962 733.042,726.296 735,723.5C 736.161,720.733 737.327,718.067 738.5,715.5C 739.5,715.5 740.5,715.5 741.5,715.5C 741.5,714.167 741.5,712.833 741.5,711.5C 742.5,711.5 743.5,711.5 744.5,711.5C 744.5,708.5 744.5,705.5 744.5,702.5C 745.5,702.5 746.5,702.5 747.5,702.5C 747.5,701.167 747.5,699.833 747.5,698.5C 748.675,698.719 749.675,698.386 750.5,697.5C 750.376,696.893 750.043,696.56 749.5,696.5C 749.5,693.833 749.5,691.167 749.5,688.5C 750.5,688.5 751.5,688.5 752.5,688.5C 752.5,687.167 752.5,685.833 752.5,684.5C 753.5,684.5 754.5,684.5 755.5,684.5C 755.5,682.167 755.5,679.833 755.5,677.5C 756.833,677.5 758.167,677.5 759.5,677.5C 759.5,674.833 759.5,672.167 759.5,669.5C 761.179,669.715 762.179,669.048 762.5,667.5C 762.5,663.833 762.5,660.167 762.5,656.5C 763.5,656.5 764.5,656.5 765.5,656.5C 765.5,650.5 765.5,644.5 765.5,638.5C 766.5,638.5 767.5,638.5 768.5,638.5C 768.5,626.833 768.5,615.167 768.5,603.5C 767.5,603.5 766.5,603.5 765.5,603.5C 765.815,599.629 765.482,595.962 764.5,592.5C 763.833,592.5 763.167,592.5 762.5,592.5C 762.84,589.028 762.507,586.361 761.5,584.5C 760.5,584.5 759.5,584.5 758.5,584.5C 758.5,581.5 758.5,578.5 758.5,575.5C 757.5,575.5 756.5,575.5 755.5,575.5C 755.5,572.5 755.5,569.5 755.5,566.5C 754.5,566.5 753.5,566.5 752.5,566.5C 752.5,565.167 752.5,563.833 752.5,562.5C 751.5,562.5 750.5,562.5 749.5,562.5C 749.5,561.167 749.5,559.833 749.5,558.5C 748.791,557.596 747.791,557.263 746.5,557.5C 746.5,555.167 746.5,552.833 746.5,550.5C 746.179,548.952 745.179,548.285 743.5,548.5C 743.5,547.833 743.5,547.167 743.5,546.5C 742.551,544.263 741.884,541.929 741.5,539.5C 740.5,539.5 739.5,539.5 738.5,539.5C 737.219,536.84 735.885,534.173 734.5,531.5C 733.081,530.549 731.415,530.216 729.5,530.5C 729.649,529.448 729.483,528.448 729,527.5C 726.648,524.646 724.481,521.646 722.5,518.5C 720.591,517.652 718.591,517.318 716.5,517.5C 715.817,515.824 714.483,515.157 712.5,515.5C 712.33,514.178 712.663,513.011 713.5,512C 712.207,511.51 710.873,511.343 709.5,511.5C 709.5,510.5 709.5,509.5 709.5,508.5C 710.043,508.44 710.376,508.107 710.5,507.5C 708.257,506.526 705.924,506.192 703.5,506.5C 703.5,505.833 703.5,505.167 703.5,504.5C 704.404,503.791 704.737,502.791 704.5,501.5C 702.833,501.5 701.167,501.5 699.5,501.5C 699.843,499.517 699.176,498.183 697.5,497.5C 695.833,497.5 694.167,497.5 692.5,497.5C 692.5,496.167 692.5,494.833 692.5,493.5C 691.5,493.5 690.5,493.5 689.5,493.5C 689.5,491.833 689.5,490.167 689.5,488.5C 687.5,488.5 685.5,488.5 683.5,488.5C 683.5,487.167 683.5,485.833 683.5,484.5C 681.5,484.5 679.5,484.5 677.5,484.5C 677.5,482.833 677.5,481.167 677.5,479.5C 675.167,479.5 672.833,479.5 670.5,479.5C 670.5,478.833 670.5,478.167 670.5,477.5C 669.082,475.692 667.082,475.025 664.5,475.5C 664.5,474.833 664.5,474.167 664.5,473.5C 663.448,471.744 661.781,471.077 659.5,471.5C 659.512,467.554 657.512,465.887 653.5,466.5C 653.67,465.178 653.337,464.011 652.5,463C 649.854,462.503 647.187,462.336 644.5,462.5C 644.719,461.325 644.386,460.325 643.5,459.5C 641.591,458.652 639.591,458.318 637.5,458.5C 637.719,457.325 637.386,456.325 636.5,455.5C 635.893,455.624 635.56,455.957 635.5,456.5C 632.833,456.5 630.167,456.5 627.5,456.5C 627.5,454.833 627.5,453.167 627.5,451.5C 625.5,451.5 623.5,451.5 621.5,451.5C 621.5,450.167 621.5,448.833 621.5,447.5C 618.167,447.5 614.833,447.5 611.5,447.5C 611.5,446.5 611.5,445.5 611.5,444.5C 612.043,444.44 612.376,444.107 612.5,443.5C 610.955,442.548 609.288,442.215 607.5,442.5C 607.5,440.833 607.5,439.167 607.5,437.5C 604.5,437.5 601.5,437.5 598.5,437.5C 598.5,436.167 598.5,434.833 598.5,433.5C 596.167,433.5 593.833,433.5 591.5,433.5C 591.5,432.167 591.5,430.833 591.5,429.5C 588.167,429.5 584.833,429.5 581.5,429.5C 581.5,428.833 581.5,428.167 581.5,427.5C 582.404,426.791 582.737,425.791 582.5,424.5C 579.5,424.5 576.5,424.5 573.5,424.5C 573.5,423.167 573.5,421.833 573.5,420.5C 570.5,420.5 567.5,420.5 564.5,420.5C 564.5,419.167 564.5,417.833 564.5,416.5C 562.5,416.5 560.5,416.5 558.5,416.5C 558.714,414.856 558.38,413.356 557.5,412C 553.044,412.102 549.044,411.268 545.5,409.5C 543.721,407.656 541.388,406.99 538.5,407.5C 538.5,406.833 538.5,406.167 538.5,405.5C 539.404,404.791 539.737,403.791 539.5,402.5C 536.753,402.813 534.086,402.48 531.5,401.5C 531.167,400.833 530.833,400.167 530.5,399.5C 526.897,398.968 523.564,397.968 520.5,396.5C 517.833,396.5 515.167,396.5 512.5,396.5C 512.785,394.712 512.452,393.045 511.5,391.5C 510.893,391.624 510.56,391.957 510.5,392.5C 508.167,392.5 505.833,392.5 503.5,392.5C 503.923,390.219 503.256,388.552 501.5,387.5C 498.833,387.5 496.167,387.5 493.5,387.5C 493.5,386.167 493.5,384.833 493.5,383.5C 491.052,382.527 488.385,382.194 485.5,382.5C 485.768,380.901 485.434,379.568 484.5,378.5C 481.5,378.5 478.5,378.5 475.5,378.5C 475.5,377.167 475.5,375.833 475.5,374.5C 472.5,374.5 469.5,374.5 466.5,374.5C 466.5,372.833 466.5,371.167 466.5,369.5C 464.5,369.5 462.5,369.5 460.5,369.5C 460.5,368.167 460.5,366.833 460.5,365.5C 457.167,365.5 453.833,365.5 450.5,365.5C 450.5,364.833 450.5,364.167 450.5,363.5C 451.404,362.791 451.737,361.791 451.5,360.5C 449.5,360.5 447.5,360.5 445.5,360.5C 445.5,359.167 445.5,357.833 445.5,356.5C 442.5,356.5 439.5,356.5 436.5,356.5C 436.67,355.178 436.337,354.011 435.5,353C 433.527,352.505 431.527,352.338 429.5,352.5C 429.5,350.833 429.5,349.167 429.5,347.5C 426.5,347.5 423.5,347.5 420.5,347.5C 420.5,346.5 420.5,345.5 420.5,344.5C 418.5,344.5 416.5,344.5 414.5,344.5C 414.737,343.209 414.404,342.209 413.5,341.5C 411.5,341.5 409.5,341.5 407.5,341.5C 407.5,340.167 407.5,338.833 407.5,337.5C 405.5,337.5 403.5,337.5 401.5,337.5C 401.5,335.833 401.5,334.167 401.5,332.5C 399.5,332.5 397.5,332.5 395.5,332.5C 395.843,330.517 395.176,329.183 393.5,328.5C 393.784,326.585 393.451,324.919 392.5,323.5C 390.833,323.5 389.167,323.5 387.5,323.5C 387.5,321.833 387.5,320.167 387.5,318.5C 385.5,318.5 383.5,318.5 381.5,318.5C 381.5,317.167 381.5,315.833 381.5,314.5C 380.5,314.5 379.5,314.5 378.5,314.5C 378.768,312.901 378.434,311.568 377.5,310.5C 376.5,310.5 375.5,310.5 374.5,310.5C 374.5,309.167 374.5,307.833 374.5,306.5C 373.5,306.5 372.5,306.5 371.5,306.5C 371.5,304.833 371.5,303.167 371.5,301.5C 369.167,301.5 366.833,301.5 364.5,301.5C 364.5,300.833 364.5,300.167 364.5,299.5C 365.043,299.44 365.376,299.107 365.5,298.5C 364.311,297.571 362.978,297.238 361.5,297.5C 361.5,295.167 361.5,292.833 361.5,290.5C 362.043,290.44 362.376,290.107 362.5,289.5C 361.024,288.12 360.024,286.453 359.5,284.5C 357.158,281.161 354.492,278.161 351.5,275.5C 350.833,271.687 350.166,268.021 349.5,264.5C 348.833,264.5 348.167,264.5 347.5,264.5C 347.5,251.833 347.5,239.167 347.5,226.5C 348.5,226.5 349.5,226.5 350.5,226.5C 350.5,222.167 350.5,217.833 350.5,213.5C 351.552,213.649 352.552,213.483 353.5,213C 354.158,211.095 355.325,209.595 357,208.5C 357.498,205.518 357.665,202.518 357.5,199.5C 358.451,198.081 358.784,196.415 358.5,194.5C 359.5,194.5 360.5,194.5 361.5,194.5C 361.5,193.167 361.5,191.833 361.5,190.5C 362.5,190.5 363.5,190.5 364.5,190.5C 364.5,189.167 364.5,187.833 364.5,186.5C 365.5,186.5 366.5,186.5 367.5,186.5C 369.134,185.419 370.467,184.085 371.5,182.5C 371.5,181.5 371.5,180.5 371.5,179.5C 372.5,179.5 373.5,179.5 374.5,179.5C 374.5,178.167 374.5,176.833 374.5,175.5C 376.527,175.662 378.527,175.495 380.5,175C 383.022,172.05 385.188,168.884 387,165.5C 387.483,164.552 387.649,163.552 387.5,162.5C 389.5,162.5 391.5,162.5 393.5,162.5C 393.365,160.446 394.032,158.779 395.5,157.5C 395.5,156.833 395.5,156.167 395.5,155.5C 395.5,154.833 395.5,154.167 395.5,153.5C 397.735,153.795 399.735,153.461 401.5,152.5C 401.5,151.167 401.5,149.833 401.5,148.5C 403.5,148.5 405.5,148.5 407.5,148.5C 407.5,147.167 407.5,145.833 407.5,144.5C 409.167,144.5 410.833,144.5 412.5,144.5C 414.256,143.448 414.923,141.781 414.5,139.5C 416.167,139.5 417.833,139.5 419.5,139.5C 419.56,140.043 419.893,140.376 420.5,140.5C 421.985,138.148 423.318,135.814 424.5,133.5C 427.187,133.664 429.854,133.497 432.5,133C 433.056,132.617 433.389,132.117 433.5,131.5C 433.5,130.5 433.5,129.5 433.5,128.5C 437.241,129.401 439.241,128.068 439.5,124.5C 443.241,125.401 445.241,124.068 445.5,120.5C 447.604,120.799 449.604,120.466 451.5,119.5C 451.376,118.893 451.043,118.56 450.5,118.5C 450.5,117.5 450.5,116.5 450.5,115.5C 453.833,115.5 457.167,115.5 460.5,115.5C 460.5,114.167 460.5,112.833 460.5,111.5C 462.5,111.5 464.5,111.5 466.5,111.5C 466.5,110.167 466.5,108.833 466.5,107.5C 468.5,107.5 470.5,107.5 472.5,107.5C 472.5,105.833 472.5,104.167 472.5,102.5C 475.167,102.5 477.833,102.5 480.5,102.5C 482.104,101.713 482.771,100.38 482.5,98.5C 485.247,98.8134 487.914,98.48 490.5,97.5C 490.376,96.8933 490.043,96.56 489.5,96.5C 489.5,95.5 489.5,94.5 489.5,93.5C 492.059,93.8016 494.393,93.4682 496.5,92.5C 496.5,91.5 496.5,90.5 496.5,89.5C 499.5,89.5 502.5,89.5 505.5,89.5C 506.434,88.4324 506.768,87.099 506.5,85.5C 509.5,85.5 512.5,85.5 515.5,85.5C 515.5,83.8333 515.5,82.1667 515.5,80.5C 517.167,80.5 518.833,80.5 520.5,80.5C 520.56,81.0431 520.893,81.3764 521.5,81.5C 522.429,80.3112 522.762,78.9778 522.5,77.5C 525.187,77.6641 527.854,77.4974 530.5,77C 531.337,75.9887 531.67,74.8221 531.5,73.5C 534.698,74.0356 537.365,73.369 539.5,71.5C 539.167,70.8333 538.833,70.1667 538.5,69.5C 541.85,69.665 545.183,69.4983 548.5,69C 549.337,67.9887 549.67,66.8221 549.5,65.5C 552.698,66.0356 555.365,65.369 557.5,63.5C 558.404,62.791 558.737,61.791 558.5,60.5C 562.241,61.4015 564.241,60.0681 564.5,56.5C 567.5,56.5 570.5,56.5 573.5,56.5C 573.5,55.1667 573.5,53.8333 573.5,52.5C 576.5,52.5 579.5,52.5 582.5,52.5C 582.737,51.209 582.404,50.209 581.5,49.5C 581.5,48.8333 581.5,48.1667 581.5,47.5C 584.833,47.5 588.167,47.5 591.5,47.5C 591.5,46.1667 591.5,44.8333 591.5,43.5C 594.5,43.5 597.5,43.5 600.5,43.5C 600.5,41.8333 600.5,40.1667 600.5,38.5C 603.5,38.5 606.5,38.5 609.5,38.5C 610.434,37.4324 610.768,36.099 610.5,34.5C 613.5,34.5 616.5,34.5 619.5,34.5C 619.5,33.1667 619.5,31.8333 619.5,30.5C 622.5,30.5 625.5,30.5 628.5,30.5C 628.5,28.8333 628.5,27.1667 628.5,25.5C 630.5,25.5 632.5,25.5 634.5,25.5C 634.5,23.8333 634.5,22.1667 634.5,20.5C 637.167,20.5 639.833,20.5 642.5,20.5C 642.56,21.0431 642.893,21.3764 643.5,21.5C 644.386,20.675 644.719,19.675 644.5,18.5C 647.249,18.7261 649.916,18.3928 652.5,17.5C 653.281,16.2713 653.781,14.938 654,13.5C 656.466,14.7766 658.966,14.7766 661.5,13.5C 662.246,12.2638 662.579,10.9305 662.5,9.5C 733.167,9.5 803.833,9.5 874.5,9.5C 874.5,10.5 874.5,11.5 874.5,12.5 Z"/></g>
</svg>