<?xml version="1.0" encoding="UTF-8"?>
<svg version="1.1" xmlns="http://www.w3.org/2000/svg" width="320" height="320">
<path d="M0 0 C105.6 0 211.2 0 320 0 C320 105.6 320 211.2 320 320 C214.4 320 108.8 320 0 320 C0 214.4 0 108.8 0 0 Z " fill="#E9E8E7" transform="translate(0,0)"/>
<path d="M0 0 C29.37 0 58.74 0 89 0 C88.67 0.99 88.34 1.98 88 3 C87.34 3 86.68 3 86 3 C86 3.66 86 4.32 86 5 C84.37750059 5.83819158 82.75191503 6.6704116 81.125 7.5 C80.22007813 7.9640625 79.31515625 8.428125 78.3828125 8.90625 C76 10 76 10 74 10 C74 10.66 74 11.32 74 12 C72.35 12.33 70.7 12.66 69 13 C69 13.66 69 14.32 69 15 C63.58823529 19 63.58823529 19 61 19 C61 19.66 61 20.32 61 21 C60.360625 21.103125 59.72125 21.20625 59.0625 21.3125 C58.381875 21.539375 57.70125 21.76625 57 22 C56.505 23.485 56.505 23.485 56 25 C55.34 25 54.68 25 54 25 C54 25.66 54 26.32 54 27 C52.96875 27.515625 51.9375 28.03125 50.875 28.5625 C47.27521053 30.6091545 44.98695788 33.04829793 42.41796875 36.2578125 C40.44992239 38.67585293 38.20269928 40.79730072 36 43 C35.505 43.99 35.505 43.99 35 45 C34.34 45 33.68 45 33 45 C32.72929688 45.56847656 32.45859375 46.13695312 32.1796875 46.72265625 C30.96238243 49.07261934 29.56835401 51.22011936 28.125 53.4375 C20.42467349 66.16469003 17.18511473 84.36409548 20.46435547 99.08447266 C24.26226836 111.651601 31.79921671 122.69272659 40.1875 132.625 C40.68652832 133.21740479 41.18555664 133.80980957 41.69970703 134.42016602 C44.54879259 137.68282851 47.18404352 139.86198183 51 142 C51.66666667 143.33333333 52.33333333 144.66666667 53 146 C55.05000871 146.80528889 55.05000871 146.80528889 57 147 C57 147.66 57 148.32 57 149 C57.99 149.33 58.98 149.66 60 150 C60 150.66 60 151.32 60 152 C60.763125 152.28875 61.52625 152.5775 62.3125 152.875 C65 154 65 154 68 156 C68 156.66 68 157.32 68 158 C70.97 158.99 73.94 159.98 77 161 C77 161.66 77 162.32 77 163 C78.65 163.33 80.3 163.66 82 164 C82 164.66 82 165.32 82 166 C84.97 166.66 87.94 167.32 91 168 C91 168.66 91 169.32 91 170 C91.9075 170.28875 92.815 170.5775 93.75 170.875 C96.32202908 171.76531776 98.61346766 172.71494413 101 174 C101 174.66 101 175.32 101 176 C104.3 176.66 107.6 177.32 111 178 C111 178.66 111 179.32 111 180 C112.2065625 180.4021875 112.2065625 180.4021875 113.4375 180.8125 C119.71875 182.90625 119.71875 182.90625 126 185 C126 185.66 126 186.32 126 187 C126.66515625 187.09152344 127.3303125 187.18304688 128.015625 187.27734375 C138.43055064 189.79928255 151.40732481 196.69616494 157.2109375 205.92578125 C159.02733978 210.7005813 158.50456089 216.23403689 157.125 221.0625 C156 223 156 223 154 224 C153.67 224.99 153.34 225.98 153 227 C152.34 227 151.68 227 151 227 C150.773125 227.556875 150.54625 228.11375 150.3125 228.6875 C147.44041691 233.74783686 142.54661445 237.46374432 138 241 C137.34 241 136.68 241 136 241 C136 241.66 136 242.32 136 243 C133.734375 244.69140625 133.734375 244.69140625 130.75 246.5625 C129.77546875 247.18253906 128.8009375 247.80257812 127.796875 248.44140625 C125.43180391 249.75937184 123.63809243 250.54147441 121 251 C121 251.66 121 252.32 121 253 C118.62109375 254.5859375 118.62109375 254.5859375 115.4375 256.375 C113.7978125 257.30699219 113.7978125 257.30699219 112.125 258.2578125 C110.33505848 259.2557049 108.54405927 260.25171728 106.75 261.2421875 C103.33643665 263.12222818 103.33643665 263.12222818 100.4375 265.6875 C98.23928674 267.69456428 95.88029938 267.67996674 93 268 C93 268.66 93 269.32 93 270 C91.37750059 270.83819158 89.75191503 271.6704116 88.125 272.5 C87.22007813 272.9640625 86.31515625 273.428125 85.3828125 273.90625 C83 275 83 275 81 275 C81 275.66 81 276.32 81 277 C80.34 277 79.68 277 79 277 C79 277.66 79 278.32 79 279 C76.36 279.66 73.72 280.32 71 281 C71 281.66 71 282.32 71 283 C69.71086513 283.67154933 68.41859796 284.33708859 67.125 285 C66.40570313 285.37125 65.68640625 285.7425 64.9453125 286.125 C63 287 63 287 61 287 C61 287.66 61 288.32 61 289 C60.0925 289.37125 59.185 289.7425 58.25 290.125 C53.59897301 292.09787416 49.14907971 294.45777695 44.671875 296.79296875 C42 298 42 298 39 298 C39 298.66 39 299.32 39 300 C37.35 300.33 35.7 300.66 34 301 C34 301.66 34 302.32 34 303 C31.69 303.66 29.38 304.32 27 305 C27 305.66 27 306.32 27 307 C24.36 307.66 21.72 308.32 19 309 C19 309.66 19 310.32 19 311 C18.319375 311.2475 17.63875 311.495 16.9375 311.75 C14.57222311 312.7565008 12.51447598 313.8259263 10.3125 315.125 C7 317 7 317 5 317 C5.495 318.485 5.495 318.485 6 320 C4.02 320 2.04 320 0 320 C0 214.4 0 108.8 0 0 Z " fill="#EBEAE9" transform="translate(0,0)"/>
<path d="M0 0 C1.06845406 -0.00021904 1.06845406 -0.00021904 2.15849304 -0.0004425 C4.51763941 0.00025528 6.87670724 0.00804142 9.23583984 0.01586914 C10.86965898 0.0177338 12.50347868 0.01915747 14.13729858 0.02015686 C18.44125914 0.0239783 22.74518605 0.03380541 27.0491333 0.04486084 C31.43948918 0.05508297 35.82985049 0.0596562 40.22021484 0.06469727 C48.8374178 0.075428 57.45459339 0.09249996 66.07177734 0.11352539 C61.44677734 4.11352539 61.44677734 4.11352539 58.07177734 4.11352539 C58.07177734 4.77352539 58.07177734 5.43352539 58.07177734 6.11352539 C56.83427734 6.56727539 55.59677734 7.02102539 54.32177734 7.48852539 C52.04687332 8.33509461 49.92095319 9.19097563 47.75927734 10.30102539 C46.07177734 11.11352539 46.07177734 11.11352539 43.07177734 11.11352539 C43.07177734 11.77352539 43.07177734 12.43352539 43.07177734 13.11352539 C40.76177734 13.77352539 38.45177734 14.43352539 36.07177734 15.11352539 C36.07177734 15.77352539 36.07177734 16.43352539 36.07177734 17.11352539 C32.45924114 18.96179973 28.86278924 20.66402084 25.07177734 22.11352539 C25.07177734 22.77352539 25.07177734 23.43352539 25.07177734 24.11352539 C23.42177734 24.44352539 21.77177734 24.77352539 20.07177734 25.11352539 C20.07177734 25.77352539 20.07177734 26.43352539 20.07177734 27.11352539 C18.31396484 28.44555664 18.31396484 28.44555664 15.94677734 29.92602539 C13.01181217 31.8071763 10.26337908 33.69866259 7.63427734 35.98852539 C5.07177734 38.11352539 5.07177734 38.11352539 3.07177734 38.11352539 C2.74177734 39.10352539 2.41177734 40.09352539 2.07177734 41.11352539 C1.43240234 41.25790039 0.79302734 41.40227539 0.13427734 41.55102539 C-0.54634766 41.73665039 -1.22697266 41.92227539 -1.92822266 42.11352539 C-2.600533 43.44402192 -3.26639125 44.77778537 -3.92822266 46.11352539 C-5.40869141 47.68383789 -5.40869141 47.68383789 -7.11572266 49.23852539 C-14.21406244 56.17419489 -18.60800966 63.83120949 -21.92822266 73.11352539 C-22.25822266 73.77352539 -22.58822266 74.43352539 -22.92822266 75.11352539 C-23.07999107 77.69066976 -23.15962403 80.22279017 -23.17822266 82.80102539 C-23.19884766 83.49647461 -23.21947266 84.19192383 -23.24072266 84.90844727 C-23.32617005 96.34771701 -15.77336278 106.47529512 -8.05322266 114.36352539 C-1.53717483 120.58383731 5.04309977 125.72688244 13.01318359 129.92602539 C14.96376851 131.05122048 16.52057887 132.24461906 18.19677734 133.73852539 C21.3466745 136.34061435 24.3084584 137.56787654 28.07177734 139.11352539 C29.08240234 139.79415039 30.09302734 140.47477539 31.13427734 141.17602539 C34.07429942 143.11518888 36.70110406 144.15047588 40.07177734 145.11352539 C40.07177734 145.77352539 40.07177734 146.43352539 40.07177734 147.11352539 C40.75240234 147.21665039 41.43302734 147.31977539 42.13427734 147.42602539 C48.5006326 148.91602343 54.27676222 152.16518436 60.07177734 155.11352539 C60.07177734 155.77352539 60.07177734 156.43352539 60.07177734 157.11352539 C63.37177734 157.77352539 66.67177734 158.43352539 70.07177734 159.11352539 C70.07177734 159.77352539 70.07177734 160.43352539 70.07177734 161.11352539 C71.72177734 161.44352539 73.37177734 161.77352539 75.07177734 162.11352539 C75.07177734 162.77352539 75.07177734 163.43352539 75.07177734 164.11352539 C75.77302734 164.21149414 76.47427734 164.30946289 77.19677734 164.41040039 C84.70025361 166.24548969 92.05051924 171.33147061 97.07177734 177.11352539 C99.51231811 179.61507968 101.81186096 181.92334267 104.63427734 183.98852539 C107.76292134 186.71606118 109.13736336 189.45195606 111.07177734 193.11352539 C111.40177734 193.44352539 111.73177734 193.77352539 112.07177734 194.11352539 C112.11241566 195.77969654 112.11449835 197.44740634 112.07177734 199.11352539 C112.73177734 199.11352539 113.39177734 199.11352539 114.07177734 199.11352539 C117.02488444 205.01973959 115.87784124 216.71794592 114.00927734 222.98852539 C111.79661988 228.41959372 108.39865928 233.31222987 105.07177734 238.11352539 C104.28287109 239.26401367 104.28287109 239.26401367 103.47802734 240.43774414 C103.01396484 240.99075195 102.54990234 241.54375977 102.07177734 242.11352539 C101.41177734 242.11352539 100.75177734 242.11352539 100.07177734 242.11352539 C99.84490234 242.69102539 99.61802734 243.26852539 99.38427734 243.86352539 C97.73126296 246.69726434 95.67535521 248.14496652 93.07177734 250.11352539 C92.23646484 250.97977539 92.23646484 250.97977539 91.38427734 251.86352539 C90.07177734 253.11352539 90.07177734 253.11352539 88.07177734 253.11352539 C87.74177734 254.10352539 87.41177734 255.09352539 87.07177734 256.11352539 C74.94880751 267.11352539 74.94880751 267.11352539 70.07177734 267.11352539 C70.07177734 267.77352539 70.07177734 268.43352539 70.07177734 269.11352539 C66.0101051 272.13374322 61.62721476 274.5207868 57.18896484 276.94165039 C55.47705609 277.88920136 53.79945809 278.89857344 52.13427734 279.92602539 C50.07177734 281.11352539 50.07177734 281.11352539 48.07177734 281.11352539 C48.07177734 281.77352539 48.07177734 282.43352539 48.07177734 283.11352539 C46.42177734 283.44352539 44.77177734 283.77352539 43.07177734 284.11352539 C43.07177734 284.77352539 43.07177734 285.43352539 43.07177734 286.11352539 C42.52650391 286.40485352 41.98123047 286.69618164 41.41943359 286.99633789 C37.38585568 289.18894948 33.4850468 291.45472498 29.69677734 294.05102539 C25.59374829 296.8385252 21.34384109 299.20207258 16.97412109 301.54321289 C10.4785448 305.05764313 3.97995413 308.62678888 -1.99072266 312.98852539 C-6.55600006 316.29106649 -10.28157076 316.25316349 -15.7043457 316.22705078 C-16.89006165 316.22726982 -16.89006165 316.22726982 -18.09973145 316.22749329 C-20.71316266 316.22679649 -23.32652264 316.21901494 -25.93994141 316.21118164 C-27.75169333 316.20931664 -29.56344576 316.20789312 -31.37519836 316.20689392 C-36.14439282 316.20307524 -40.91355683 316.19325047 -45.68273926 316.18218994 C-50.54906808 316.17196188 -55.41540181 316.16739331 -60.28173828 316.16235352 C-69.83057978 316.15162765 -79.37939869 316.13455899 -88.92822266 316.11352539 C-86.10103153 313.21445652 -83.57597384 310.93740098 -79.92822266 309.11352539 C-78.60822266 309.11352539 -77.28822266 309.11352539 -75.92822266 309.11352539 C-75.92822266 308.45352539 -75.92822266 307.79352539 -75.92822266 307.11352539 C-73.02222004 305.85687561 -71.13217681 305.11352539 -67.92822266 305.11352539 C-67.92822266 304.45352539 -67.92822266 303.79352539 -67.92822266 303.11352539 C-65.61822266 302.45352539 -63.30822266 301.79352539 -60.92822266 301.11352539 C-60.92822266 300.45352539 -60.92822266 299.79352539 -60.92822266 299.11352539 C-59.27822266 298.78352539 -57.62822266 298.45352539 -55.92822266 298.11352539 C-55.92822266 297.45352539 -55.92822266 296.79352539 -55.92822266 296.11352539 C-55.34814453 295.85958008 -54.76806641 295.60563477 -54.17041016 295.34399414 C-48.93570718 293.03761511 -43.77116221 290.65683543 -38.74072266 287.92602539 C-36.92822266 287.11352539 -36.92822266 287.11352539 -33.92822266 287.11352539 C-33.92822266 286.45352539 -33.92822266 285.79352539 -33.92822266 285.11352539 C-27.30322266 281.11352539 -27.30322266 281.11352539 -23.92822266 281.11352539 C-23.92822266 280.45352539 -23.92822266 279.79352539 -23.92822266 279.11352539 C-21.02222004 277.85687561 -19.13217681 277.11352539 -15.92822266 277.11352539 C-15.92822266 276.45352539 -15.92822266 275.79352539 -15.92822266 275.11352539 C-15.26822266 275.11352539 -14.60822266 275.11352539 -13.92822266 275.11352539 C-13.92822266 274.45352539 -13.92822266 273.79352539 -13.92822266 273.11352539 C-12.30572325 272.27533381 -10.68013769 271.44311379 -9.05322266 270.61352539 C-8.14830078 270.14946289 -7.24337891 269.68540039 -6.31103516 269.20727539 C-3.92822266 268.11352539 -3.92822266 268.11352539 -1.92822266 268.11352539 C-1.92822266 267.45352539 -1.92822266 266.79352539 -1.92822266 266.11352539 C-0.64947266 265.86602539 0.62927734 265.61852539 1.94677734 265.36352539 C4.14762148 264.86537553 4.14762148 264.86537553 6.07177734 264.11352539 C7.23844401 262.19685872 7.23844401 262.19685872 8.07177734 260.11352539 C10.03105568 259.03592231 12.04364364 258.0551589 14.07177734 257.11352539 C16.70025602 255.54530729 19.30177167 253.93848347 21.89990234 252.32055664 C24.07177734 251.11352539 24.07177734 251.11352539 26.07177734 251.11352539 C26.07177734 250.45352539 26.07177734 249.79352539 26.07177734 249.11352539 C26.67505859 248.78739258 27.27833984 248.46125977 27.89990234 248.12524414 C28.69912109 247.68825195 29.49833984 247.25125977 30.32177734 246.80102539 C31.50513672 246.15713867 31.50513672 246.15713867 32.71240234 245.50024414 C35.10350709 244.16007699 35.10350709 244.16007699 37.24365234 242.44555664 C39.07177734 241.11352539 39.07177734 241.11352539 41.07177734 241.11352539 C41.07177734 240.45352539 41.07177734 239.79352539 41.07177734 239.11352539 C41.71115234 239.01040039 42.35052734 238.90727539 43.00927734 238.80102539 C43.68990234 238.57415039 44.37052734 238.34727539 45.07177734 238.11352539 C45.40177734 237.12352539 45.73177734 236.13352539 46.07177734 235.11352539 C50.5289202 231.11352539 50.5289202 231.11352539 53.07177734 231.11352539 C53.38115234 230.49477539 53.69052734 229.87602539 54.00927734 229.23852539 C54.69677734 227.86352539 55.38427734 226.48852539 56.07177734 225.11352539 C56.73177734 225.11352539 57.39177734 225.11352539 58.07177734 225.11352539 C58.40177734 223.79352539 58.73177734 222.47352539 59.07177734 221.11352539 C59.73177734 221.11352539 60.39177734 221.11352539 61.07177734 221.11352539 C62.67736166 215.09258419 63.22086049 208.66149237 60.63427734 202.92602539 C52.35534856 193.83939623 42.31890348 189.44643464 31.07177734 185.11352539 C31.07177734 184.45352539 31.07177734 183.79352539 31.07177734 183.11352539 C30.49169922 183.00395508 29.91162109 182.89438477 29.31396484 182.78149414 C24.47431457 181.79918889 20.41811619 180.56530628 16.07177734 178.11352539 C16.07177734 177.45352539 16.07177734 176.79352539 16.07177734 176.11352539 C12.77177734 175.45352539 9.47177734 174.79352539 6.07177734 174.11352539 C6.07177734 173.45352539 6.07177734 172.79352539 6.07177734 172.11352539 C5.34990234 171.82477539 4.62802734 171.53602539 3.88427734 171.23852539 C1.28011068 170.19685872 -1.32405599 169.15519206 -3.92822266 168.11352539 C-3.92822266 167.45352539 -3.92822266 166.79352539 -3.92822266 166.11352539 C-6.89822266 165.45352539 -9.86822266 164.79352539 -12.92822266 164.11352539 C-12.92822266 163.45352539 -12.92822266 162.79352539 -12.92822266 162.11352539 C-13.73259766 161.98977539 -14.53697266 161.86602539 -15.36572266 161.73852539 C-16.21134766 161.53227539 -17.05697266 161.32602539 -17.92822266 161.11352539 C-18.25822266 160.45352539 -18.58822266 159.79352539 -18.92822266 159.11352539 C-20.81086147 158.21008855 -20.81086147 158.21008855 -22.99072266 157.48852539 C-23.72419922 157.22813477 -24.45767578 156.96774414 -25.21337891 156.69946289 C-25.77927734 156.50610352 -26.34517578 156.31274414 -26.92822266 156.11352539 C-26.92822266 155.45352539 -26.92822266 154.79352539 -26.92822266 154.11352539 C-27.50572266 153.82477539 -28.08322266 153.53602539 -28.67822266 153.23852539 C-29.79197266 152.68165039 -29.79197266 152.68165039 -30.92822266 152.11352539 C-31.60884766 151.80415039 -32.28947266 151.49477539 -32.99072266 151.17602539 C-35.0533186 150.04492439 -36.42451363 148.91797622 -37.92822266 147.11352539 C-37.92822266 146.45352539 -37.92822266 145.79352539 -37.92822266 145.11352539 C-38.50572266 145.05165039 -39.08322266 144.98977539 -39.67822266 144.92602539 C-42.80797294 143.79583779 -43.89336166 141.70334847 -45.92822266 139.11352539 C-47.04970703 138.48510742 -47.04970703 138.48510742 -48.19384766 137.84399414 C-51.69615433 135.62753435 -54.07509379 132.94442723 -56.74072266 129.80102539 C-57.26480713 129.18364502 -57.7888916 128.56626465 -58.32885742 127.93017578 C-63.44323156 121.74099069 -67.36621751 115.31157275 -70.92822266 108.11352539 C-71.45544922 107.0784082 -71.98267578 106.04329102 -72.52587891 104.97680664 C-78.81095911 91.02357844 -76.91173979 74.80588586 -72.08447266 60.63696289 C-69.5434866 54.4378331 -65.97251624 48.44282851 -61.92822266 43.11352539 C-61.26822266 43.11352539 -60.60822266 43.11352539 -59.92822266 43.11352539 C-59.66396484 42.53344727 -59.39970703 41.95336914 -59.12744141 41.35571289 C-55.80772078 35.14880854 -49.82499559 28.96686216 -43.92822266 25.11352539 C-42.93822266 25.11352539 -41.94822266 25.11352539 -40.92822266 25.11352539 C-40.92822266 24.45352539 -40.92822266 23.79352539 -40.92822266 23.11352539 C-36.45763442 19.11352539 -36.45763442 19.11352539 -33.92822266 19.11352539 C-33.92822266 18.45352539 -33.92822266 17.79352539 -33.92822266 17.11352539 C-28.51645795 13.11352539 -28.51645795 13.11352539 -25.92822266 13.11352539 C-25.92822266 12.45352539 -25.92822266 11.79352539 -25.92822266 11.11352539 C-23.45322266 10.61852539 -23.45322266 10.61852539 -20.92822266 10.11352539 C-20.92822266 9.45352539 -20.92822266 8.79352539 -20.92822266 8.11352539 C-19.49527767 7.27238368 -18.0566786 6.44086852 -16.61572266 5.61352539 C-15.41496094 4.91743164 -15.41496094 4.91743164 -14.18994141 4.20727539 C-11.92822266 3.11352539 -11.92822266 3.11352539 -8.92822266 3.11352539 C-8.92822266 2.45352539 -8.92822266 1.79352539 -8.92822266 1.11352539 C-5.96414707 -0.3685124 -3.307431 -0.00568287 0 0 Z " fill="#030303" transform="translate(94.92822265625,1.886474609375)"/>
<path d="M0 0 C1.22355698 0.00222061 2.44711395 0.00444122 3.70774841 0.00672913 C4.38089081 0.0065831 5.0540332 0.00643707 5.74757385 0.00628662 C7.98229649 0.00698573 10.21693674 0.01477799 12.4516449 0.02259827 C13.99721226 0.02446245 15.54278022 0.02588635 17.08834839 0.02688599 C21.16380941 0.03071112 25.23923502 0.04054135 29.31468201 0.05158997 C33.47035747 0.0618042 37.62603864 0.06638363 41.78172302 0.07142639 C49.94124452 0.08216363 58.10073718 0.09923998 66.26023865 0.12025452 C66.26023865 0.78025452 66.26023865 1.44025452 66.26023865 2.12025452 C64.63773924 2.95844609 63.01215368 3.79066611 61.38523865 4.62025452 C60.48031677 5.08431702 59.5753949 5.54837952 58.64305115 6.02650452 C56.26023865 7.12025452 56.26023865 7.12025452 54.26023865 7.12025452 C54.26023865 7.78025452 54.26023865 8.44025452 54.26023865 9.12025452 C40.89130661 15.12025452 40.89130661 15.12025452 37.26023865 15.12025452 C37.26023865 15.78025452 37.26023865 16.44025452 37.26023865 17.12025452 C34.29023865 17.61525452 34.29023865 17.61525452 31.26023865 18.12025452 C31.26023865 18.78025452 31.26023865 19.44025452 31.26023865 20.12025452 C28.95023865 20.78025452 26.64023865 21.44025452 24.26023865 22.12025452 C24.26023865 22.78025452 24.26023865 23.44025452 24.26023865 24.12025452 C20.79845085 26.6084145 17.09724714 28.00435863 13.11961365 29.42494202 C11.14873915 30.12087361 11.14873915 30.12087361 8.94773865 31.30775452 C7.26023865 32.12025452 7.26023865 32.12025452 4.26023865 32.12025452 C4.26023865 32.78025452 4.26023865 33.44025452 4.26023865 34.12025452 C3.49840271 34.4953717 2.73656677 34.87048889 1.9516449 35.25697327 C-2.98018499 37.70133839 -7.86178569 40.15409182 -12.61476135 42.93275452 C-15.96991937 44.83951099 -18.83763472 45.82009093 -22.73976135 46.12025452 C-22.73976135 46.78025452 -22.73976135 47.44025452 -22.73976135 48.12025452 C-24.73976135 49.12025452 -26.73976135 50.12025452 -28.73976135 51.12025452 C-29.46163635 51.51212952 -30.18351135 51.90400452 -30.92726135 52.30775452 C-32.73976135 53.12025452 -32.73976135 53.12025452 -35.73976135 53.12025452 C-35.73976135 53.78025452 -35.73976135 54.44025452 -35.73976135 55.12025452 C-41.48976135 58.12025452 -41.48976135 58.12025452 -43.73976135 58.12025452 C-43.73976135 58.78025452 -43.73976135 59.44025452 -43.73976135 60.12025452 C-50.48976135 64.12025452 -50.48976135 64.12025452 -52.73976135 64.12025452 C-52.73976135 64.78025452 -52.73976135 65.44025452 -52.73976135 66.12025452 C-54.38976135 66.12025452 -56.03976135 66.12025452 -57.73976135 66.12025452 C-57.73976135 66.78025452 -57.73976135 67.44025452 -57.73976135 68.12025452 C-58.39976135 68.12025452 -59.05976135 68.12025452 -59.73976135 68.12025452 C-60.23476135 69.60525452 -60.23476135 69.60525452 -60.73976135 71.12025452 C-61.39976135 71.12025452 -62.05976135 71.12025452 -62.73976135 71.12025452 C-63.23476135 72.60525452 -63.23476135 72.60525452 -63.73976135 74.12025452 C-64.39976135 74.12025452 -65.05976135 74.12025452 -65.73976135 74.12025452 C-67.50538436 79.20940319 -68.15812704 82.75072727 -66.73976135 88.12025452 C-64.78166612 90.41314924 -64.78166612 90.41314924 -62.73976135 92.12025452 C-62.73976135 92.78025452 -62.73976135 93.44025452 -62.73976135 94.12025452 C-61.81163635 94.40900452 -60.88351135 94.69775452 -59.92726135 94.99525452 C-56.73976135 96.12025452 -56.73976135 96.12025452 -53.73976135 98.12025452 C-53.73976135 98.78025452 -53.73976135 99.44025452 -53.73976135 100.12025452 C-52.32374422 100.60133726 -50.90691698 101.08003592 -49.48976135 101.55775452 C-48.7008551 101.82459045 -47.91194885 102.09142639 -47.09913635 102.36634827 C-44.99154148 103.0398016 -42.89222162 103.61176046 -40.73976135 104.12025452 C-40.73976135 104.78025452 -40.73976135 105.44025452 -40.73976135 106.12025452 C-39.59507385 106.21306702 -39.59507385 106.21306702 -38.42726135 106.30775452 C-34.19186647 107.24097712 -30.71114246 108.88281329 -26.80226135 110.72572327 C-21.55106657 113.11689232 -16.13527602 115.08179947 -10.73976135 117.12025452 C-4.75516858 119.40133843 0.96002438 121.92338066 6.6547699 124.85462952 C9.33481895 126.15648243 12.04505851 127.23154557 14.82273865 128.30775452 C20.31856943 130.54919138 25.3914563 133.32547964 30.51023865 136.30775452 C31.27408875 136.74821106 32.03793884 137.1886676 32.82493591 137.64247131 C34.67399824 138.74126906 36.47286227 139.92372886 38.26023865 141.12025452 C38.26023865 141.78025452 38.26023865 142.44025452 38.26023865 143.12025452 C41.23023865 144.11025452 41.23023865 144.11025452 44.26023865 145.12025452 C44.26023865 145.78025452 44.26023865 146.44025452 44.26023865 147.12025452 C45.91023865 147.45025452 47.56023865 147.78025452 49.26023865 148.12025452 C49.26023865 148.78025452 49.26023865 149.44025452 49.26023865 150.12025452 C50.91023865 150.78025452 52.56023865 151.44025452 54.26023865 152.12025452 C54.26023865 152.78025452 54.26023865 153.44025452 54.26023865 154.12025452 C55.00273865 154.38837952 55.74523865 154.65650452 56.51023865 154.93275452 C59.15085813 156.07302202 61.11576709 157.21405758 63.26023865 159.12025452 C63.26023865 159.78025452 63.26023865 160.44025452 63.26023865 161.12025452 C64.25023865 161.45025452 65.24023865 161.78025452 66.26023865 162.12025452 C68.80850656 164.5928313 71.00465113 167.38099463 73.26023865 170.12025452 C73.85449646 170.82794983 74.44875427 171.53564514 75.0610199 172.26478577 C87.07897852 187.05406966 93.06566199 205.05173833 91.26023865 224.12025452 C89.60223557 238.8515385 84.46414925 254.26630154 75.26023865 266.12025452 C74.60023865 266.12025452 73.94023865 266.12025452 73.26023865 266.12025452 C73.00887146 266.67712952 72.75750427 267.23400452 72.4985199 267.80775452 C71.05895403 270.49615513 69.3486646 272.73591909 67.44773865 275.12025452 C66.78129333 275.96587952 66.11484802 276.81150452 65.4282074 277.68275452 C63.20924513 280.17758777 60.97592663 282.18111864 58.26023865 284.12025452 C57.60023865 284.12025452 56.94023865 284.12025452 56.26023865 284.12025452 C55.93023865 285.11025452 55.60023865 286.10025452 55.26023865 287.12025452 C53.7016449 288.72572327 53.7016449 288.72572327 51.82273865 290.30775452 C51.20527771 290.8375592 50.58781677 291.36736389 49.9516449 291.91322327 C48.26023865 293.12025452 48.26023865 293.12025452 46.26023865 293.12025452 C45.93023865 294.11025452 45.60023865 295.10025452 45.26023865 296.12025452 C44.60023865 296.12025452 43.94023865 296.12025452 43.26023865 296.12025452 C43.26023865 296.78025452 43.26023865 297.44025452 43.26023865 298.12025452 C42.62086365 298.22337952 41.98148865 298.32650452 41.32273865 298.43275452 C40.64211365 298.65962952 39.96148865 298.88650452 39.26023865 299.12025452 C38.93023865 300.11025452 38.60023865 301.10025452 38.26023865 302.12025452 C35.65781451 303.76845647 34.39775086 304.12025452 31.26023865 304.12025452 C31.26023865 304.78025452 31.26023865 305.44025452 31.26023865 306.12025452 C24.51023865 310.12025452 24.51023865 310.12025452 22.26023865 310.12025452 C22.26023865 310.78025452 22.26023865 311.44025452 22.26023865 312.12025452 C17.41811931 316.25965951 13.7302148 316.68615476 7.5009613 316.57435608 C6.64177094 316.57494019 5.78258057 316.57552429 4.89735413 316.5761261 C2.07258447 316.57335128 -0.75111476 316.54228815 -3.57569885 316.51087952 C-5.54009932 316.50341498 -7.50450726 316.49772305 -9.46891785 316.49372864 C-14.62789125 316.4784891 -19.78641097 316.43922163 -24.94520569 316.39491272 C-30.2139014 316.35392383 -35.48267075 316.33570989 -40.7514801 316.31556702 C-51.08110602 316.27272587 -61.41039589 316.20449478 -71.73976135 316.12025452 C-69.18817233 313.48480579 -67.38272292 311.68095911 -63.86476135 310.55775452 C-57.18902821 308.23842811 -51.86988943 304.85606028 -46.1421051 300.76478577 C-43.4555952 298.92572777 -40.69121032 297.48799916 -37.73976135 296.12025452 C-36.74976135 295.46025452 -35.75976135 294.80025452 -34.73976135 294.12025452 C-33.74976135 294.12025452 -32.75976135 294.12025452 -31.73976135 294.12025452 C-31.40976135 293.13025452 -31.07976135 292.14025452 -30.73976135 291.12025452 C-29.74976135 291.12025452 -28.75976135 291.12025452 -27.73976135 291.12025452 C-27.40976135 290.13025452 -27.07976135 289.14025452 -26.73976135 288.12025452 C-24.81145804 286.47975767 -22.90704352 284.97794181 -20.86476135 283.49525452 C-20.05071838 282.88423889 -20.05071838 282.88423889 -19.2202301 282.26087952 C-16.7365594 280.42697107 -14.68861631 279.10320617 -11.73976135 278.12025452 C-11.05952466 276.79379296 -10.3948427 275.45931786 -9.73976135 274.12025452 C-7.86476135 272.19837952 -7.86476135 272.19837952 -5.73976135 270.37025452 C-5.03851135 269.75666077 -4.33726135 269.14306702 -3.61476135 268.51087952 C-1.73976135 267.12025452 -1.73976135 267.12025452 0.26023865 267.12025452 C0.49742615 266.57498108 0.73461365 266.02970764 0.97898865 265.46791077 C2.58941439 262.51710019 4.60175971 260.13321234 6.76023865 257.55775452 C9.07263504 254.7911374 11.25941564 252.12148903 13.26023865 249.12025452 C13.92023865 249.12025452 14.58023865 249.12025452 15.26023865 249.12025452 C15.51160583 248.59302795 15.76297302 248.06580139 16.0219574 247.52259827 C17.26733306 245.1064909 18.63629637 242.78431442 20.02757263 240.4500885 C28.91549804 225.42096166 34.18752455 210.13534202 30.0688324 192.58119202 C26.70853359 182.35419563 19.94251434 173.53980228 11.4828949 166.96009827 C10.74941833 166.35294983 10.01594177 165.74580139 9.26023865 165.12025452 C9.26023865 164.46025452 9.26023865 163.80025452 9.26023865 163.12025452 C8.60023865 162.91400452 7.94023865 162.70775452 7.26023865 162.49525452 C4.60382254 161.27773047 2.79038239 160.08170635 0.51023865 158.30775452 C-3.68087906 155.07236833 -8.07532506 152.60197383 -12.73976135 150.12025452 C-13.68851135 149.58916077 -14.63726135 149.05806702 -15.61476135 148.51087952 C-16.58413635 147.96947327 -17.55351135 147.42806702 -18.55226135 146.87025452 C-19.44558167 146.37009827 -20.33890198 145.86994202 -21.2592926 145.35462952 C-23.63812416 144.05600165 -23.63812416 144.05600165 -26.0014801 143.57337952 C-26.86192932 143.34908264 -26.86192932 143.34908264 -27.73976135 143.12025452 C-28.06976135 142.46025452 -28.39976135 141.80025452 -28.73976135 141.12025452 C-30.71498981 140.07217411 -32.71457644 139.06821341 -34.73976135 138.12025452 C-34.73976135 137.46025452 -34.73976135 136.80025452 -34.73976135 136.12025452 C-37.37976135 135.46025452 -40.01976135 134.80025452 -42.73976135 134.12025452 C-42.73976135 133.46025452 -42.73976135 132.80025452 -42.73976135 132.12025452 C-43.79163635 131.83150452 -44.84351135 131.54275452 -45.92726135 131.24525452 C-48.96794846 130.34800258 -51.82688479 129.35602033 -54.73976135 128.12025452 C-54.73976135 127.46025452 -54.73976135 126.80025452 -54.73976135 126.12025452 C-57.70976135 125.46025452 -60.67976135 124.80025452 -63.73976135 124.12025452 C-63.73976135 123.46025452 -63.73976135 122.80025452 -63.73976135 122.12025452 C-64.62663635 121.83150452 -65.51351135 121.54275452 -66.42726135 121.24525452 C-69.24358559 120.28876704 -71.99059291 119.25226505 -74.73976135 118.12025452 C-74.73976135 117.46025452 -74.73976135 116.80025452 -74.73976135 116.12025452 C-75.81290588 115.71806702 -75.81290588 115.71806702 -76.9077301 115.30775452 C-79.78105074 114.10294145 -82.37313762 112.7078834 -85.05226135 111.12025452 C-85.93526917 110.60462952 -86.81827698 110.08900452 -87.7280426 109.55775452 C-88.39190979 109.08337952 -89.05577698 108.60900452 -89.73976135 108.12025452 C-89.73976135 107.46025452 -89.73976135 106.80025452 -89.73976135 106.12025452 C-91.38976135 105.46025452 -93.03976135 104.80025452 -94.73976135 104.12025452 C-94.73976135 103.46025452 -94.73976135 102.80025452 -94.73976135 102.12025452 C-95.72976135 101.79025452 -96.71976135 101.46025452 -97.73976135 101.12025452 C-104.36954289 93.41257976 -107.25521165 86.11117003 -107.06007385 75.96400452 C-106.07959481 67.25926376 -101.33040297 58.83214392 -94.73976135 53.12025452 C-94.07976135 53.12025452 -93.41976135 53.12025452 -92.73976135 53.12025452 C-92.40976135 52.13025452 -92.07976135 51.14025452 -91.73976135 50.12025452 C-90.29689026 48.76991272 -90.29689026 48.76991272 -88.46632385 47.42103577 C-87.80632385 46.93441467 -87.14632385 46.44779358 -86.46632385 45.94642639 C-85.77280823 45.44691467 -85.0792926 44.94740295 -84.36476135 44.43275452 C-83.6789801 43.92164124 -82.99319885 43.41052795 -82.28663635 42.88392639 C-77.12100927 39.12025452 -77.12100927 39.12025452 -73.73976135 39.12025452 C-73.73976135 38.46025452 -73.73976135 37.80025452 -73.73976135 37.12025452 C-71.09237219 35.65962601 -69.84527801 35.12025452 -66.73976135 35.12025452 C-66.73976135 34.46025452 -66.73976135 33.80025452 -66.73976135 33.12025452 C-56.38819885 27.94447327 -56.38819885 27.94447327 -54.5381012 27.02137756 C-52.83078024 26.16586281 -51.12885528 25.29960425 -49.42726135 24.43275452 C-47.15269542 23.32191999 -45.21073725 22.59544219 -42.73976135 22.12025452 C-42.73976135 21.46025452 -42.73976135 20.80025452 -42.73976135 20.12025452 C-37.77692101 17.74911969 -33.28026248 15.68851104 -27.73976135 15.12025452 C-27.73976135 14.46025452 -27.73976135 13.80025452 -27.73976135 13.12025452 C-26.75233948 12.63814514 -25.7649176 12.15603577 -24.74757385 11.65931702 C-23.45319825 11.02150875 -22.15893314 10.38347622 -20.86476135 9.74525452 C-20.21378479 9.42814514 -19.56280823 9.11103577 -18.8921051 8.78431702 C-16.15799094 7.43135331 -13.91203617 6.29252933 -11.73976135 4.12025452 C-10.40563411 3.55004471 -9.04810968 3.03294877 -7.67726135 2.55775452 C-0.39870903 0.01750027 -0.39870903 0.01750027 0 0 Z " fill="#030303" transform="translate(222.73976135253906,1.8797454833984375)"/>
<path d="M0 0 C26.4 0 52.8 0 80 0 C79.67 1.65 79.34 3.3 79 5 C78.34 5 77.68 5 77 5 C76.34 5.99 75.68 6.98 75 8 C74.505 6.02 74.505 6.02 74 4 C74.66 4 75.32 4 76 4 C76 3.34 76 2.68 76 2 C67.08965748 2.0612541 58.17963438 2.13839096 49.26961231 2.23571491 C45.13215399 2.28041111 40.99479397 2.31966875 36.85717773 2.34643555 C32.86289577 2.37247624 28.86899221 2.41288368 24.87494469 2.46318626 C23.35240072 2.47984988 21.8297913 2.49136733 20.30716896 2.49761391 C18.17158114 2.50726088 16.03696025 2.53532493 13.90161133 2.56762695 C12.6869368 2.57873001 11.47226227 2.58983307 10.22077942 2.60127258 C6.71147274 3.03571922 4.87683194 4.0064506 2 6 C-0.98357998 7.34971475 -2.70334304 8 -6 8 C-6.33 6.68 -6.66 5.36 -7 4 C-4.625 2.9375 -4.625 2.9375 -2 2 C-1.34 2.33 -0.68 2.66 0 3 C0 2.01 0 1.02 0 0 Z " fill="#D6D4D3" transform="translate(213,0)"/>
<path d="M0 0 C0 1.98 0 3.96 0 6 C-11.79583953 6.02315648 -23.59167366 6.040932 -35.38753128 6.05181217 C-40.8646449 6.05703374 -46.34174298 6.06411827 -51.81884766 6.07543945 C-57.10320946 6.08629404 -62.38755631 6.09228232 -67.67192841 6.09487724 C-69.6893716 6.09672684 -71.70681396 6.10033856 -73.72425079 6.10573006 C-76.54697955 6.11297456 -79.36964627 6.11398949 -82.19238281 6.11352539 C-83.02891891 6.11712067 -83.86545502 6.12071594 -84.7273407 6.12442017 C-88.32301556 6.11801076 -91.54032338 5.97139071 -95 5 C-94.67 4.34 -94.34 3.68 -94 3 C-92.90641174 3.00666183 -91.81282349 3.01332367 -90.68609619 3.02018738 C-80.38607255 3.08097093 -70.08608523 3.12595941 -59.785923 3.15543652 C-54.49034405 3.17110039 -49.19490976 3.19235195 -43.89941406 3.22631836 C-38.79010341 3.25888589 -33.680932 3.27684758 -28.57152557 3.28463173 C-26.62104856 3.29017991 -24.67057926 3.30101401 -22.72016144 3.31719017 C-19.99068155 3.33892975 -17.26177893 3.34196838 -14.53222656 3.34057617 C-13.72374268 3.351362 -12.91525879 3.36214783 -12.08227539 3.3732605 C-7.16042669 3.34604979 -4.0571161 0 0 0 Z " fill="#BCBCBC" transform="translate(245,314)"/>
<path d="M0 0 C1.32 0.66 2.64 1.32 4 2 C-4.13739679 8.66241985 -13.69653232 7.63938377 -23.59765625 7.48828125 C-25.40082311 7.47894273 -27.20400275 7.47183153 -29.00718689 7.46684265 C-33.72732258 7.44785445 -38.44667521 7.39882544 -43.16650391 7.34332275 C-47.99305634 7.29195264 -52.8197367 7.26929086 -57.64648438 7.24414062 C-67.09799817 7.19069773 -76.54893368 7.10548546 -86 7 C-84.68 5.68 -83.36 4.36 -82 3 C-81.67 3.66 -81.34 4.32 -81 5 C-55.59 5 -30.18 5 -4 5 C-4 4.34 -4 3.68 -4 3 C-3.01 2.67 -2.02 2.34 -1 2 C-0.67 1.34 -0.34 0.68 0 0 Z " fill="#242323" transform="translate(92,311)"/>
<path d="M0 0 C3.99926986 2.97088618 6.92118304 6.12948725 10 10 C9.67 10.66 9.34 11.32 9 12 C5.71585695 12.95067299 4.30306592 13.10102197 1 12 C0.67 12.66 0.34 13.32 0 14 C-0.66 10.7 -1.32 7.4 -2 4 C-1.34 4 -0.68 4 0 4 C0 2.68 0 1.36 0 0 Z M3 13 C3.33 13.66 3.66 14.32 4 15 C3.34 14.67 2.68 14.34 2 14 C2.33 13.67 2.66 13.34 3 13 Z " fill="#D3D1D2" transform="translate(32,124)"/>
<path d="M0 0 C1.9385939 0.00666183 1.9385939 0.00666183 3.91635132 0.01345825 C4.98480537 0.01302017 4.98480537 0.01302017 6.07484436 0.01257324 C8.43408301 0.01396888 10.79300755 0.02954076 13.15219116 0.04519653 C14.78600899 0.04892584 16.41982904 0.0517732 18.0536499 0.05377197 C22.35765742 0.06141493 26.66153035 0.08106904 30.96548462 0.10317993 C35.35582661 0.12362413 39.74619031 0.13277063 44.13656616 0.14285278 C52.75381549 0.16431437 61.37095534 0.19845823 69.98812866 0.24050903 C68.33812866 1.56050903 66.68812866 2.88050903 64.98812866 4.24050903 C64.49312866 2.75550903 64.49312866 2.75550903 63.98812866 1.24050903 C41.21812866 1.57050903 18.44812866 1.90050903 -5.01187134 2.24050903 C-3.01187134 0.24050903 -3.01187134 0.24050903 0 0 Z " fill="#1C1C1C" transform="translate(91.01187133789063,1.759490966796875)"/>
<path d="M0 0 C2.48982535 2.27745789 4.10368997 4.62335238 5.75 7.5625 C6.19859375 8.34753906 6.6471875 9.13257812 7.109375 9.94140625 C7.40328125 10.62074219 7.6971875 11.30007812 8 12 C7.67 12.66 7.34 13.32 7 14 C5.35 13.01 3.7 12.02 2 11 C1.67 12.32 1.34 13.64 1 15 C-2.08290155 10.77202073 -2.08290155 10.77202073 -3 8 C-2.45519487 4.95861213 -1.38188482 2.81312268 0 0 Z " fill="#DFDEDB" transform="translate(24,110)"/>
<path d="M0 0 C0.33 0 0.66 0 1 0 C1.39509731 12.74554662 0.82405565 21.94032361 -6 33 C-6.66 32.34 -7.32 31.68 -8 31 C-7.72285156 30.25234375 -7.44570312 29.5046875 -7.16015625 28.734375 C-6.79792969 27.74953125 -6.43570313 26.7646875 -6.0625 25.75 C-5.70285156 24.77546875 -5.34320313 23.8009375 -4.97265625 22.796875 C-4.18620345 20.53542839 -3.52748399 18.33203448 -3 16 C-2.01 16 -1.02 16 0 16 C0 10.72 0 5.44 0 0 Z " fill="#3E3E3E" transform="translate(209,203)"/>
<path d="M0 0 C0.66 0.33 1.32 0.66 2 1 C0.02 3.97 0.02 3.97 -2 7 C-1.34 7.33 -0.68 7.66 0 8 C-0.66 8 -1.32 8 -2 8 C-2 8.99 -2 9.98 -2 11 C-2.99 10.67 -3.98 10.34 -5 10 C-6.33568021 10.32380126 -7.66923011 10.65657551 -9 11 C-9.66 10.67 -10.32 10.34 -11 10 C-11 9.01 -11 8.02 -11 7 C-8.84765625 5.4296875 -8.84765625 5.4296875 -6.0625 3.875 C-2.83826582 2.20067795 -2.83826582 2.20067795 0 0 Z " fill="#D6D6D6" transform="translate(122,296)"/>
<path d="M0 0 C0.66 0.66 1.32 1.32 2 2 C1.57847656 2.83402344 1.15695313 3.66804688 0.72265625 4.52734375 C-2.51261206 11.17296547 -4.7488304 16.59049674 -5 24 C-5.66 23.67 -6.32 23.34 -7 23 C-7.64668107 15.11049093 -5.64154337 9.95794893 -2 3 C-2.66 2.67 -3.32 2.34 -4 2 C-2.68 1.34 -1.36 0.68 0 0 Z " fill="#0B0A0A" transform="translate(76,62)"/>
<path d="M0 0 C0.99 0.66 1.98 1.32 3 2 C2.01 2.33 1.02 2.66 0 3 C0 3.66 0 4.32 0 5 C-0.639375 5.103125 -1.27875 5.20625 -1.9375 5.3125 C-2.618125 5.539375 -3.29875 5.76625 -4 6 C-4.33 6.99 -4.66 7.98 -5 9 C-5.66 9 -6.32 9 -7 9 C-7 9.66 -7 10.32 -7 11 C-8.65 11.66 -10.3 12.32 -12 13 C-11.35089967 9.4948582 -10.15543411 6.84825221 -8 4 C-5.4375 3.125 -5.4375 3.125 -3 3 C-2.34 3.33 -1.68 3.66 -1 4 C-0.67 2.68 -0.34 1.36 0 0 Z " fill="#C9C8C7" transform="translate(61,16)"/>
<path d="M0 0 C2.57737166 1.03094867 3.76284247 1.5108626 5 4.0625 C5.8295822 6.21280279 5.8295822 6.21280279 8.125 6.75 C8.74375 6.8325 9.3625 6.915 10 7 C10 7.66 10 8.32 10 9 C10.99 9.33 11.98 9.66 13 10 C12.38125 10.28875 11.7625 10.5775 11.125 10.875 C8.86674235 11.93720042 8.86674235 11.93720042 7 14 C7 12.33333333 7 10.66666667 7 9 C6.01 9 5.02 9 4 9 C4 8.01 4 7.02 4 6 C2.68 5.34 1.36 4.68 0 4 C0 2.66666667 0 1.33333333 0 0 Z " fill="#C6C4C3" transform="translate(47,140)"/>
<path d="M0 0 C0.8125 1.6875 0.8125 1.6875 1 4 C-3.13000542 8.85882991 -8.31528521 13.08082213 -14 16 C-14.66 15.67 -15.32 15.34 -16 15 C-14.38050958 13.49405319 -12.75424026 11.99539332 -11.125 10.5 C-10.22007812 9.6646875 -9.31515625 8.829375 -8.3828125 7.96875 C-6 6 -6 6 -4 6 C-3.566875 5.071875 -3.566875 5.071875 -3.125 4.125 C-2 2 -2 2 0 0 Z " fill="#222222" transform="translate(227,263)"/>
<path d="M0 0 C1.32 0.33 2.64 0.66 4 1 C4 2.32 4 3.64 4 5 C4.66 5.33 5.32 5.66 6 6 C4.35 7.98 2.7 9.96 1 12 C-0.65 10.35 -2.3 8.7 -4 7 C-3.01 6.67 -2.02 6.34 -1 6 C-1 5.34 -1 4.68 -1 4 C-0.01 4 0.98 4 2 4 C2 3.34 2 2.68 2 2 C1.34 2 0.68 2 0 2 C0 1.34 0 0.68 0 0 Z " fill="#E1DFE0" transform="translate(40,26)"/>
<path d="M0 0 C3.23680864 2.92491059 5.03891721 5.64917394 6.8125 9.625 C7.25207031 10.58664063 7.69164062 11.54828125 8.14453125 12.5390625 C8.56798828 13.75722656 8.56798828 13.75722656 9 15 C8.67 15.66 8.34 16.32 8 17 C7.34 16.67 6.68 16.34 6 16 C6 15.34 6 14.68 6 14 C5.01 13.67 4.02 13.34 3 13 C3.33 11.35 3.66 9.7 4 8 C3.01 8 2.02 8 1 8 C0.67 5.36 0.34 2.72 0 0 Z " fill="#C8C7C5" transform="translate(245,180)"/>
<path d="M0 0 C0.33 0.99 0.66 1.98 1 3 C1.99 3 2.98 3 4 3 C4 8.94 4 14.88 4 21 C3.34 21 2.68 21 2 21 C1.93941406 20.07058594 1.87882813 19.14117187 1.81640625 18.18359375 C1.20428448 9.05853115 1.20428448 9.05853115 0 0 Z " fill="#121212" transform="translate(205,198)"/>
<path d="M0 0 C0.99 0.66 1.98 1.32 3 2 C2.34 3.65 1.68 5.3 1 7 C0.34 7 -0.32 7 -1 7 C-1.99 8.485 -1.99 8.485 -3 10 C-5.625 10.6875 -5.625 10.6875 -8 11 C-5.69281189 6.71522208 -3.67033927 3.27708863 0 0 Z " fill="#D0CFCE" transform="translate(87,51)"/>
<path d="M0 0 C0 1.98 0 3.96 0 6 C-7.26 6 -14.52 6 -22 6 C-22 5.67 -22 5.34 -22 5 C-16.39 5 -10.78 5 -5 5 C-4.67 3.68 -4.34 2.36 -4 1 C-2 0 -2 0 0 0 Z " fill="#D1D1D1" transform="translate(245,314)"/>
<path d="M0 0 C0.66 0.33 1.32 0.66 2 1 C-0.77079887 4.80984844 -4.62868145 5.06840752 -9 6 C-9 6.66 -9 7.32 -9 8 C-9.99 8 -10.98 8 -12 8 C-12.33 8.99 -12.66 9.98 -13 11 C-15.31 11.33 -17.62 11.66 -20 12 C-18.40434605 8.8086921 -15.15338879 7.88215291 -12.0625 6.375 C-11.41603516 6.05015625 -10.76957031 5.7253125 -10.10351562 5.390625 C-5.26702009 3 -5.26702009 3 -3 3 C-3 2.34 -3 1.68 -3 1 C-2.01 0.67 -1.02 0.34 0 0 Z " fill="#959394" transform="translate(230,33)"/>
<path d="M0 0 C0.33 0.66 0.66 1.32 1 2 C0.34 2 -0.32 2 -1 2 C-1.226875 2.598125 -1.45375 3.19625 -1.6875 3.8125 C-3.34703745 6.57839575 -5.20498395 7.46274117 -8 9 C-8.66 9.66 -9.32 10.32 -10 11 C-12.31765729 11.71927295 -14.65095874 12.3909893 -17 13 C-17 12.34 -17 11.68 -17 11 C-16.39671875 10.67386719 -15.7934375 10.34773437 -15.171875 10.01171875 C-13.97304687 9.35623047 -13.97304687 9.35623047 -12.75 8.6875 C-11.96109375 8.25824219 -11.1721875 7.82898438 -10.359375 7.38671875 C-7.96827026 6.0465516 -7.96827026 6.0465516 -5.828125 4.33203125 C-4 3 -4 3 -2 3 C-2 2.34 -2 1.68 -2 1 C-1.34 0.67 -0.68 0.34 0 0 Z " fill="#3C3C3C" transform="translate(138,240)"/>
<path d="M0 0 C-2.64738916 1.4606285 -3.89448334 2 -7 2 C-7 2.99 -7 3.98 -7 5 C-6.34 5.33 -5.68 5.66 -5 6 C-5 6.66 -5 7.32 -5 8 C-6.216875 7.814375 -7.43375 7.62875 -8.6875 7.4375 C-12.02977939 7.01006818 -14.71968417 7.07741117 -18 8 C-14.71195019 5.08772731 -12.40114397 3.50298788 -8 3 C-8 2.34 -8 1.68 -8 1 C-2.25 -1.125 -2.25 -1.125 0 0 Z " fill="#A9A9A7" transform="translate(208,47)"/>
<path d="M0 0 C2.31 0.33 4.62 0.66 7 1 C5.02 1.99 5.02 1.99 3 3 C3 3.33 3 3.66 3 4 C3.99 4.33 4.98 4.66 6 5 C4 7 4 7 1.375 7.125 C0.59125 7.08375 -0.1925 7.0425 -1 7 C-1 6.34 -1 5.68 -1 5 C-1.66 4.67 -2.32 4.34 -3 4 C-2.34 4 -1.68 4 -1 4 C-0.67 2.68 -0.34 1.36 0 0 Z " fill="#EFEFED" transform="translate(246,313)"/>
<path d="M0 0 C0 1.32 0 2.64 0 4 C0.66 4 1.32 4 2 4 C1.67 5.65 1.34 7.3 1 9 C0.67 8.34 0.34 7.68 0 7 C0.33 6.34 0.66 5.68 1 5 C0.34 5 -0.32 5 -1 5 C-1.66 6.32 -2.32 7.64 -3 9 C-4.5625 6.6875 -4.5625 6.6875 -6 4 C-5.67 3.01 -5.34 2.02 -5 1 C-3 0 -3 0 0 0 Z " fill="#F0F0F0" transform="translate(155,205)"/>
<path d="M0 0 C3.97662718 2.87200852 6.5890158 5.71380587 9 10 C9 11.32 9 12.64 9 14 C5.30653074 12.76884358 5.13909926 11.87119351 3.4375 8.5 C1.88380682 5.09741461 1.88380682 5.09741461 -1 3 C-0.67 2.01 -0.34 1.02 0 0 Z " fill="#111110" transform="translate(243,174)"/>
<path d="M0 0 C0.33 0 0.66 0 1 0 C2.9333722 11.48537938 2.9333722 11.48537938 -0.4375 16.75 C-1.26236194 17.85580947 -2.10652404 18.94885181 -3 20 C-3.66 19.67 -4.32 19.34 -5 19 C-4.505 17.515 -4.505 17.515 -4 16 C-3.34 16 -2.68 16 -2 16 C-1.34 10.72 -0.68 5.44 0 0 Z " fill="#151515" transform="translate(158,207)"/>
<path d="M0 0 C0.66 0.33 1.32 0.66 2 1 C1.05125 1.7425 0.1025 2.485 -0.875 3.25 C-3.32532401 5.27845219 -4.87325363 6.9577848 -6 10 C-6.66 9.67 -7.32 9.34 -8 9 C-8.33 9.33 -8.66 9.66 -9 10 C-11.0625 9.5625 -11.0625 9.5625 -13 9 C-12.34 9 -11.68 9 -11 9 C-11 8.34 -11 7.68 -11 7 C-9.35 6.67 -7.7 6.34 -6 6 C-6 5.34 -6 4.68 -6 4 C-4.03852126 2.61061923 -2.03833424 1.2739589 0 0 Z " fill="#B5B5B2" transform="translate(126,20)"/>
<path d="M0 0 C0.33 1.65 0.66 3.3 1 5 C0.01 5.33 -0.98 5.66 -2 6 C-2 6.66 -2 7.32 -2 8 C-5 7 -5 7 -6.1875 4.9375 C-6.5896875 3.9784375 -6.5896875 3.9784375 -7 3 C-2.25 0 -2.25 0 0 0 Z " fill="#DDDCDA" transform="translate(182,16)"/>
<path d="M0 0 C1.30120067 2.60240133 0.78052242 3.63132526 0.125 6.4375 C-1.06270244 11.93463631 -1.59522704 17.39709003 -2 23 C-2.33 23 -2.66 23 -3 23 C-3.0868329 19.541824 -3.14033282 16.08392656 -3.1875 12.625 C-3.21263672 11.64015625 -3.23777344 10.6553125 -3.26367188 9.640625 C-3.27333984 8.69960937 -3.28300781 7.75859375 -3.29296875 6.7890625 C-3.3086792 5.91975098 -3.32438965 5.05043945 -3.34057617 4.15478516 C-3.22818604 3.44370605 -3.1157959 2.73262695 -3 2 C-2.01 1.34 -1.02 0.68 0 0 Z " fill="#A7A7A5" transform="translate(21,67)"/>
<path d="M0 0 C3.10551666 3.10551666 3.81323934 4.89198233 5 9 C-1 9 -1 9 -3 8 C-2.01 5.36 -1.02 2.72 0 0 Z " fill="#C9C8C7" transform="translate(24,110)"/>
<path d="M0 0 C0.66 0.99 1.32 1.98 2 3 C-0.61521623 8.3310177 -2.24237134 10.77546166 -8 13 C-7.67 12.01 -7.34 11.02 -7 10 C-6.34 10 -5.68 10 -5 10 C-4.731875 9.46375 -4.46375 8.9275 -4.1875 8.375 C-2.79166667 5.58333333 -1.39583333 2.79166667 0 0 Z " fill="#292929" transform="translate(243,241)"/>
<path d="M0 0 C4.90927207 4.75090845 4.90927207 4.75090845 5.16796875 8.3125 C5.17441406 9.199375 5.18085938 10.08625 5.1875 11 C5.20167969 11.886875 5.21585938 12.77375 5.23046875 13.6875 C5 16 5 16 3 18 C3.33 14.37 3.66 10.74 4 7 C3.34 7 2.68 7 2 7 C0 4 0 4 0 0 Z " fill="#B3B3B3" transform="translate(153,202)"/>
<path d="M0 0 C0.33 0.99 0.66 1.98 1 3 C1.66 3 2.32 3 3 3 C3 3.99 3 4.98 3 6 C3.66 6 4.32 6 5 6 C5.99 7.98 6.98 9.96 8 12 C7.01 12 6.02 12 5 12 C3.359375 9.8828125 3.359375 9.8828125 1.75 7.125 C1.20859375 6.22007813 0.6671875 5.31515625 0.109375 4.3828125 C-0.25671875 3.59648438 -0.6228125 2.81015625 -1 2 C-0.67 1.34 -0.34 0.68 0 0 Z " fill="#141313" transform="translate(28,113)"/>
<path d="M0 0 C0.66 0.33 1.32 0.66 2 1 C1.75 2.875 1.75 2.875 1 5 C-1.0625 6.25 -1.0625 6.25 -3 7 C-3.33 6.34 -3.66 5.68 -4 5 C-6.31 5.66 -8.62 6.32 -11 7 C-8.31168909 3.67914534 -4.87808588 2.57996092 -1 1 C-0.67 0.67 -0.34 0.34 0 0 Z " fill="#BFBEBC" transform="translate(244,26)"/>
<path d="M0 0 C0.33 0.99 0.66 1.98 1 3 C1.66 3 2.32 3 3 3 C2.67 3.99 2.34 4.98 2 6 C2 5.34 2 4.68 2 4 C1.34 4 0.68 4 0 4 C-0.66 5.32 -1.32 6.64 -2 8 C-3.32 6.35 -4.64 4.7 -6 3 C-5.195625 2.87625 -4.39125 2.7525 -3.5625 2.625 C-2.716875 2.41875 -1.87125 2.2125 -1 2 C-0.67 1.34 -0.34 0.68 0 0 Z " fill="#DFDEDC" transform="translate(89,109)"/>
<path d="M0 0 C-0.66 0.66 -1.32 1.32 -2 2 C-3.32 2 -4.64 2 -6 2 C-6.33 3.32 -6.66 4.64 -7 6 C-9.31 6 -11.62 6 -14 6 C-14 5.34 -14 4.68 -14 4 C-12.02 3.67 -10.04 3.34 -8 3 C-8 2.34 -8 1.68 -8 1 C-2.25 -1.125 -2.25 -1.125 0 0 Z " fill="#AAA9AA" transform="translate(268,16)"/>
<path d="M0 0 C0.33 0 0.66 0 1 0 C1.33 2.64 1.66 5.28 2 8 C0.02 8.99 -1.96 9.98 -4 11 C-3.52269162 9.5410574 -3.04308958 8.08286504 -2.5625 6.625 C-2.29566406 5.81289062 -2.02882812 5.00078125 -1.75390625 4.1640625 C-1 2 -1 2 0 0 Z " fill="#202020" transform="translate(251,226)"/>
<path d="M0 0 C0.99 0.33 1.98 0.66 3 1 C3 1.66 3 2.32 3 3 C7.455 3.99 7.455 3.99 12 5 C11.67 5.66 11.34 6.32 11 7 C7.7 6.67 4.4 6.34 1 6 C0.67 4.02 0.34 2.04 0 0 Z " fill="#C2C2C1" transform="translate(79,163)"/>
<path d="M0 0 C0.33 0.66 0.66 1.32 1 2 C0.34 2 -0.32 2 -1 2 C-1 2.99 -1 3.98 -1 5 C-1.886875 5.144375 -2.77375 5.28875 -3.6875 5.4375 C-6.47117646 5.91019978 -9.23483757 6.43070185 -12 7 C-11.34 6.01 -10.68 5.02 -10 4 C-6.375 3.3125 -6.375 3.3125 -3 3 C-3 2.34 -3 1.68 -3 1 C-2.01 0.67 -1.02 0.34 0 0 Z " fill="#C7C7C6" transform="translate(156,5)"/>
<path d="M0 0 C0.66 0.66 1.32 1.32 2 2 C0.68 4.64 -0.64 7.28 -2 10 C-2.66 9.67 -3.32 9.34 -4 9 C-3.34 7.02 -2.68 5.04 -2 3 C-2.66 2.67 -3.32 2.34 -4 2 C-2.68 1.34 -1.36 0.68 0 0 Z " fill="#1A1A1A" transform="translate(76,62)"/>
<path d="M0 0 C0.99 0.33 1.98 0.66 3 1 C2.34 1 1.68 1 1 1 C0.67 2.65 0.34 4.3 0 6 C-2.64 6 -5.28 6 -8 6 C-3.375 2 -3.375 2 0 2 C0 1.34 0 0.68 0 0 Z " fill="#A8A8A6" transform="translate(187,55)"/>
<path d="M0 0 C1.2065625 0.0309375 1.2065625 0.0309375 2.4375 0.0625 C1.62935349 1.39847652 0.81586819 2.731225 0 4.0625 C-0.45246094 4.805 -0.90492188 5.5475 -1.37109375 6.3125 C-1.76425781 6.89 -2.15742188 7.4675 -2.5625 8.0625 C-2.8925 8.0625 -3.2225 8.0625 -3.5625 8.0625 C-3.60491723 5.72955225 -3.60342937 3.39547433 -3.5625 1.0625 C-2.5625 0.0625 -2.5625 0.0625 0 0 Z " fill="#D5D5D5" transform="translate(240.5625,242.9375)"/>
<path d="M0 0 C1.65 1.32 3.3 2.64 5 4 C4.67 4.66 4.34 5.32 4 6 C1.4375 6.625 1.4375 6.625 -1 7 C-0.67 4.69 -0.34 2.38 0 0 Z M-2 7 C-1.67 7.66 -1.34 8.32 -1 9 C-1.66 8.67 -2.32 8.34 -3 8 C-2.67 7.67 -2.34 7.34 -2 7 Z " fill="#D2D1D0" transform="translate(37,130)"/>
<path d="M0 0 C0.33 0 0.66 0 1 0 C1.36923077 5.53846154 1.36923077 5.53846154 -0.5 7.875 C-1.2425 8.431875 -1.2425 8.431875 -2 9 C-2.99 8.67 -3.98 8.34 -5 8 C-4.19185349 6.66402348 -3.37836819 5.331275 -2.5625 4 C-2.11003906 3.2575 -1.65757813 2.515 -1.19140625 1.75 C-0.79824219 1.1725 -0.40507813 0.595 0 0 Z " fill="#272526" transform="translate(124,59)"/>
<path d="M0 0 C0.33 0.66 0.66 1.32 1 2 C1.66 2.33 2.32 2.66 3 3 C1.9024777 5.99324263 1.32317108 6.84610901 -1.625 8.25 C-2.40875 8.4975 -3.1925 8.745 -4 9 C-3.35455571 5.51460083 -1.89865603 2.97180943 0 0 Z " fill="#D5D3D3" transform="translate(53,20)"/>
<path d="M0 0 C0.99 0.33 1.98 0.66 3 1 C3 2.65 3 4.3 3 6 C1.02 5.34 -0.96 4.68 -3 4 C-2.67 3.01 -2.34 2.02 -2 1 C-1.34 0.67 -0.68 0.34 0 0 Z " fill="#EFEFEF" transform="translate(183,166)"/>
<path d="M0 0 C0.66 0.66 1.32 1.32 2 2 C2.66 2.33 3.32 2.66 4 3 C3.67 4.65 3.34 6.3 3 8 C2.34 8 1.68 8 1 8 C-1 5 -1 5 -0.625 2.3125 C-0.41875 1.549375 -0.2125 0.78625 0 0 Z " fill="#ECEAEA" transform="translate(33,127)"/>
<path d="M0 0 C0.66 0.66 1.32 1.32 2 2 C1.8125 4.0625 1.8125 4.0625 1 6 C0.01 6.33 -0.98 6.66 -2 7 C-2.66 6.67 -3.32 6.34 -4 6 C-4 4 -4 4 -2 1.875 C-1.34 1.25625 -0.68 0.6375 0 0 Z " fill="#D9D9D9" transform="translate(199,240)"/>
<path d="M0 0 C2.375 -0.125 2.375 -0.125 5 0 C7 2 7 2 7 5 C8.32 5.66 9.64 6.32 11 7 C9.35 6.67 7.7 6.34 6 6 C6 5.34 6 4.68 6 4 C5.38125 3.71125 4.7625 3.4225 4.125 3.125 C2 2 2 2 0 0 Z " fill="#535252" transform="translate(62,152)"/>
<path d="M0 0 C0.66 0.33 1.32 0.66 2 1 C1.67 1.66 1.34 2.32 1 3 C1.66 3.33 2.32 3.66 3 4 C2.01 4.495 2.01 4.495 1 5 C0.34786708 7.02463255 0.34786708 7.02463255 0 9 C-0.99 8.67 -1.98 8.34 -3 8 C-2.01 5.36 -1.02 2.72 0 0 Z " fill="#F1F1F1" transform="translate(136,233)"/>
<path d="M0 0 C0.75 1.75 0.75 1.75 1 4 C-1.31787009 7.00464642 -3.2273236 8.46104623 -7 9 C-6.34 8.01 -5.68 7.02 -5 6 C-4.34 6 -3.68 6 -3 6 C-2.690625 5.38125 -2.38125 4.7625 -2.0625 4.125 C-1.375 2.75 -0.6875 1.375 0 0 Z " fill="#252525" transform="translate(151,227)"/>
<path d="M0 0 C0.598125 0.350625 1.19625 0.70125 1.8125 1.0625 C1.8125 2.3825 1.8125 3.7025 1.8125 5.0625 C-1.07187779 3.76950306 -3.05969421 2.40308637 -5.1875 0.0625 C-2.1875 -0.9375 -2.1875 -0.9375 0 0 Z " fill="#CACACA" transform="translate(192.1875,174.9375)"/>
<path d="M0 0 C0.99 0.33 1.98 0.66 3 1 C3 1.66 3 2.32 3 3 C3.99 3.33 4.98 3.66 6 4 C5.38125 4.28875 4.7625 4.5775 4.125 4.875 C1.86674235 5.93720042 1.86674235 5.93720042 0 8 C0 5.33333333 0 2.66666667 0 0 Z " fill="#D3D1D2" transform="translate(54,146)"/>
<path d="M0 0 C1.32 0.33 2.64 0.66 4 1 C3.67 2.32 3.34 3.64 3 5 C2.34 5 1.68 5 1 5 C0.34 5.99 -0.32 6.98 -1 8 C-1.33 6.68 -1.66 5.36 -2 4 C-1.34 4 -0.68 4 0 4 C0 2.68 0 1.36 0 0 Z " fill="#DADAD7" transform="translate(289,0)"/>
<path d="M0 0 C2.31 0.33 4.62 0.66 7 1 C7 1.66 7 2.32 7 3 C7.66 3 8.32 3 9 3 C9.33 4.32 9.66 5.64 10 7 C8.51719804 6.21516341 7.0388502 5.42190666 5.5625 4.625 C4.73878906 4.18414062 3.91507813 3.74328125 3.06640625 3.2890625 C1 2 1 2 0 0 Z " fill="#444444" transform="translate(214,153)"/>
<path d="M0 0 C1.32 0.66 2.64 1.32 4 2 C1.03 3.65 -1.94 5.3 -5 7 C-5.33 6.34 -5.66 5.68 -6 5 C-5.34 5 -4.68 5 -4 5 C-4 4.34 -4 3.68 -4 3 C-3.01 2.67 -2.02 2.34 -1 2 C-0.67 1.34 -0.34 0.68 0 0 Z " fill="#464646" transform="translate(92,311)"/>
<path d="M0 0 C1.125 1.6875 1.125 1.6875 2 4 C1.125 6.75 1.125 6.75 0 9 C-0.66 9 -1.32 9 -2 9 C-3.125 5.25 -3.125 5.25 -2 3 C-1.34 3 -0.68 3 0 3 C0 2.01 0 1.02 0 0 Z " fill="#0F0F0F" transform="translate(309,238)"/>
<path d="M0 0 C0.99 0.33 1.98 0.66 3 1 C3 1.66 3 2.32 3 3 C1.03852126 4.38938077 -0.96166576 5.7260411 -3 7 C-2.38722388 4.03824877 -1.74627478 2.61941217 0 0 Z " fill="#D5D5D5" transform="translate(208,277)"/>
<path d="M0 0 C0.99 0.33 1.98 0.66 3 1 C1.7191375 4.64553172 0.83328987 6.16671013 -2 9 C-1.34 6.03 -0.68 3.06 0 0 Z " fill="#101010" transform="translate(199,234)"/>
<path d="M0 0 C2.79872437 2.52788007 4.45773019 4.20411134 5 8 C3.68 8 2.36 8 1 8 C0.67 5.36 0.34 2.72 0 0 Z " fill="#CECDCC" transform="translate(245,180)"/>
<path d="M0 0 C0.625 2.0625 0.625 2.0625 1 4 C-4.75 2.25 -4.75 2.25 -7 0 C-2.25 -1.125 -2.25 -1.125 0 0 Z " fill="#AFAFAF" transform="translate(233,125)"/>
<path d="M0 0 C1.32 0 2.64 0 4 0 C4 0.66 4 1.32 4 2 C4.66 2.33 5.32 2.66 6 3 C7.0194119 3.98020375 8.02246356 4.97803008 9 6 C4.58763974 6 3.21615077 3.9302707 0 1 C0 0.67 0 0.34 0 0 Z " fill="#C8C8C8" transform="translate(88,117)"/>
<path d="M0 0 C3 1 3 1 4 2.875 C4.33 3.57625 4.66 4.2775 5 5 C6.5412312 6.70921589 6.5412312 6.70921589 8 8 C6.68 8 5.36 8 4 8 C0 2.88888889 0 2.88888889 0 0 Z " fill="#232323" transform="translate(152,87)"/>
<path d="M0 0 C0.33 0 0.66 0 1 0 C1.20140476 3.62528568 0.85776765 5.86501708 -1 9 C-1.99 9 -2.98 9 -4 9 C-2.80100302 5.9168649 -1.52299523 2.93720508 0 0 Z " fill="#272727" transform="translate(28,52)"/>
<path d="M0 0 C0.53625 0.226875 1.0725 0.45375 1.625 0.6875 C0.635 0.6875 -0.355 0.6875 -1.375 0.6875 C-1.705 1.6775 -2.035 2.6675 -2.375 3.6875 C-4.685 4.0175 -6.995 4.3475 -9.375 4.6875 C-7.60317726 1.14385451 -3.87334298 -0.50965039 0 0 Z " fill="#BFBCBD" transform="translate(219.375,40.3125)"/>
<path d="M0 0 C0.66 0.33 1.32 0.66 2 1 C1.67 2.32 1.34 3.64 1 5 C-1.76264289 5.59732819 -4.16032769 6 -7 6 C-4.69 4.02 -2.38 2.04 0 0 Z " fill="#B3B3B1" transform="translate(111,30)"/>
<path d="M0 0 C1.65 0 3.3 0 5 0 C4.67 0.99 4.34 1.98 4 3 C2.02 3.33 0.04 3.66 -2 4 C-1.34 2.68 -0.68 1.36 0 0 Z " fill="#E7E7E6" transform="translate(216,0)"/>
<path d="M0 0 C0.99 0.33 1.98 0.66 3 1 C2.67 1.66 2.34 2.32 2 3 C3.32 3.33 4.64 3.66 6 4 C4.02 4.66 2.04 5.32 0 6 C-1 3 -1 3 0 0 Z " fill="#D1D0D0" transform="translate(213,0)"/>
<path d="M0 0 C1.61949011 2.57213134 2.04408751 3.67669159 1.625 6.75 C1.41875 7.4925 1.2125 8.235 1 9 C-0.32 8.01 -1.64 7.02 -3 6 C-2.01 4.02 -1.02 2.04 0 0 Z " fill="#111111" transform="translate(153,79)"/>
<path d="M0 0 C0.99 0 1.98 0 3 0 C3.625 1.875 3.625 1.875 4 4 C3.34 4.66 2.68 5.32 2 6 C1.01 4.35 0.02 2.7 -1 1 C-0.67 0.67 -0.34 0.34 0 0 Z " fill="#D9D9D7" transform="translate(294,167)"/>
<path d="M0 0 C0.99 0.33 1.98 0.66 3 1 C3 1.66 3 2.32 3 3 C1.125 4.0625 1.125 4.0625 -1 5 C-1.66 4.67 -2.32 4.34 -3 4 C-3 3.34 -3 2.68 -3 2 C-2.01 1.34 -1.02 0.68 0 0 Z " fill="#121110" transform="translate(235,163)"/>
<path d="M0 0 C2.64 0.33 5.28 0.66 8 1 C8.33 1.99 8.66 2.98 9 4 C2.25 2.25 2.25 2.25 0 0 Z " fill="#C7C7C7" transform="translate(235,129)"/>
</svg>
